<svg xmlns="http://www.w3.org/2000/svg" xmlns:xlink="http://www.w3.org/1999/xlink" width="187" height="187" xmlns:v="https://vecta.io/nano"><style><![CDATA[.B{fill:#5381ff}]]></style><defs><clipPath id="A"><path d="M0 0h187v187H0z"/></clipPath><path id="B" d="M686.689 3165.934l-.5.381-56.276 42.908-.313.239-.306-.249-54.965-44.68-.49-.398.495-.382 56.299-43.426.317-.244.31.255 54.946 45.199.484.398zm-57.072 42.269l55.465-42.296-54.151-44.536-55.485 42.791 54.171 44.042z"/><path id="C" d="M631.452 3120.969l-.203.157-56.297 43.417-.954.735.148-1.197 4.349-35.277 1.644-14.822.023-.211.166-.129 48.945-37.978.786-.61.03 1 1.354 44.657.008.257zm-56.164 42.047l55.142-42.534-1.322-43.4-47.991 37.232-1.623 14.614v.003.003l-4.207 34.082z"/><path id="D" d="M578.995 3128.868l1.645-14.824 48.944-37.975 1.357 44.657-56.3 43.421z"/></defs><g clip-path="url(#A)"><g transform="matrix(.642788 .766044 -.766044 .642788 2060.137 -2385.434)" fill="#fff"><path d="M574.642 3164.148l56.3-43.421 54.946 45.194-56.28 42.911z"/><use xlink:href="#B" class="B"/><path d="M630.943 3120.726h0l-1.337-44.639 50.09 41.665 6.194 48.165z"/><path d="M686.547 3167.106l-.977-.803-54.948-45.187-.178-.146-.007-.23-1.338-44.639-.034-1.123.861.717 50.091 41.67.152.126.025.196 6.191 48.166.161 1.253zm-55.11-46.622l53.795 44.246-6.01-46.714-49.076-40.818 1.292 43.287z" class="B"/><use xlink:href="#D"/><use xlink:href="#C" class="B"/><path d="M628.896 3111.939l56.3-43.421 54.946 45.194-56.28 42.911z"/><path d="M740.943 3113.725l-.5.381-56.276 42.908-.313.239-.306-.249-54.965-44.68-.49-.398.495-.382 56.299-43.426.317-.244.31.255 54.946 45.199.484.398zm-57.072 42.269l55.465-42.296-54.151-44.536-55.485 42.791 54.171 44.042z" class="B"/><path d="M685.197 3068.517h0l-1.338-44.639 50.09 41.665 6.194 48.165z"/><path d="M740.801 3114.897l-.977-.804-54.948-45.187-.178-.146-.007-.23-1.338-44.639-.034-1.123.861.717 50.091 41.67.152.126.025.196 6.191 48.166.161 1.253zm-55.11-46.622l53.795 44.246-6.01-46.714-49.076-40.818 1.292 43.287z" class="B"/><path d="M633.248 3076.659l1.645-14.824 48.944-37.975 1.357 44.657-56.3 43.421z"/><path d="M685.705 3068.76l-.203.157-56.297 43.417-.954.735.148-1.197 4.349-35.277 1.644-14.822.023-.211.166-.129 48.945-37.978.786-.61.03 1 1.354 44.657.008.257zm-56.164 42.047l55.142-42.534-1.322-43.4-47.991 37.232-1.623 14.614v.003.003l-4.207 34.082z" class="B"/><path d="M547.916 3103.134l56.381-43.833 55.388 45.617-56.362 43.316z"/><path d="M660.493 3104.936l-.501.385-56.361 43.307-.314.241-.309-.251-55.406-45.096-.494-.402.496-.385 56.382-43.832.317-.247.313.257 55.389 45.621.488.402zm-57.163 42.662l55.548-42.69-54.587-44.953-55.566 43.191 54.605 44.452z" class="B"/><path d="M604.296 3059.306h0l-1.526-45.059 50.5 42.057 6.42 48.616z"/><path d="M660.353 3106.119l-.985-.811-55.391-45.61-.179-.147-.008-.232-1.529-45.059-.038-1.133.868.723 50.498 42.062.153.128.026.198 6.417 48.616.167 1.265zm-55.559-47.059l54.228 44.66-6.23-47.152-49.475-41.203 1.477 43.694z" class="B"/><path d="M552.141 3067.525l1.591-14.963 49.016-38.332 1.548 45.077-56.38 43.828z"/><path d="M604.811 3059.552l-.203.158-56.379 43.823-.955.742.143-1.208 4.223-35.606 1.59-14.961.023-.212.167-.13 49.017-38.336.787-.615.035 1.01 1.545 45.077.009.259zm-56.252 42.441l55.223-42.932-1.507-43.808-48.061 37.582-1.57 14.751v.003.003l-4.084 34.4z" class="B"/></g></g></svg>