<svg xmlns="http://www.w3.org/2000/svg" xmlns:xlink="http://www.w3.org/1999/xlink" width="187" height="187" xmlns:v="https://vecta.io/nano"><style><![CDATA[.B{fill:#5381ff}]]></style><defs><clipPath id="A"><path d="M0 0h187v187H0z"/></clipPath><path id="B" d="M656.594 3136.659l-.5.383-45.871 35.142-.314.24-.308-.251-44.934-36.592-.491-.4.496-.383 45.886-35.489.317-.245.311.256 44.923 36.939.486.4zm-46.67 34.498l45.059-34.525-44.124-36.276-45.072 34.853 44.136 35.948z"/><path id="C" d="M656.454 3137.836l-.982-.807-44.924-36.929-.178-.146-.007-.23-1.159-36.403-.036-1.123.863.717 40.905 33.979.152.127.026.197 5.175 39.361.165 1.259zm-45.091-38.37l43.765 35.983-4.988-37.904-39.888-33.129 1.112 35.05z"/><path id="D" d="M611.379 3099.953l-.203.157-45.884 35.481-.955.739.147-1.202 3.531-28.834 1.332-12.1.023-.211.167-.129 39.845-30.966.785-.61.032 1.001 1.172 36.418.008.257zm-45.752 34.105l44.728-34.593-1.137-35.16-38.892 30.221-1.311 11.892v.003.003l-3.388 27.634z"/></defs><g clip-path="url(#A)"><g transform="matrix(.642788 .766044 -.766044 .642788 2061.781 -2357.49)" fill="#fff"><path d="M564.982 3135.195l45.885-35.485 44.92 36.935-45.87 35.145z"/><use xlink:href="#B" class="B"/><path d="M610.867 3099.709h0l-1.157-36.4 40.9 33.975 5.181 39.359z"/><use xlink:href="#C" class="B"/><path d="M568.515 3106.357l1.333-12.1 39.845-30.966 1.175 36.418-45.886 35.485z"/><use xlink:href="#D" class="B"/><path d="M609.172 3092.675l45.88-35.485 44.92 36.935-45.87 35.145z"/><path d="M700.78 3094.139l-.5.383-45.871 35.142-.314.24-.308-.251-44.934-36.592-.491-.4.496-.383 45.886-35.489.317-.245.311.256 44.923 36.939.486.4zm-46.67 34.498l45.059-34.525-44.124-36.276-45.072 34.853 44.136 35.948z" class="B"/><path d="M655.052 3057.189h0l-1.157-36.4 40.9 33.975 5.181 39.359z"/><path d="M700.639 3095.316l-.982-.807-44.924-36.929-.178-.146-.007-.23-1.159-36.403-.036-1.123.863.717 40.905 33.979.152.127.026.197 5.175 39.361.165 1.259zm-45.091-38.37l43.765 35.983-4.988-37.904-39.888-33.129 1.112 35.05z" class="B"/><path d="M612.701 3063.837l1.333-12.1 39.844-30.966 1.175 36.418-45.886 35.485z"/><path d="M655.565 3057.433l-.203.157-45.884 35.481-.955.739.147-1.202 3.531-28.834 1.332-12.1.023-.211.167-.129 39.845-30.966.785-.61.032 1.001 1.172 36.418.008.257zm-45.752 34.105l44.728-34.593-1.137-35.16-38.892 30.221-1.311 11.892v.003.003l-3.388 27.634z" class="B"/><path d="M543.019 3085.299l45.955-35.818 45.281 37.282-45.94 35.473z"/><path d="M635.065 3086.777l-.501.387-45.94 35.469-.314.243-.31-.253-45.295-36.933-.495-.404.496-.387 45.953-35.822.317-.247.313.258 45.285 37.285.49.404zm-46.745 34.82l45.126-34.847-44.48-36.616-45.138 35.18 44.491 36.283z" class="B"/><path d="M588.971 3049.48h0l-1.313-36.745 41.237 34.3 5.364 39.73z"/><path d="M634.929 3087.964l-.99-.815-45.286-37.276-.18-.148-.008-.232-1.316-36.745-.041-1.134.87.724 41.237 34.299.154.128.027.199 5.361 39.73.171 1.271zm-45.46-38.73l44.118 36.32-5.168-38.259-40.213-33.441 1.262 35.38z" class="B"/><path d="M546.449 3056.191l1.289-12.217 39.902-31.256 1.331 36.76-45.952 35.82z"/><path d="M589.487 3049.726l-.203.158-45.951 35.814-.957.746.143-1.213 3.427-29.104 1.288-12.214.022-.213.167-.131 39.903-31.258.786-.616.037 1.01 1.329 36.761.009.26zm-45.824 34.425l44.793-34.917-1.288-35.491-38.949 30.505-1.267 12.004v.003.003l-3.288 27.893z" class="B"/></g></g></svg>