<svg xmlns="http://www.w3.org/2000/svg" xmlns:xlink="http://www.w3.org/1999/xlink" width="187" height="187" viewBox="0 0 187 187"><defs><clipPath id="b"><rect width="187" height="187"/></clipPath></defs><g id="a" clip-path="url(#b)"><g transform="translate(2061.781 -2357.49) rotate(50)"><g transform="translate(540.363 3049.042)"><g transform="translate(19.724 36.291)" fill="#fff"><path d="M4.895,49.862,50.78,14.377,95.7,51.312,49.83,86.457Z" stroke="none"/><path d="M 96.50740814208984 51.32556533813477 L 96.00722503662109 51.7087516784668 L 50.13605499267578 86.85027313232422 L 49.82236862182617 87.09056091308594 L 49.51438903808594 86.83976745605469 L 4.580264091491699 50.24811172485352 L 4.088974952697754 49.84802627563477 L 4.584662914276123 49.46465301513672 L 50.47087097167969 13.97576236724854 L 50.7875862121582 13.73081302642822 L 51.09849166870117 13.98646831512451 L 96.02101135253906 50.92559814453125 L 96.50740814208984 51.32556533813477 Z M 49.83706283569336 85.82343292236328 L 94.89631652832031 51.29822540283203 L 50.77259063720703 15.02209758758545 L 5.700705528259277 49.87538146972656 L 49.83706283569336 85.82343292236328 Z" stroke="none" fill="#5381ff"/></g><g transform="translate(44.878 6.947)" fill="#fff"><path d="M25.626,43.72h0l-1.157-36.4,40.9,33.975L70.55,80.654Z" stroke="none"/><path d="M 71.213134765625 81.84708404541016 L 70.231201171875 81.03989410400391 L 25.30733489990234 44.11040115356445 L 25.12922859191895 43.96398544311523 L 25.12189865112305 43.7337646484375 L 23.96253395080566 7.33110523223877 L 23.92676162719727 6.207966327667236 L 24.78962707519531 6.924724578857422 L 65.69453430175781 40.90360641479492 L 65.84693908691406 41.03022003173828 L 65.87281036376953 41.22697448730469 L 71.04763793945312 80.58824920654297 L 71.213134765625 81.84708404541016 Z M 26.12216186523438 43.47674560546875 L 69.88722229003906 79.45977020263672 L 64.89897155761719 41.55580139160156 L 25.0104923248291 8.426899909973145 L 26.12216186523438 43.47674560546875 Z" stroke="none" fill="#5381ff"/></g><g transform="translate(3.167 3.685)" fill="#fff"><path d="M24.985,53.63l1.333-12.1L66.163,10.564l1.175,36.418L21.452,82.467Z" stroke="none"/><path d="M 67.84943389892578 47.22553634643555 L 67.64656066894531 47.38243103027344 L 21.76226234436035 82.86392974853516 L 20.80686378479004 83.60271453857422 L 20.95408248901367 82.40060424804688 L 24.48510551452637 53.56657409667969 L 25.81729316711426 41.46625518798828 L 25.84051704406738 41.25531768798828 L 26.00708770751953 41.12584686279297 L 65.85177612304688 10.1596097946167 L 66.636474609375 9.549769401550293 L 66.66869354248047 10.55042743682861 L 67.84114837646484 46.96810531616211 L 67.84943389892578 47.22553634643555 Z M 22.09756278991699 81.33078765869141 L 66.82527160644531 46.73787689208984 L 65.68869018554688 11.57832431793213 L 26.79679679870605 41.79901885986328 L 25.48599052429199 53.69082260131836 L 25.48565292358398 53.69387817382812 L 25.48527526855469 53.69691848754883 L 22.09756278991699 81.33078765869141 Z" stroke="none" fill="#5381ff"/></g></g><g transform="translate(584.548 3006.522)"><g transform="translate(0)"><g transform="translate(19.724 36.291)" fill="#fff"><path d="M4.9,49.862,50.78,14.377,95.7,51.312,49.83,86.457Z" stroke="none"/><path d="M 96.50764465332031 51.32556533813477 L 96.00746917724609 51.7087516784668 L 50.13629913330078 86.85025787353516 L 49.82261276245117 87.09054565429688 L 49.51462554931641 86.83975219726562 L 4.580509185791016 50.24811172485352 L 4.08922004699707 49.84802627563477 L 4.584908008575439 49.46465301513672 L 50.47110748291016 13.97576999664307 L 50.78782653808594 13.73082065582275 L 51.09872817993164 13.98646831512451 L 96.02125549316406 50.92559814453125 L 96.50764465332031 51.32556533813477 Z M 49.83730697631836 85.82342529296875 L 94.89656066894531 51.29822540283203 L 50.7728271484375 15.02210521697998 L 5.700950622558594 49.87538146972656 L 49.83730697631836 85.82342529296875 Z" stroke="none" fill="#5381ff"/></g><g transform="translate(44.878 6.947)" fill="#fff"><path d="M25.626,43.72h0l-1.157-36.4,40.9,33.975L70.55,80.654Z" stroke="none"/><path d="M 71.21331787109375 81.84707641601562 L 70.23138427734375 81.03987884521484 L 25.30752182006836 44.11039733886719 L 25.12941741943359 43.96398544311523 L 25.12208366394043 43.73375701904297 L 23.96271896362305 7.331107139587402 L 23.92694282531738 6.207966327667236 L 24.78981018066406 6.924724578857422 L 65.69471740722656 40.90360641479492 L 65.84712982177734 41.03021621704102 L 65.87299346923828 41.22696685791016 L 71.04782104492188 80.58824157714844 L 71.21331787109375 81.84707641601562 Z M 26.12234878540039 43.47674560546875 L 69.88741302490234 79.45975494384766 L 64.89915466308594 41.55579376220703 L 25.01067352294922 8.426901817321777 L 26.12234878540039 43.47674560546875 Z" stroke="none" fill="#5381ff"/></g><g transform="translate(3.167 3.685)" fill="#fff"><path d="M24.986,53.63l1.333-12.1L66.163,10.564l1.175,36.418L21.452,82.467Z" stroke="none"/><path d="M 67.84961700439453 47.22578048706055 L 67.64674377441406 47.3826789855957 L 21.7624454498291 82.86417388916016 L 20.80704689025879 83.60295867919922 L 20.95426559448242 82.40084838867188 L 24.48529052734375 53.56681823730469 L 25.81747436523438 41.46649932861328 L 25.84070014953613 41.25556564331055 L 26.00727081298828 41.12609481811523 L 65.85195159912109 10.15985679626465 L 66.63665008544922 9.550016403198242 L 66.66886901855469 10.5506706237793 L 67.84133148193359 46.96834564208984 L 67.84961700439453 47.22578048706055 Z M 22.09774589538574 81.33102416992188 L 66.82544708251953 46.73812103271484 L 65.68887329101562 11.57857131958008 L 26.7969799041748 41.79926681518555 L 25.48617172241211 53.69106674194336 L 25.48583602905273 53.69412231445312 L 25.48546028137207 53.69716262817383 L 22.09774589538574 81.33102416992188 Z" stroke="none" fill="#5381ff"/></g></g></g><g transform="translate(518.172 2998.615)"><g transform="translate(19.902 36.556)" fill="#fff"><path d="M4.945,50.128,50.9,14.31,96.181,51.592,50.241,87.065Z" stroke="none"/><path d="M 96.99083709716797 51.60554885864258 L 96.48989105224609 51.99231719970703 L 50.55033874511719 87.46157836914062 L 50.2361946105957 87.70411682128906 L 49.92574691772461 87.45098876953125 L 4.630496501922607 50.51802062988281 L 4.135247707366943 50.11418914794922 L 4.631649494171143 49.72723388671875 L 50.58492279052734 13.90569972991943 L 50.90211486816406 13.65845394134521 L 51.21553039550781 13.91650676727295 L 96.50051116943359 51.20183181762695 L 96.99083709716797 51.60554885864258 Z M 50.24570846557617 86.42518615722656 L 95.37210083007812 51.57794189453125 L 50.89239883422852 14.96186637878418 L 5.75460958480835 50.14179611206055 L 50.24570846557617 86.42518615722656 Z" stroke="none" fill="#5381ff"/></g><g transform="translate(44.933 6.831)" fill="#fff"><path d="M25.866,44.034h0L24.553,7.289l41.237,34.3,5.364,39.73Z" stroke="none"/><path d="M 71.82394409179688 82.51836395263672 L 70.83412170410156 81.70362854003906 L 25.54783058166504 44.42807006835938 L 25.36828231811523 44.28027725219727 L 25.35996246337891 44.04788970947266 L 24.04437637329102 7.302432537078857 L 24.00378227233887 6.168691158294678 L 24.87368392944336 6.892215728759766 L 66.11106872558594 41.19114303588867 L 66.26471710205078 41.31894302368164 L 66.29151153564453 41.51754379272461 L 71.65251159667969 81.24777221679688 L 71.82394409179688 82.51836395263672 Z M 26.36385154724121 43.78845977783203 L 70.48204803466797 80.10873413085938 L 65.31446838378906 41.84946441650391 L 25.10180282592773 8.4085693359375 L 26.36385154724121 43.78845977783203 Z" stroke="none" fill="#5381ff"/></g><g transform="translate(3.206 3.703)" fill="#fff"><path d="M25.071,53.873,26.36,41.656,66.262,10.4l1.331,36.76L21.641,82.98Z" stroke="none"/><path d="M 68.10913848876953 47.40834808349609 L 67.90596008300781 47.56671524047852 L 21.95458030700684 83.38075256347656 L 20.99780464172363 84.12644958496094 L 21.14069747924805 82.9130859375 L 24.56802940368652 53.80892562866211 L 25.85603713989258 41.59494018554688 L 25.87849235534668 41.38202285766602 L 26.0453052520752 41.2513313293457 L 65.94857788085938 9.993369102478027 L 66.73445129394531 9.377767562866211 L 66.77095794677734 10.38787174224854 L 68.09973907470703 47.14849472045898 L 68.10913848876953 47.40834808349609 Z M 22.28505325317383 81.83327484130859 L 67.07815551757812 46.91610336303711 L 65.79061126708984 11.42547512054443 L 26.84152221679688 41.93083572387695 L 25.57411766052246 53.9343376159668 L 25.57379341125488 53.93742752075195 L 25.57342529296875 53.94049453735352 L 22.28505325317383 81.83327484130859 Z" stroke="none" fill="#5381ff"/></g></g></g></g></svg>