<svg xmlns="http://www.w3.org/2000/svg" xmlns:xlink="http://www.w3.org/1999/xlink" width="1315" height="1315" viewBox="0 0 1315 1315"><defs><clipPath id="b"><rect width="1315" height="1315"/></clipPath></defs><g id="a" clip-path="url(#b)"><g transform="translate(-125 -53.108)"><g transform="translate(140 184.05)"><g transform="translate(0 0)"><g transform="translate(0 0)"><g transform="translate(0)"><path d="M1078.179-165.843c0,4.337,4.126,6.772,8.465,6.772s6.772-2.435,6.772-6.772-2.432-8.465-6.772-8.465a8.937,8.937,0,0,0-8.465,8.465" transform="translate(-952.894 951.414)" fill="#2a1e17"/><path d="M714.392-369.43c0,4.337,2.435,8.465,6.772,8.465a8.939,8.939,0,0,0,8.465-8.465,8.939,8.939,0,0,0-8.465-8.465c-4.337,0-6.772,4.128-6.772,8.465" transform="translate(230.326 697.88)" fill="#2a1e17"/><path d="M799.143-437.068a16.984,16.984,0,0,0,16.93,16.93A16.987,16.987,0,0,0,833-437.068,16.988,16.988,0,0,0,816.073-454a16.986,16.986,0,0,0-16.93,16.93" transform="translate(-64.362 602.986)" fill="#ff6d66"/><path d="M675.515-503.755c4.091,0,6.772,4.374,6.772,8.465a6.369,6.369,0,0,1-6.772,6.772c-4.091,0-8.465-2.681-8.465-6.772s4.374-8.465,8.465-8.465" transform="translate(382.636 541.001)" fill="#a0c6f4"/><path d="M1109.156-93.657c0,4.092,2.68,8.465,6.772,8.465s8.465-4.374,8.465-8.465-4.377-6.772-8.465-6.772a6.369,6.369,0,0,0-6.772,6.772" transform="translate(-1051.593 1043.454)" fill="#91ba83"/><path d="M1103.052-268.945,1091.2-297.727c-.324-.761-.761-1.373,0-1.693s3.063.932,3.386,1.693l11.851,27.089c.324.761-.93,1.373-1.693,1.693s-1.37.761-1.693,0" transform="translate(-993.004 795.481)" fill="#2a1e17"/><path d="M1108.434-268.945l-11.851-28.782c-.323-.761-.76-1.373,0-1.693s3.066.932,3.386,1.693l11.851,27.089c.321.761-.932,1.373-1.693,1.693s-1.373.761-1.693,0" transform="translate(-1010.237 795.481)" fill="#2a1e17"/><path d="M681.128-148.675c0,4.094,4.371,8.465,8.465,8.465s6.772-4.371,6.772-8.465a6.371,6.371,0,0,0-6.772-6.772c-4.094,0-8.465,2.684-8.465,6.772" transform="translate(336.39 974.879)" fill="#ff6d66"/><path d="M958.48-130.207a10.067,10.067,0,0,0,10.158,10.158A10.063,10.063,0,0,0,978.8-130.207a10.063,10.063,0,0,0-10.159-10.158,10.067,10.067,0,0,0-10.158,10.158" transform="translate(-567.387 993.659)" fill="#ff6d66"/><path d="M1034.469-346.145h25.4v-27.089h-25.4v27.089" transform="translate(-819.453 703.377)" fill="#91ba83"/><path d="M1043.958-212.82l-6.772,13.544-8.465,15.237h32.168l-8.465-15.237-8.465-13.544" transform="translate(-806.932 903.581)" fill="#a0c6f4"/><path d="M1092.665-414.805l-89.731,67.722c-1.956,1.5-5.3,1.983-6.772,0l-13.544-18.623c-1.4-1.9-.155-5.293,1.693-6.772l88.038-69.415c1.965-1.572,5.3-2.037,6.772,0l13.544,20.316c1.4,1.935,1.9,5.322,0,6.772" transform="translate(-737.126 616.277)" fill="#fff"/><path d="M1093.33-413.757v1.693l-88.038,67.722c-1.066.818-2.137,1.693-3.386,1.693-1.8,0-3.92-1.82-5.079-3.386l-13.544-18.624c-.776-1.051-1.693-2.17-1.693-3.386,0-1.731.24-2.227,1.693-3.386l88.038-71.108a10.888,10.888,0,0,1,5.079-1.693c1.818,0,2.23,1.79,3.386,3.386l15.237,20.317c.755,1.039,1.693,2.185,1.693,3.386,0,1.773-1.87,3.92-3.386,5.079v-1.693l-1.693-1.693c.749-.575,1.69-.813,1.693-1.693,0-.593.378-1.172,0-1.693l-15.237-20.317c-.572-.791-.788-1.69-1.693-1.693a11.289,11.289,0,0,0-3.386,1.693l-86.345,69.415c-.716.575-1.69.83-1.693,1.693,0,.6-.386,1.169,0,1.693l13.544,18.624a5.862,5.862,0,0,0,3.386,1.693c.62,0,1.16.407,1.693,0l88.038-69.415,1.693,1.693" transform="translate(-737.791 615.229)" fill="#2a1e17"/><path d="M1020.317-421.861l-22.01,15.237-11.851-15.237,20.316-18.623,13.544,18.623" transform="translate(-671.551 619.946)" fill="#ff6d66"/><path d="M1031.813-413.8l-20.317,16.93-11.851-15.237,22.01-16.93,10.158,15.237" transform="translate(-713.521 633.894)" fill="#91ba83"/><path d="M1044.023-403.2l-22.01,15.237-10.158-13.544,20.317-16.93,11.851,15.237" transform="translate(-754.512 646.998)" fill="#a0c6f4"/><path d="M1131.422-465.178l-20.317,169.3c-.443,3.75-4.724,7.284-8.465,6.772l-33.861-5.079c-3.591-.491-7.126-3.163-6.772-6.772l16.93-172.69c.375-3.84,4.653-5.639,8.465-5.079l37.247,5.079c3.621.53,7.207,4.835,6.772,8.465" transform="translate(-953.652 571.84)" fill="#fff"/><path d="M1132.323-464.3h1.693l-20.316,171c-.5,4.2-4.347,6.772-8.465,6.772-.372,0-1.316.054-1.693,0l-33.861-5.079c-4.118-.566-8.465-4.386-8.465-8.465h1.693l15.238-172.69c.422-4.283,4.287-6.772,8.465-6.772a15.226,15.226,0,0,1,1.693,0l37.247,5.079c4.094.6,8.465,4.422,8.465,8.465,0,.324.039,1.361,0,1.693h-1.693l-1.693-1.693h0c0-2.567-2.47-4.7-5.079-5.079l-37.247-5.079h-1.693c-2.647,0-4.815.658-5.079,3.386L1064.6-300.072h0c0,2.588,2.455,4.723,5.079,5.079l33.861,5.079h1.693c2.614,0,4.765-2.4,5.079-5.079l20.316-171h0l1.693,1.693" transform="translate(-954.553 570.959)" fill="#2a1e17"/><path d="M1104.486-468.4l-6.772,40.633-30.475-3.386,3.386-42.326,33.861,5.079" transform="translate(-936.875 578.446)" fill="#ff6d66"/><path d="M1102.733-444.434l-3.386,40.633-28.782-1.693,5.079-42.326,27.089,3.386" transform="translate(-945.28 610.352)" fill="#91ba83"/><path d="M1105.492-419.687l-6.772,40.633-25.4-3.386,1.693-40.633,30.475,3.386" transform="translate(-951.425 641.475)" fill="#a0c6f4"/><path d="M1144.565-445.391l-55.87,165.918a5.265,5.265,0,0,1-6.772,3.386l-35.554-13.544a5.528,5.528,0,0,1-3.386-6.772l52.484-165.918a5.136,5.136,0,0,1,6.772-3.386l38.94,13.544a5.468,5.468,0,0,1,3.386,6.772" transform="translate(-922.777 587.606)" fill="#fff"/><path d="M1145.416-443.925h1.693l-57.564,165.918c-.974,2.86-2.225,5.079-5.079,5.079a13.919,13.919,0,0,1-3.386,0l-35.554-13.544c-2.791-1.006-3.386-3.948-3.386-6.772,0-.689-.215-1.01,0-1.693l52.484-167.611a7.41,7.41,0,0,1,6.772-5.079c.794,0,.911,1.4,1.693,1.693l38.94,13.544c2.761,1.027,5.079,3.975,5.079,6.772,0,.734.248.962,0,1.693h-3.386a6.677,6.677,0,0,0,0-1.693c0-1.575-.135-2.811-1.693-3.386l-38.94-15.237a5.837,5.837,0,0,0-1.693,0c-1.635,0-2.865,1.73-3.386,3.386l-52.484,167.611c-.123.389,0-.386,0,0,0,1.59.118,2.823,1.693,3.386l35.554,13.544a6.168,6.168,0,0,0,1.693,0c1.609,0,2.841-.079,3.386-1.693l55.87-165.918h1.693" transform="translate(-923.627 586.141)" fill="#2a1e17"/><path d="M1091.508-448.78l-13.544,37.247L1047.489-420l11.852-40.633,32.168,11.851" transform="translate(-881.57 594.382)" fill="#a0c6f4"/><path d="M1095.75-426.523l-11.851,38.94-27.089-6.772,11.851-42.326,27.089,10.158" transform="translate(-906.128 624.609)" fill="#f9865f"/><path d="M1103.421-402.437l-15.237,37.247-23.7-6.772,10.158-40.633,28.782,10.158" transform="translate(-929.038 654.7)" fill="#91ba83"/><path d="M669.717-418.785l5.079-5.079,15.237,13.544-5.079,5.079c-1.893,2.073-4.7,1.893-6.772,0l-6.772-6.772c-2.073-1.893-3.586-4.7-1.693-6.772" transform="translate(371.504 640.573)" fill="#91ba83"/><path d="M680.587-434.9v1.693l-20.317,23.7c-.255.278,0-.35,0,0,0,.4-.315,1.405,0,1.693l13.544,13.544c.279.255,1.345,0,1.693,0,.4,0,1.405.314,1.693,0l20.317-23.7c.255-.281,0-1.343,0-1.693,0-.4.315.287,0,0L682.28-433.211c-.279-.255.35,0,0,0-.4,0-1.406-.311-1.693,0V-434.9h-1.693a4.959,4.959,0,0,1,3.386-1.693,6.208,6.208,0,0,1,3.386,1.693l13.544,13.544c.953.871,1.7.5,1.693,1.693a6.189,6.189,0,0,1-1.693,3.386l-20.317,23.7a4.966,4.966,0,0,1-3.386,1.693,6.208,6.208,0,0,1-3.386-1.693l-13.544-13.544a4.967,4.967,0,0,1-1.693-3.386c0-1.063-.776-2.541,0-3.386l22.01-22.01h1.693" transform="translate(387.722 624.524)" fill="#2a1e17"/><path d="M636.015-357.072H663.1v-23.7H636.015v23.7" transform="translate(472.927 693.988)" fill="#ff6d66"/><path d="M630.21-386.593v13.544h15.237a1.851,1.851,0,0,1,1.693,1.693,1.851,1.851,0,0,1-1.693,1.693H630.21c-.4,0-1.415-1.414-1.693-1.693s0,.4,0,0v-15.237a1.854,1.854,0,0,1,1.693-1.693c.826,0,0,.866,0,1.693" transform="translate(505.822 684.569)" fill="#2a1e17"/><path d="M1025.672-479.221h27.089v-23.7h-27.089v23.7" transform="translate(-792.032 541.863)" fill="#a0c6f4"/><path d="M1019.865-508.742V-495.2H1035.1a1.852,1.852,0,0,1,1.693,1.693,1.849,1.849,0,0,1-1.693,1.693h-15.238c-.4,0-1.414.279-1.693,0s0-1.3,0-1.693v-15.237a1.854,1.854,0,0,1,1.693-1.693c.827,0,0,.866,0,1.693" transform="translate(-759.137 532.445)" fill="#2a1e17"/><path d="M588.886-428.246a8.939,8.939,0,0,0,8.465,8.465,8.94,8.94,0,0,0,8.465-8.465,8.94,8.94,0,0,0-8.465-8.465,8.939,8.939,0,0,0-8.465,8.465" transform="translate(635.184 624.638)" fill="#2a1e17"/><path d="M661.476-186.706,639.466-76.658a4.192,4.192,0,0,1-5.079,3.386l-22.01-3.386a4.4,4.4,0,0,1-3.386-5.079l18.624-111.741a4.092,4.092,0,0,1,5.079-3.386l25.4,5.079a4.356,4.356,0,0,1,3.386,5.079" transform="translate(535.505 923.179)" fill="#fff"/><path d="M662.371-185.824h0L642.054-74.083c-.551,2.827-4,3.386-6.772,3.386-.407,0,.41.087,0,0l-22.01-3.386c-2.767-.59-5.079-4.029-5.079-6.772,0-.332-.057.335,0,0L626.817-192.6c.5-2.887,3.957-5.079,6.772-5.079.425,0-.431-.1,0,0l25.4,5.079c2.746.614,5.079,4.05,5.079,6.772,0,.371-1.618-.377-1.693,0h-1.693c0-1.336-2.032-3.09-3.386-3.386l-23.7-5.079h0c-1.378,0-3.143.27-3.386,1.693L611.58-80.855h0c0,1.345.33,3.1,1.693,3.386l22.01,5.079h0c1.357,0,3.122-2,3.386-3.386l22.01-110.048h1.693" transform="translate(534.61 922.297)" fill="#2a1e17"/><path d="M636.919-189.649l-5.079,27.089-20.317-3.386,5.079-27.089,20.316,3.386" transform="translate(551.597 927.815)" fill="#ff6d66"/><path d="M639.132-172.364l-5.079,27.089-18.624-3.386,5.079-28.782,18.623,5.079" transform="translate(542.612 947.777)" fill="#91ba83"/><path d="M640.3-157.395l-5.079,27.089-16.93-3.386,3.386-27.089,18.624,3.386" transform="translate(534.67 968.362)" fill="#a0c6f4"/><path d="M881.091-73.919l-3.386,8.465c-.252.791-.905,1.945-1.693,1.693s-.252-.9,0-1.693l1.693-8.465c.252-.789.905-1.945,1.693-1.693s1.945.906,1.693,1.693" transform="translate(-283.447 1074.507)" fill="#2a1e17"/><path d="M882.652-68.776l-6.772-1.693c-.782-.269-1.96-2.6-1.693-3.386s.909-.269,1.693,0l8.465,1.693c.785.267.269,2.6,0,3.386s-.911.267-1.693,0" transform="translate(-285.008 1076.136)" fill="#2a1e17"/><path d="M880.6-59.328l-5.079,15.237c-.249.791-.9,1.942-1.693,1.693s-.249-.906,0-1.693l5.079-16.93c.249-.787.905-.252,1.693,0s.249.9,0,1.693" transform="translate(-279.572 1092.084)" fill="#2a1e17"/><path d="M886.691-52.2,873.146-55.59c-.788-.252-1.945-.9-1.693-1.693s.906-1.945,1.693-1.693L886.691-53.9c.788.252,1.944.9,1.693,1.693s-.906.252-1.693,0" transform="translate(-282.274 1095.118)" fill="#2a1e17"/><path d="M874.3-70.608l-6.772,20.317c-.245.791-.905.246-1.693,0s-1.942-.9-1.693-1.693L870.915-72.3c.248-.79.9-.246,1.693,0s1.939.9,1.693,1.693" transform="translate(-251.262 1077.968)" fill="#2a1e17"/><path d="M881.31-60.809l-18.623-6.772c-.788-.252-1.945-.9-1.693-1.693s2.6-.253,3.386,0L883-64.2c.791.251.252.9,0,1.693s-.9,1.945-1.693,1.693" transform="translate(-254.884 1081.714)" fill="#2a1e17"/><path d="M1135.2-420.349h-22.01a1.854,1.854,0,0,1-1.693-1.693,1.851,1.851,0,0,1,1.693-1.693h22.01a1.852,1.852,0,0,1,1.693,1.693,1.854,1.854,0,0,1-1.693,1.693" transform="translate(-1070.868 640.444)" fill="#ff6d66"/><path d="M867.373-489.039H845.364v-3.386h22.009Z" transform="translate(-203.701 555.068)" fill="#91ba83"/><path d="M1153.326-369.217l-22.01,3.386v-1.693l22.01-5.079" transform="translate(-1131.316 704.439)" fill="#a0c6f4"/><path d="M763.885-122.04h-22.01c-.827,0-1.693.827-1.693,0a1.854,1.854,0,0,1,1.693-1.693h22.01a1.854,1.854,0,0,1,1.693,1.693c0,.827-.867,0-1.693,0" transform="translate(136.813 1014.273)" fill="#a0c6f4"/></g></g></g></g></g><g transform="translate(788.638 87.216) rotate(16)"><g transform="translate(0 0)"><path d="M1018.848-134.323a4.234,4.234,0,0,0,4.237,4.232,4.233,4.233,0,0,0,4.232-4.232,4.234,4.234,0,0,0-4.232-4.237,4.235,4.235,0,0,0-4.237,4.237" transform="translate(-877.014 266.427)" fill="#101011"/><path d="M1026.7-134.323a4.233,4.233,0,0,0,4.232,4.232,4.234,4.234,0,0,0,4.237-4.232,4.235,4.235,0,0,0-4.237-4.237,4.234,4.234,0,0,0-4.232,4.237" transform="translate(-911.963 266.427)" fill="#101011"/><path d="M1034.556-134.323a4.233,4.233,0,0,0,4.232,4.232,4.233,4.233,0,0,0,4.232-4.232,4.234,4.234,0,0,0-4.232-4.237,4.234,4.234,0,0,0-4.232,4.237" transform="translate(-946.913 266.427)" fill="#101011"/><path d="M1042.409-134.323a4.233,4.233,0,0,0,4.232,4.232,4.233,4.233,0,0,0,4.232-4.232,4.234,4.234,0,0,0-4.232-4.237,4.234,4.234,0,0,0-4.232,4.237" transform="translate(-981.861 266.427)" fill="#101011"/><path d="M1050.263-134.323a4.234,4.234,0,0,0,4.237,4.232,4.233,4.233,0,0,0,4.232-4.232,4.234,4.234,0,0,0-4.232-4.237,4.235,4.235,0,0,0-4.237,4.237" transform="translate(-1016.814 266.427)" fill="#101011"/><g transform="translate(0 0)"><path d="M995.288-119.5a4.233,4.233,0,0,0,4.232,4.232,4.233,4.233,0,0,0,4.232-4.232,4.234,4.234,0,0,0-4.232-4.234,4.233,4.233,0,0,0-4.232,4.234" transform="translate(-772.164 302.751)" fill="#101011"/><path d="M1003.142-119.5a4.233,4.233,0,0,0,4.232,4.232,4.233,4.233,0,0,0,4.232-4.232,4.233,4.233,0,0,0-4.232-4.234,4.233,4.233,0,0,0-4.232,4.234" transform="translate(-807.112 302.751)" fill="#101011"/><path d="M1010.995-119.5a4.234,4.234,0,0,0,4.237,4.232,4.233,4.233,0,0,0,4.233-4.232,4.234,4.234,0,0,0-4.233-4.234,4.235,4.235,0,0,0-4.237,4.234" transform="translate(-842.066 302.751)" fill="#101011"/><path d="M1018.848-119.5a4.234,4.234,0,0,0,4.237,4.232,4.233,4.233,0,0,0,4.232-4.232,4.233,4.233,0,0,0-4.232-4.234,4.234,4.234,0,0,0-4.237,4.234" transform="translate(-877.014 302.751)" fill="#101011"/><path d="M1026.7-119.5a4.233,4.233,0,0,0,4.232,4.232,4.234,4.234,0,0,0,4.237-4.232,4.234,4.234,0,0,0-4.237-4.234,4.234,4.234,0,0,0-4.232,4.234" transform="translate(-911.963 302.751)" fill="#101011"/><path d="M1034.556-119.5a4.233,4.233,0,0,0,4.232,4.232,4.233,4.233,0,0,0,4.232-4.232,4.234,4.234,0,0,0-4.232-4.234,4.233,4.233,0,0,0-4.232,4.234" transform="translate(-946.913 302.751)" fill="#101011"/><path d="M1042.409-119.5a4.233,4.233,0,0,0,4.232,4.232,4.233,4.233,0,0,0,4.232-4.232,4.233,4.233,0,0,0-4.232-4.234,4.233,4.233,0,0,0-4.232,4.234" transform="translate(-981.861 302.751)" fill="#101011"/><path d="M1050.263-119.5a4.234,4.234,0,0,0,4.237,4.232,4.233,4.233,0,0,0,4.232-4.232,4.234,4.234,0,0,0-4.232-4.234,4.234,4.234,0,0,0-4.237,4.234" transform="translate(-1016.814 302.751)" fill="#101011"/><path d="M995.288-126.91a4.233,4.233,0,0,0,4.232,4.232,4.233,4.233,0,0,0,4.232-4.232,4.237,4.237,0,0,0-4.232-4.237,4.236,4.236,0,0,0-4.232,4.237" transform="translate(-772.164 284.588)" fill="#101011"/><path d="M1003.142-126.91a4.233,4.233,0,0,0,4.232,4.232,4.233,4.233,0,0,0,4.232-4.232,4.237,4.237,0,0,0-4.232-4.237,4.236,4.236,0,0,0-4.232,4.237" transform="translate(-807.112 284.588)" fill="#101011"/><path d="M1010.995-126.91a4.234,4.234,0,0,0,4.237,4.232,4.233,4.233,0,0,0,4.233-4.232,4.237,4.237,0,0,0-4.233-4.237,4.238,4.238,0,0,0-4.237,4.237" transform="translate(-842.066 284.588)" fill="#101011"/><path d="M1018.848-126.91a4.234,4.234,0,0,0,4.237,4.232,4.233,4.233,0,0,0,4.232-4.232,4.237,4.237,0,0,0-4.232-4.237,4.237,4.237,0,0,0-4.237,4.237" transform="translate(-877.014 284.588)" fill="#101011"/><path d="M1026.7-126.91a4.233,4.233,0,0,0,4.232,4.232,4.234,4.234,0,0,0,4.237-4.232,4.237,4.237,0,0,0-4.237-4.237,4.237,4.237,0,0,0-4.232,4.237" transform="translate(-911.963 284.588)" fill="#101011"/><path d="M1034.556-126.91a4.233,4.233,0,0,0,4.232,4.232,4.233,4.233,0,0,0,4.232-4.232,4.237,4.237,0,0,0-4.232-4.237,4.236,4.236,0,0,0-4.232,4.237" transform="translate(-946.913 284.588)" fill="#101011"/><path d="M1042.409-126.91a4.233,4.233,0,0,0,4.232,4.232,4.233,4.233,0,0,0,4.232-4.232,4.237,4.237,0,0,0-4.232-4.237,4.237,4.237,0,0,0-4.232,4.237" transform="translate(-981.861 284.588)" fill="#101011"/><path d="M1050.263-126.91a4.234,4.234,0,0,0,4.237,4.232,4.233,4.233,0,0,0,4.232-4.232,4.237,4.237,0,0,0-4.232-4.237,4.237,4.237,0,0,0-4.237,4.237" transform="translate(-1016.814 284.588)" fill="#101011"/><path d="M995.288-134.323a4.233,4.233,0,0,0,4.232,4.232,4.233,4.233,0,0,0,4.232-4.232,4.234,4.234,0,0,0-4.232-4.237,4.234,4.234,0,0,0-4.232,4.237" transform="translate(-772.164 266.427)" fill="#101011"/><path d="M1003.142-134.323a4.233,4.233,0,0,0,4.232,4.232,4.233,4.233,0,0,0,4.232-4.232,4.234,4.234,0,0,0-4.232-4.237,4.234,4.234,0,0,0-4.232,4.237" transform="translate(-807.112 266.427)" fill="#101011"/><path d="M995.288-141.739a4.234,4.234,0,0,0,4.232,4.237,4.234,4.234,0,0,0,4.232-4.237,4.233,4.233,0,0,0-4.232-4.232,4.233,4.233,0,0,0-4.232,4.232" transform="translate(-772.164 248.267)" fill="#101011"/><path d="M1003.142-141.739a4.234,4.234,0,0,0,4.232,4.237,4.234,4.234,0,0,0,4.232-4.237,4.233,4.233,0,0,0-4.232-4.232,4.233,4.233,0,0,0-4.232,4.232" transform="translate(-807.112 248.267)" fill="#101011"/><path d="M1010.995-141.739a4.235,4.235,0,0,0,4.237,4.237,4.234,4.234,0,0,0,4.233-4.237,4.233,4.233,0,0,0-4.233-4.232,4.234,4.234,0,0,0-4.237,4.232" transform="translate(-842.066 248.267)" fill="#101011"/><path d="M1018.848-141.739a4.235,4.235,0,0,0,4.237,4.237,4.234,4.234,0,0,0,4.232-4.237,4.233,4.233,0,0,0-4.232-4.232,4.234,4.234,0,0,0-4.237,4.232" transform="translate(-877.014 248.267)" fill="#101011"/><path d="M1026.7-141.739a4.234,4.234,0,0,0,4.232,4.237,4.235,4.235,0,0,0,4.237-4.237,4.234,4.234,0,0,0-4.237-4.232,4.233,4.233,0,0,0-4.232,4.232" transform="translate(-911.963 248.267)" fill="#101011"/><path d="M1034.556-141.739a4.234,4.234,0,0,0,4.232,4.237,4.234,4.234,0,0,0,4.232-4.237,4.233,4.233,0,0,0-4.232-4.232,4.233,4.233,0,0,0-4.232,4.232" transform="translate(-946.913 248.267)" fill="#101011"/><path d="M1042.409-141.739a4.234,4.234,0,0,0,4.232,4.237,4.234,4.234,0,0,0,4.232-4.237,4.233,4.233,0,0,0-4.232-4.232,4.233,4.233,0,0,0-4.232,4.232" transform="translate(-981.861 248.267)" fill="#101011"/><path d="M1050.263-141.739a4.235,4.235,0,0,0,4.237,4.237,4.234,4.234,0,0,0,4.232-4.237,4.233,4.233,0,0,0-4.232-4.232,4.234,4.234,0,0,0-4.237,4.232" transform="translate(-1016.814 248.267)" fill="#101011"/><path d="M995.288-149.152a4.233,4.233,0,0,0,4.232,4.232,4.233,4.233,0,0,0,4.232-4.232,4.233,4.233,0,0,0-4.232-4.232,4.233,4.233,0,0,0-4.232,4.232" transform="translate(-772.164 230.106)" fill="#101011"/><path d="M1003.142-149.152a4.233,4.233,0,0,0,4.232,4.232,4.233,4.233,0,0,0,4.232-4.232,4.233,4.233,0,0,0-4.232-4.232,4.233,4.233,0,0,0-4.232,4.232" transform="translate(-807.112 230.106)" fill="#101011"/><path d="M1010.995-149.152a4.234,4.234,0,0,0,4.237,4.232,4.233,4.233,0,0,0,4.233-4.232,4.233,4.233,0,0,0-4.233-4.232,4.234,4.234,0,0,0-4.237,4.232" transform="translate(-842.066 230.106)" fill="#101011"/><path d="M1018.848-149.152a4.234,4.234,0,0,0,4.237,4.232,4.233,4.233,0,0,0,4.232-4.232,4.233,4.233,0,0,0-4.232-4.232,4.234,4.234,0,0,0-4.237,4.232" transform="translate(-877.014 230.106)" fill="#101011"/><path d="M1026.7-149.152a4.233,4.233,0,0,0,4.232,4.232,4.234,4.234,0,0,0,4.237-4.232,4.234,4.234,0,0,0-4.237-4.232,4.233,4.233,0,0,0-4.232,4.232" transform="translate(-911.963 230.106)" fill="#101011"/><path d="M1034.556-149.152a4.233,4.233,0,0,0,4.232,4.232,4.233,4.233,0,0,0,4.232-4.232,4.233,4.233,0,0,0-4.232-4.232,4.233,4.233,0,0,0-4.232,4.232" transform="translate(-946.913 230.106)" fill="#101011"/><path d="M1042.409-149.152a4.233,4.233,0,0,0,4.232,4.232,4.233,4.233,0,0,0,4.232-4.232,4.233,4.233,0,0,0-4.232-4.232,4.233,4.233,0,0,0-4.232,4.232" transform="translate(-981.861 230.106)" fill="#101011"/><path d="M1050.263-149.152a4.234,4.234,0,0,0,4.237,4.232,4.233,4.233,0,0,0,4.232-4.232,4.233,4.233,0,0,0-4.232-4.232,4.234,4.234,0,0,0-4.237,4.232" transform="translate(-1016.814 230.106)" fill="#101011"/><path d="M995.288-156.56a4.233,4.233,0,0,0,4.232,4.232,4.233,4.233,0,0,0,4.232-4.232,4.237,4.237,0,0,0-4.232-4.237,4.237,4.237,0,0,0-4.232,4.237" transform="translate(-772.164 211.942)" fill="#101011"/><path d="M1003.142-156.56a4.233,4.233,0,0,0,4.232,4.232,4.233,4.233,0,0,0,4.232-4.232,4.237,4.237,0,0,0-4.232-4.237,4.237,4.237,0,0,0-4.232,4.237" transform="translate(-807.112 211.942)" fill="#101011"/><path d="M1010.995-156.56a4.234,4.234,0,0,0,4.237,4.232,4.233,4.233,0,0,0,4.233-4.232,4.237,4.237,0,0,0-4.233-4.237,4.238,4.238,0,0,0-4.237,4.237" transform="translate(-842.066 211.942)" fill="#101011"/><path d="M1018.848-156.56a4.234,4.234,0,0,0,4.237,4.232,4.233,4.233,0,0,0,4.232-4.232,4.237,4.237,0,0,0-4.232-4.237,4.238,4.238,0,0,0-4.237,4.237" transform="translate(-877.014 211.942)" fill="#101011"/><path d="M1026.7-156.56a4.233,4.233,0,0,0,4.232,4.232,4.234,4.234,0,0,0,4.237-4.232,4.238,4.238,0,0,0-4.237-4.237,4.237,4.237,0,0,0-4.232,4.237" transform="translate(-911.963 211.942)" fill="#101011"/><path d="M1034.556-156.56a4.233,4.233,0,0,0,4.232,4.232,4.233,4.233,0,0,0,4.232-4.232,4.237,4.237,0,0,0-4.232-4.237,4.237,4.237,0,0,0-4.232,4.237" transform="translate(-946.913 211.942)" fill="#101011"/><path d="M1042.409-156.56a4.233,4.233,0,0,0,4.232,4.232,4.233,4.233,0,0,0,4.232-4.232,4.237,4.237,0,0,0-4.232-4.237,4.237,4.237,0,0,0-4.232,4.237" transform="translate(-981.861 211.942)" fill="#101011"/><path d="M1050.263-156.56a4.234,4.234,0,0,0,4.237,4.232,4.233,4.233,0,0,0,4.232-4.232,4.237,4.237,0,0,0-4.232-4.237,4.238,4.238,0,0,0-4.237,4.237" transform="translate(-1016.814 211.942)" fill="#101011"/><path d="M995.288-163.972a4.233,4.233,0,0,0,4.232,4.232,4.233,4.233,0,0,0,4.232-4.232,4.234,4.234,0,0,0-4.232-4.237,4.234,4.234,0,0,0-4.232,4.237" transform="translate(-772.164 193.781)" fill="#101011"/><path d="M1003.142-163.972a4.233,4.233,0,0,0,4.232,4.232,4.233,4.233,0,0,0,4.232-4.232,4.234,4.234,0,0,0-4.232-4.237,4.234,4.234,0,0,0-4.232,4.237" transform="translate(-807.112 193.781)" fill="#101011"/><path d="M1010.995-163.972a4.234,4.234,0,0,0,4.237,4.232,4.233,4.233,0,0,0,4.233-4.232,4.234,4.234,0,0,0-4.233-4.237,4.235,4.235,0,0,0-4.237,4.237" transform="translate(-842.066 193.781)" fill="#101011"/><path d="M1018.848-163.972a4.234,4.234,0,0,0,4.237,4.232,4.233,4.233,0,0,0,4.232-4.232,4.234,4.234,0,0,0-4.232-4.237,4.235,4.235,0,0,0-4.237,4.237" transform="translate(-877.014 193.781)" fill="#101011"/><path d="M1026.7-163.972a4.233,4.233,0,0,0,4.232,4.232,4.234,4.234,0,0,0,4.237-4.232,4.235,4.235,0,0,0-4.237-4.237,4.234,4.234,0,0,0-4.232,4.237" transform="translate(-911.963 193.781)" fill="#101011"/><path d="M1034.556-163.972a4.233,4.233,0,0,0,4.232,4.232,4.233,4.233,0,0,0,4.232-4.232,4.234,4.234,0,0,0-4.232-4.237,4.234,4.234,0,0,0-4.232,4.237" transform="translate(-946.913 193.781)" fill="#101011"/><path d="M1042.409-163.972a4.233,4.233,0,0,0,4.232,4.232,4.233,4.233,0,0,0,4.232-4.232,4.234,4.234,0,0,0-4.232-4.237,4.234,4.234,0,0,0-4.232,4.237" transform="translate(-981.861 193.781)" fill="#101011"/><path d="M1050.263-163.972a4.234,4.234,0,0,0,4.237,4.232,4.233,4.233,0,0,0,4.232-4.232,4.234,4.234,0,0,0-4.232-4.237,4.235,4.235,0,0,0-4.237,4.237" transform="translate(-1016.814 193.781)" fill="#101011"/><path d="M995.288-171.389a4.234,4.234,0,0,0,4.232,4.237,4.234,4.234,0,0,0,4.232-4.237,4.233,4.233,0,0,0-4.232-4.232,4.233,4.233,0,0,0-4.232,4.232" transform="translate(-772.164 175.621)" fill="#101011"/><path d="M1003.142-171.389a4.234,4.234,0,0,0,4.232,4.237,4.234,4.234,0,0,0,4.232-4.237,4.233,4.233,0,0,0-4.232-4.232,4.233,4.233,0,0,0-4.232,4.232" transform="translate(-807.112 175.621)" fill="#101011"/><path d="M1010.995-171.389a4.235,4.235,0,0,0,4.237,4.237,4.234,4.234,0,0,0,4.233-4.237,4.233,4.233,0,0,0-4.233-4.232,4.234,4.234,0,0,0-4.237,4.232" transform="translate(-842.066 175.621)" fill="#101011"/><path d="M1018.848-171.389a4.235,4.235,0,0,0,4.237,4.237,4.234,4.234,0,0,0,4.232-4.237,4.233,4.233,0,0,0-4.232-4.232,4.234,4.234,0,0,0-4.237,4.232" transform="translate(-877.014 175.621)" fill="#101011"/><path d="M1026.7-171.389a4.234,4.234,0,0,0,4.232,4.237,4.235,4.235,0,0,0,4.237-4.237,4.234,4.234,0,0,0-4.237-4.232,4.233,4.233,0,0,0-4.232,4.232" transform="translate(-911.963 175.621)" fill="#101011"/><path d="M1034.556-171.389a4.234,4.234,0,0,0,4.232,4.237,4.234,4.234,0,0,0,4.232-4.237,4.233,4.233,0,0,0-4.232-4.232,4.233,4.233,0,0,0-4.232,4.232" transform="translate(-946.913 175.621)" fill="#101011"/><path d="M1042.409-171.389a4.234,4.234,0,0,0,4.232,4.237,4.234,4.234,0,0,0,4.232-4.237,4.233,4.233,0,0,0-4.232-4.232,4.233,4.233,0,0,0-4.232,4.232" transform="translate(-981.861 175.621)" fill="#101011"/><path d="M1050.263-171.389a4.235,4.235,0,0,0,4.237,4.237,4.234,4.234,0,0,0,4.232-4.237,4.233,4.233,0,0,0-4.232-4.232,4.234,4.234,0,0,0-4.237,4.232" transform="translate(-1016.814 175.621)" fill="#101011"/><path d="M1031.759,39.846V37.8h173.106a5.472,5.472,0,0,0,5.465-5.465V-140.772a5.472,5.472,0,0,0-5.465-5.465H1031.759a5.472,5.472,0,0,0-5.465,5.465V32.335a5.472,5.472,0,0,0,5.465,5.465v4.09a9.555,9.555,0,0,1-9.554-9.555V-140.772a9.555,9.555,0,0,1,9.554-9.555h173.106a9.555,9.555,0,0,1,9.555,9.555V32.335a9.555,9.555,0,0,1-9.555,9.555H1031.759V39.846" transform="translate(-1022.204 186.319)" fill="#5381ff"/></g><path d="M1018.848-134.323a4.234,4.234,0,0,0,4.237,4.232,4.233,4.233,0,0,0,4.232-4.232,4.234,4.234,0,0,0-4.232-4.237,4.235,4.235,0,0,0-4.237,4.237" transform="translate(-849.915 266.427)" fill="#101011"/></g></g><g transform="matrix(0.985, -0.174, 0.174, 0.985, -208.954, 1452.005)"><path d="M1293.218-150.7l-.913-.913L1161.647-20.956,1031.9-150.7l129.744-129.744L1292.3-149.787l.913-.913-.913-.913.913.913.908-.913L1162.561-283.179a1.291,1.291,0,0,0-1.821,0l-131.57,131.565a1.3,1.3,0,0,0,0,1.826l131.57,131.565.908.378.913-.378,131.565-131.565.378-.913-.378-.913-.908.913" transform="translate(0 0)" fill="#5381ff"/><path d="M1216.744-182.662l-.913-.913-86.148,86.148-85.234-85.235,85.234-85.234,86.148,86.148.913-.913-.913-.913.913.913.913-.913-87.06-87.056a1.282,1.282,0,0,0-1.821,0l-87.061,87.056a1.3,1.3,0,0,0,0,1.826l87.061,87.056.908.379.913-.379,87.06-87.056.374-.913-.374-.913-.913.913" transform="translate(31.965 31.962)" fill="#5381ff"/><path d="M1140.272-214.626l-.913-.913L1097.721-173.9,1057-214.626l40.725-40.725,41.638,41.638.913-.913-.913-.913.913.913.913-.913-42.551-42.546a1.282,1.282,0,0,0-1.821,0l-42.551,42.546a1.288,1.288,0,0,0,0,1.826l42.551,42.551.908.374.913-.374,42.551-42.551.378-.913-.378-.913-.913.913" transform="translate(63.926 63.926)" fill="#101011"/></g><g transform="translate(-240.599 1507.192)"><path d="M591.991-339.282,474.023-457.253a4.779,4.779,0,0,1,0-6.761L591.991-581.985a4.782,4.782,0,0,1,6.764,0L716.724-464.014a4.779,4.779,0,0,1,0,6.761L598.755-339.282A4.787,4.787,0,0,1,591.991-339.282Z" transform="translate(7.434 20.927)" fill="none" stroke="#5381ff" stroke-miterlimit="10" stroke-width="2.361"/><path d="M536.046-597.957a2.762,2.762,0,0,1-3.906,0,2.762,2.762,0,0,1,0-3.906,2.762,2.762,0,0,1,3.906,0,2.762,2.762,0,0,1,0,3.906" transform="translate(71.141 0)" fill="#010101"/><path d="M550.719-583.286a2.757,2.757,0,0,1-3.906,0,2.759,2.759,0,0,1,0-3.9,2.762,2.762,0,0,1,3.906,0,2.759,2.759,0,0,1,0,3.9" transform="translate(87.064 15.922)" fill="#010101"/><path d="M565.393-568.611a2.762,2.762,0,0,1-3.906,0,2.762,2.762,0,0,1,0-3.906,2.762,2.762,0,0,1,3.906,0,2.767,2.767,0,0,1,0,3.906" transform="translate(102.986 31.844)" fill="#010101"/><path d="M580.063-553.938a2.759,2.759,0,0,1-3.9,0,2.762,2.762,0,0,1,0-3.906,2.759,2.759,0,0,1,3.9,0,2.762,2.762,0,0,1,0,3.906" transform="translate(118.909 47.766)" fill="#010101"/><path d="M594.738-539.265a2.762,2.762,0,0,1-3.906,0,2.762,2.762,0,0,1,0-3.906,2.762,2.762,0,0,1,3.906,0,2.762,2.762,0,0,1,0,3.906" transform="translate(134.83 63.689)" fill="#010101"/><path d="M522.934-584.845a2.762,2.762,0,0,1-3.906,0,2.762,2.762,0,0,1,0-3.906,2.762,2.762,0,0,1,3.906,0,2.762,2.762,0,0,1,0,3.906" transform="translate(56.913 14.228)" fill="#010101"/><path d="M537.607-570.171a2.762,2.762,0,0,1-3.906,0,2.762,2.762,0,0,1,0-3.906,2.762,2.762,0,0,1,3.906,0,2.762,2.762,0,0,1,0,3.906" transform="translate(72.836 30.151)" fill="#010101"/><path d="M552.278-555.5a2.758,2.758,0,0,1-3.9,0,2.762,2.762,0,0,1,0-3.906,2.758,2.758,0,0,1,3.9,0,2.762,2.762,0,0,1,0,3.906" transform="translate(88.758 46.072)" fill="#010101"/><path d="M566.952-540.826a2.762,2.762,0,0,1-3.906,0,2.762,2.762,0,0,1,0-3.906,2.762,2.762,0,0,1,3.906,0,2.762,2.762,0,0,1,0,3.906" transform="translate(104.679 61.994)" fill="#010101"/><path d="M581.626-526.153a2.762,2.762,0,0,1-3.906,0,2.762,2.762,0,0,1,0-3.906,2.762,2.762,0,0,1,3.906,0,2.762,2.762,0,0,1,0,3.906" transform="translate(120.602 77.917)" fill="#010101"/><path d="M509.822-571.733a2.762,2.762,0,0,1-3.906,0,2.762,2.762,0,0,1,0-3.906,2.762,2.762,0,0,1,3.906,0,2.762,2.762,0,0,1,0,3.906" transform="translate(42.685 28.457)" fill="#010101"/><path d="M524.495-557.059a2.762,2.762,0,0,1-3.906,0,2.762,2.762,0,0,1,0-3.906,2.762,2.762,0,0,1,3.906,0,2.762,2.762,0,0,1,0,3.906" transform="translate(58.608 44.379)" fill="#010101"/><path d="M539.166-542.388a2.759,2.759,0,0,1-3.9,0,2.762,2.762,0,0,1,0-3.906,2.759,2.759,0,0,1,3.9,0,2.762,2.762,0,0,1,0,3.906" transform="translate(74.53 60.3)" fill="#010101"/><path d="M553.84-527.714a2.762,2.762,0,0,1-3.906,0,2.762,2.762,0,0,1,0-3.906,2.762,2.762,0,0,1,3.906,0,2.762,2.762,0,0,1,0,3.906" transform="translate(90.451 76.223)" fill="#010101"/><path d="M568.514-513.041a2.762,2.762,0,0,1-3.906,0,2.762,2.762,0,0,1,0-3.906,2.762,2.762,0,0,1,3.906,0,2.762,2.762,0,0,1,0,3.906" transform="translate(106.373 92.145)" fill="#010101"/><path d="M496.71-558.621a2.762,2.762,0,0,1-3.906,0,2.762,2.762,0,0,1,0-3.906,2.762,2.762,0,0,1,3.906,0,2.762,2.762,0,0,1,0,3.906" transform="translate(28.456 42.685)" fill="#010101"/><path d="M511.383-543.947a2.762,2.762,0,0,1-3.906,0,2.762,2.762,0,0,1,0-3.906,2.762,2.762,0,0,1,3.906,0,2.762,2.762,0,0,1,0,3.906" transform="translate(44.379 58.607)" fill="#010101"/><path d="M526.054-529.277a2.759,2.759,0,0,1-3.9,0,2.758,2.758,0,0,1,0-3.9,2.759,2.759,0,0,1,3.9,0,2.759,2.759,0,0,1,0,3.9" transform="translate(60.301 74.53)" fill="#010101"/><path d="M540.729-514.6a2.762,2.762,0,0,1-3.906,0,2.762,2.762,0,0,1,0-3.906,2.762,2.762,0,0,1,3.906,0,2.762,2.762,0,0,1,0,3.906" transform="translate(76.222 90.451)" fill="#010101"/><path d="M555.4-499.929a2.762,2.762,0,0,1-3.906,0,2.762,2.762,0,0,1,0-3.906,2.762,2.762,0,0,1,3.906,0,2.762,2.762,0,0,1,0,3.906" transform="translate(92.145 106.373)" fill="#010101"/><path d="M483.6-545.509a2.762,2.762,0,0,1-3.906,0,2.762,2.762,0,0,1,0-3.906,2.762,2.762,0,0,1,3.906,0,2.762,2.762,0,0,1,0,3.906" transform="translate(14.228 56.913)" fill="#010101"/><path d="M498.271-530.835a2.762,2.762,0,0,1-3.906,0,2.762,2.762,0,0,1,0-3.906,2.762,2.762,0,0,1,3.906,0,2.762,2.762,0,0,1,0,3.906" transform="translate(30.151 72.836)" fill="#010101"/><path d="M512.942-516.165a2.759,2.759,0,0,1-3.9,0,2.759,2.759,0,0,1,0-3.9,2.759,2.759,0,0,1,3.9,0,2.759,2.759,0,0,1,0,3.9" transform="translate(46.073 88.758)" fill="#010101"/><path d="M527.617-501.49a2.762,2.762,0,0,1-3.906,0,2.762,2.762,0,0,1,0-3.906,2.762,2.762,0,0,1,3.906,0,2.762,2.762,0,0,1,0,3.906" transform="translate(61.994 104.679)" fill="#010101"/><path d="M542.29-486.817a2.762,2.762,0,0,1-3.906,0,2.762,2.762,0,0,1,0-3.906,2.762,2.762,0,0,1,3.906,0,2.762,2.762,0,0,1,0,3.906" transform="translate(77.917 120.602)" fill="#010101"/><path d="M470.486-532.4a2.762,2.762,0,0,1-3.906,0,2.762,2.762,0,0,1,0-3.906,2.762,2.762,0,0,1,3.906,0,2.762,2.762,0,0,1,0,3.906" transform="translate(0 71.141)" fill="#010101"/><path d="M485.159-517.723a2.762,2.762,0,0,1-3.906,0,2.762,2.762,0,0,1,0-3.906,2.762,2.762,0,0,1,3.906,0,2.767,2.767,0,0,1,0,3.906" transform="translate(15.923 87.064)" fill="#010101"/><path d="M499.831-503.053a2.762,2.762,0,0,1-3.906,0,2.759,2.759,0,0,1,0-3.9,2.762,2.762,0,0,1,3.906,0,2.759,2.759,0,0,1,0,3.9" transform="translate(31.844 102.986)" fill="#010101"/><path d="M514.5-488.379a2.762,2.762,0,0,1-3.906,0,2.762,2.762,0,0,1,0-3.906,2.767,2.767,0,0,1,3.906,0,2.762,2.762,0,0,1,0,3.906" transform="translate(47.766 118.908)" fill="#010101"/><path d="M529.178-473.705a2.762,2.762,0,0,1-3.906,0,2.762,2.762,0,0,1,0-3.906,2.762,2.762,0,0,1,3.906,0,2.762,2.762,0,0,1,0,3.906" transform="translate(63.689 134.83)" fill="#010101"/></g><g transform="matrix(0.985, -0.174, 0.174, 0.985, -660.954, 556.005)"><path d="M1293.218-150.7l-.913-.913L1161.647-20.956,1031.9-150.7l129.744-129.744L1292.3-149.787l.913-.913-.913-.913.913.913.908-.913L1162.561-283.179a1.291,1.291,0,0,0-1.821,0l-131.57,131.565a1.3,1.3,0,0,0,0,1.826l131.57,131.565.908.378.913-.378,131.565-131.565.378-.913-.378-.913-.908.913" transform="translate(0 0)" fill="#5381ff"/><path d="M1216.744-182.662l-.913-.913-86.148,86.148-85.234-85.235,85.234-85.234,86.148,86.148.913-.913-.913-.913.913.913.913-.913-87.06-87.056a1.282,1.282,0,0,0-1.821,0l-87.061,87.056a1.3,1.3,0,0,0,0,1.826l87.061,87.056.908.379.913-.379,87.06-87.056.374-.913-.374-.913-.913.913" transform="translate(31.965 31.962)" fill="#5381ff"/><path d="M1140.272-214.626l-.913-.913L1097.721-173.9,1057-214.626l40.725-40.725,41.638,41.638.913-.913-.913-.913.913.913.913-.913-42.551-42.546a1.282,1.282,0,0,0-1.821,0l-42.551,42.546a1.288,1.288,0,0,0,0,1.826l42.551,42.551.908.374.913-.374,42.551-42.551.378-.913-.378-.913-.913.913" transform="translate(63.926 63.926)" fill="#101011"/></g></g></svg>