<svg xmlns="http://www.w3.org/2000/svg" xmlns:xlink="http://www.w3.org/1999/xlink" width="1407" height="1407" viewBox="0 0 1407 1407"><defs><clipPath id="b"><rect width="1407" height="1407"/></clipPath></defs><g id="a" clip-path="url(#b)"><g transform="translate(57.866 39.792)"><g transform="translate(15 154.601)"><g transform="translate(0 0)"><g transform="translate(0)"><path d="M1078.179-165.7c0,4.408,4.193,6.883,8.6,6.883s6.883-2.475,6.883-6.883-2.472-8.6-6.883-8.6a9.083,9.083,0,0,0-8.6,8.6" transform="translate(-950.848 941.737)" fill="#2a1e17"/><path d="M714.392-369.292c0,4.408,2.475,8.6,6.883,8.6a9.085,9.085,0,0,0,8.6-8.6,9.085,9.085,0,0,0-8.6-8.6c-4.408,0-6.883,4.2-6.883,8.6" transform="translate(245.755 680.737)" fill="#2a1e17"/><path d="M799.143-436.792a17.262,17.262,0,0,0,17.207,17.207,17.264,17.264,0,0,0,17.207-17.207A17.266,17.266,0,0,0,816.35-454a17.264,17.264,0,0,0-17.207,17.207" transform="translate(-52.362 583.051)" fill="#ff6d66"/><path d="M675.654-503.755c4.158,0,6.883,4.445,6.883,8.6a6.473,6.473,0,0,1-6.883,6.883c-4.158,0-8.6-2.725-8.6-6.883s4.446-8.6,8.6-8.6" transform="translate(399.78 519.241)" fill="#a0c6f4"/><path d="M1109.156-93.547c0,4.158,2.724,8.6,6.883,8.6s8.6-4.445,8.6-8.6-4.449-6.883-8.6-6.883a6.473,6.473,0,0,0-6.883,6.883" transform="translate(-1050.653 1036.487)" fill="#91ba83"/><path d="M1103.252-268.447,1091.207-297.7c-.329-.773-.773-1.395,0-1.721s3.113.948,3.442,1.721l12.045,27.531c.329.773-.945,1.4-1.721,1.721s-1.392.773-1.721,0" transform="translate(-991.407 781.213)" fill="#2a1e17"/><path d="M1108.634-268.447,1096.589-297.7c-.329-.773-.773-1.395,0-1.721s3.116.948,3.441,1.721l12.045,27.531c.326.773-.948,1.4-1.721,1.721s-1.4.773-1.721,0" transform="translate(-1008.834 781.213)" fill="#2a1e17"/><path d="M681.129-148.564c0,4.161,4.442,8.6,8.6,8.6s6.883-4.442,6.883-8.6a6.475,6.475,0,0,0-6.883-6.883c-4.161,0-8.6,2.728-8.6,6.883" transform="translate(353.008 965.894)" fill="#ff6d66"/><path d="M958.48-130.042A10.231,10.231,0,0,0,968.8-119.717a10.227,10.227,0,0,0,10.324-10.324A10.227,10.227,0,0,0,968.8-140.366a10.231,10.231,0,0,0-10.324,10.324" transform="translate(-561 985.226)" fill="#ff6d66"/><path d="M1034.469-345.7h25.811v-27.531h-25.811V-345.7" transform="translate(-815.941 686.4)" fill="#91ba83"/><path d="M1044.207-212.82l-6.883,13.766-8.6,15.486h32.693l-8.6-15.486-8.6-13.766" transform="translate(-803.31 892.494)" fill="#a0c6f4"/><path d="M1094.472-414.341l-91.2,68.828c-1.988,1.522-5.391,2.015-6.883,0l-13.765-18.928c-1.425-1.936-.158-5.379,1.721-6.883l89.476-70.548c2-1.6,5.382-2.07,6.883,0l13.765,20.648c1.425,1.966,1.93,5.409,0,6.883" transform="translate(-733.127 596.734)" fill="#fff"/><path d="M1095.155-413.26v1.721l-89.476,68.828c-1.084.831-2.172,1.721-3.441,1.721-1.833,0-3.984-1.849-5.162-3.441L983.31-363.36c-.788-1.068-1.721-2.206-1.721-3.441,0-1.759.244-2.263,1.721-3.441l89.476-72.269a11.065,11.065,0,0,1,5.162-1.721c1.848,0,2.267,1.819,3.442,3.441l15.486,20.648c.767,1.056,1.721,2.221,1.721,3.441,0,1.8-1.9,3.984-3.441,5.162v-1.721l-1.721-1.721c.761-.584,1.718-.826,1.721-1.721,0-.6.384-1.191,0-1.721l-15.486-20.648c-.582-.8-.8-1.718-1.721-1.721a11.474,11.474,0,0,0-3.441,1.721l-87.755,70.548c-.728.584-1.718.844-1.721,1.721,0,.612-.392,1.188,0,1.721L998.8-346.153a5.957,5.957,0,0,0,3.442,1.721c.63,0,1.179.414,1.721,0l89.476-70.548,1.721,1.721" transform="translate(-733.809 595.653)" fill="#2a1e17"/><path d="M1020.87-421.556,998.5-406.07l-12.045-15.486,20.648-18.928,13.766,18.928" transform="translate(-666.408 600.508)" fill="#ff6d66"/><path d="M1032.339-413.55l-20.648,17.207-12.045-15.486,22.369-17.207,10.324,15.486" transform="translate(-708.848 614.871)" fill="#91ba83"/><path d="M1044.548-402.951l-22.369,15.486-10.324-13.766,20.648-17.207,12.045,15.486" transform="translate(-750.31 628.362)" fill="#a0c6f4"/><path d="M1132.556-464.955l-20.648,172.069c-.45,3.811-4.8,7.4-8.6,6.883l-34.414-5.162c-3.65-.5-7.242-3.215-6.883-6.883l17.207-175.511c.381-3.9,4.728-5.731,8.6-5.162l37.855,5.162c3.68.539,7.324,4.914,6.883,8.6" transform="translate(-951.883 550.99)" fill="#fff"/><path d="M1133.484-464.048h1.72l-20.648,173.79c-.512,4.267-4.418,6.883-8.6,6.883-.377,0-1.337.055-1.721,0l-34.414-5.162c-4.185-.575-8.6-4.458-8.6-8.6h1.721l15.486-175.511c.429-4.353,4.357-6.883,8.6-6.883a15.46,15.46,0,0,1,1.721,0l37.855,5.162c4.16.612,8.6,4.494,8.6,8.6,0,.329.039,1.383,0,1.721h-1.72l-1.721-1.721h0c0-2.609-2.511-4.778-5.162-5.162l-37.855-5.162h-1.721c-2.691,0-4.894.668-5.162,3.441l-17.207,175.511h0c0,2.63,2.5,4.8,5.162,5.162l34.414,5.162h1.721c2.657,0,4.843-2.444,5.162-5.162l20.648-173.79h0l1.721,1.721" transform="translate(-952.811 550.082)" fill="#2a1e17"/><path d="M1105.095-468.315l-6.883,41.3-30.972-3.441,3.441-43.017,34.414,5.162" transform="translate(-934.746 557.791)" fill="#ff6d66"/><path d="M1103.258-444.379l-3.441,41.3-29.252-1.721,5.162-43.017,27.531,3.441" transform="translate(-943.233 590.638)" fill="#91ba83"/><path d="M1106.018-419.631l-6.883,41.3-25.81-3.441,1.721-41.3,30.973,3.441" transform="translate(-949.435 622.673)" fill="#a0c6f4"/><path d="M1146.229-445.053l-56.783,168.628a5.351,5.351,0,0,1-6.883,3.441l-36.135-13.766a5.618,5.618,0,0,1-3.441-6.883l53.342-168.628a5.22,5.22,0,0,1,6.883-3.441l39.576,13.766a5.558,5.558,0,0,1,3.441,6.883" transform="translate(-920.818 567.223)" fill="#fff"/><path d="M1147.1-443.538h1.721l-58.5,168.628c-.989,2.907-2.261,5.162-5.162,5.162a14.146,14.146,0,0,1-3.441,0l-36.135-13.766c-2.837-1.023-3.441-4.012-3.441-6.883,0-.7-.219-1.027,0-1.721l53.342-170.349a7.531,7.531,0,0,1,6.883-5.162c.807,0,.926,1.425,1.721,1.721l39.576,13.766c2.807,1.044,5.162,4.04,5.162,6.883,0,.746.252.978,0,1.721h-3.442a6.793,6.793,0,0,0,0-1.721c0-1.6-.138-2.857-1.721-3.441l-39.576-15.486a5.933,5.933,0,0,0-1.721,0c-1.662,0-2.911,1.758-3.441,3.441L1045.583-290.4c-.125.4,0-.393,0,0,0,1.616.12,2.869,1.721,3.441l36.135,13.766a6.269,6.269,0,0,0,1.721,0c1.635,0,2.887-.08,3.441-1.721l56.783-168.628h1.721" transform="translate(-921.693 565.708)" fill="#2a1e17"/><path d="M1092.227-448.586l-13.766,37.855-30.973-8.6,12.045-41.3,32.693,12.045" transform="translate(-878.861 574.197)" fill="#a0c6f4"/><path d="M1096.385-426.357l-12.045,39.576-27.531-6.883,12.045-43.017,27.531,10.324" transform="translate(-903.667 605.31)" fill="#f9865f"/><path d="M1104.057-402.271l-15.486,37.855-24.09-6.883,10.324-41.3,29.252,10.324" transform="translate(-926.826 636.285)" fill="#91ba83"/><path d="M669.731-418.7l5.162-5.162L690.379-410.1l-5.162,5.162c-1.924,2.106-4.776,1.924-6.883,0l-6.883-6.883c-2.106-1.924-3.644-4.779-1.721-6.883" transform="translate(388.496 621.744)" fill="#91ba83"/><path d="M680.98-434.876v1.721l-20.648,24.09c-.259.283,0-.356,0,0,0,.4-.32,1.428,0,1.721L674.1-393.579c.283.259,1.367,0,1.721,0,.4,0,1.428.32,1.721,0l20.648-24.09c.259-.286,0-1.365,0-1.721,0-.4.32.292,0,0L682.7-433.155c-.283-.259.356,0,0,0-.4,0-1.429-.317-1.721,0v-1.721h-1.721A5.04,5.04,0,0,1,682.7-436.6a6.309,6.309,0,0,1,3.441,1.721l13.766,13.766c.968.886,1.724.5,1.721,1.721a6.29,6.29,0,0,1-1.721,3.441l-20.648,24.09a5.047,5.047,0,0,1-3.441,1.721,6.31,6.31,0,0,1-3.441-1.721l-13.766-13.766a5.048,5.048,0,0,1-1.721-3.441c0-1.081-.788-2.583,0-3.441l22.369-22.369h1.721" transform="translate(404.777 605.225)" fill="#2a1e17"/><path d="M636.016-356.685h27.531v-24.09H636.016v24.09" transform="translate(491.039 676.734)" fill="#ff6d66"/><path d="M630.239-386.565V-372.8h15.486a1.882,1.882,0,0,1,1.721,1.721,1.881,1.881,0,0,1-1.721,1.721H630.239c-.4,0-1.438-1.438-1.721-1.721s0,.4,0,0v-15.486a1.884,1.884,0,0,1,1.721-1.721c.84,0,0,.881,0,1.721" transform="translate(524.346 667.039)" fill="#2a1e17"/><path d="M1025.672-478.834H1053.2v-24.09h-27.531v24.09" transform="translate(-788.216 520.13)" fill="#a0c6f4"/><path d="M1019.9-508.714v13.766h15.486a1.882,1.882,0,0,1,1.721,1.721,1.879,1.879,0,0,1-1.721,1.721H1019.9c-.4,0-1.437.283-1.721,0s0-1.319,0-1.721v-15.486a1.884,1.884,0,0,1,1.721-1.721c.84,0,0,.881,0,1.721" transform="translate(-754.908 510.435)" fill="#2a1e17"/><path d="M662.334-186.538,639.965-74.693a4.261,4.261,0,0,1-5.162,3.441l-22.369-3.441a4.472,4.472,0,0,1-3.441-5.162l18.928-113.566a4.159,4.159,0,0,1,5.162-3.441l25.81,5.162a4.427,4.427,0,0,1,3.441,5.162" transform="translate(554.196 912.671)" fill="#fff"/><path d="M663.256-185.63h0L642.608-72.064c-.56,2.873-4.064,3.441-6.883,3.441-.414,0,.417.088,0,0l-22.369-3.441c-2.813-.6-5.162-4.095-5.162-6.883,0-.338-.058.341,0,0l18.928-113.566c.508-2.934,4.021-5.162,6.883-5.162.432,0-.438-.1,0,0l25.81,5.162c2.791.624,5.162,4.116,5.162,6.883,0,.377-1.644-.384-1.721,0h-1.721c0-1.358-2.066-3.14-3.441-3.441L634-194.233h0c-1.4,0-3.195.275-3.441,1.721L611.635-78.947h0c0,1.367.336,3.149,1.721,3.441l22.369,5.162h0c1.379,0,3.174-2.029,3.441-3.441L661.536-185.63h1.721" transform="translate(553.274 911.762)" fill="#2a1e17"/><path d="M637.333-189.594l-5.162,27.531L611.523-165.5l5.162-27.531,20.648,3.441" transform="translate(570.594 917.447)" fill="#ff6d66"/><path d="M639.519-172.281l-5.162,27.531-18.928-3.441,5.162-29.252,18.928,5.162" transform="translate(561.525 937.99)" fill="#91ba83"/><path d="M640.661-157.34,635.5-129.808l-17.207-3.441,3.441-27.531,18.928,3.441" transform="translate(553.501 959.183)" fill="#a0c6f4"/><path d="M881.181-73.891l-3.442,8.6c-.256.8-.92,1.976-1.721,1.721s-.256-.919,0-1.721l1.721-8.6c.256-.8.92-1.976,1.721-1.721s1.976.92,1.721,1.721" transform="translate(-273.776 1068.452)" fill="#2a1e17"/><path d="M882.791-68.686l-6.883-1.721c-.794-.274-1.992-2.644-1.721-3.441s.923-.274,1.721,0l8.6,1.721c.8.271.274,2.647,0,3.441s-.926.271-1.721,0" transform="translate(-275.386 1070.129)" fill="#2a1e17"/><path d="M880.719-59.294l-5.162,15.486c-.253.8-.917,1.974-1.721,1.721s-.253-.92,0-1.721L879-61.014c.253-.8.92-.256,1.721,0s.253.917,0,1.721" transform="translate(-269.873 1086.548)" fill="#2a1e17"/><path d="M886.94-52.093l-13.766-3.441c-.8-.256-1.976-.919-1.721-1.721s.92-1.976,1.721-1.721l13.766,5.162c.8.256,1.976.919,1.721,1.721s-.92.256-1.721,0" transform="translate(-272.652 1089.671)" fill="#2a1e17"/><path d="M874.468-70.574l-6.883,20.648c-.249.8-.92.25-1.721,0s-1.973-.917-1.721-1.721l6.883-20.648c.253-.8.917-.25,1.721,0s1.97.917,1.721,1.721" transform="translate(-241.253 1072.017)" fill="#2a1e17"/><path d="M881.642-60.664l-18.927-6.883c-.8-.256-1.976-.919-1.721-1.721s2.641-.257,3.441,0l18.927,5.162c.8.255.256.919,0,1.721s-.917,1.976-1.721,1.721" transform="translate(-244.985 1075.873)" fill="#2a1e17"/><path d="M1135.591-420.293h-22.369a1.884,1.884,0,0,1-1.721-1.721,1.881,1.881,0,0,1,1.721-1.721h22.369a1.882,1.882,0,0,1,1.721,1.721,1.884,1.884,0,0,1-1.721,1.721" transform="translate(-1070.204 621.614)" fill="#ff6d66"/><path d="M867.733-488.984H845.364v-3.441h22.369Z" transform="translate(-193.221 533.722)" fill="#91ba83"/><path d="M1153.685-369.162l-22.369,3.441v-1.721l22.369-5.162" transform="translate(-1131.316 687.49)" fill="#a0c6f4"/><path d="M764.272-122.013H741.9c-.84,0-1.721.841-1.721,0a1.885,1.885,0,0,1,1.721-1.721h22.369a1.885,1.885,0,0,1,1.721,1.721c0,.841-.881,0-1.721,0" transform="translate(151.137 1006.449)" fill="#a0c6f4"/></g></g></g><g transform="translate(801.274 87.792) rotate(16)"><g transform="translate(0 0)"><path d="M0,4.306A4.3,4.3,0,1,0,4.306,0,4.3,4.3,0,0,0,0,4.306" transform="translate(144.15 129.956)" fill="#101011"/><path d="M0,4.306A4.3,4.3,0,1,0,4.3,0,4.3,4.3,0,0,0,0,4.306" transform="translate(116.613 129.956)" fill="#101011"/><path d="M0,4.306A4.3,4.3,0,1,0,4.3,0,4.3,4.3,0,0,0,0,4.306" transform="translate(89.075 129.956)" fill="#101011"/><path d="M0,4.306A4.3,4.3,0,1,0,4.3,0,4.3,4.3,0,0,0,0,4.306" transform="translate(61.537 129.956)" fill="#101011"/><path d="M0,4.306A4.3,4.3,0,1,0,4.306,0,4.3,4.3,0,0,0,0,4.306" transform="translate(33.995 129.956)" fill="#101011"/><g transform="translate(0 0)"><path d="M0,4.3A4.3,4.3,0,1,0,4.3,0,4.3,4.3,0,0,0,0,4.3" transform="translate(226.768 181.94)" fill="#101011"/><path d="M0,4.3A4.3,4.3,0,1,0,4.3,0,4.3,4.3,0,0,0,0,4.3" transform="translate(199.231 181.94)" fill="#101011"/><path d="M0,4.3A4.3,4.3,0,1,0,4.306,0,4.3,4.3,0,0,0,0,4.3" transform="translate(171.688 181.94)" fill="#101011"/><path d="M0,4.3A4.3,4.3,0,1,0,4.306,0,4.3,4.3,0,0,0,0,4.3" transform="translate(144.15 181.94)" fill="#101011"/><path d="M0,4.3A4.3,4.3,0,1,0,4.3,0,4.3,4.3,0,0,0,0,4.3" transform="translate(116.613 181.94)" fill="#101011"/><path d="M0,4.3A4.3,4.3,0,1,0,4.3,0,4.3,4.3,0,0,0,0,4.3" transform="translate(89.075 181.94)" fill="#101011"/><path d="M0,4.3A4.3,4.3,0,1,0,4.3,0,4.3,4.3,0,0,0,0,4.3" transform="translate(61.537 181.94)" fill="#101011"/><path d="M0,4.3A4.3,4.3,0,1,0,4.306,0,4.3,4.3,0,0,0,0,4.3" transform="translate(33.995 181.94)" fill="#101011"/><path d="M0,4.306A4.3,4.3,0,1,0,4.3,0,4.3,4.3,0,0,0,0,4.306" transform="translate(226.768 155.947)" fill="#101011"/><path d="M0,4.306A4.3,4.3,0,1,0,4.3,0,4.3,4.3,0,0,0,0,4.306" transform="translate(199.231 155.947)" fill="#101011"/><path d="M0,4.306A4.3,4.3,0,1,0,4.306,0,4.3,4.3,0,0,0,0,4.306" transform="translate(171.688 155.947)" fill="#101011"/><path d="M0,4.306A4.3,4.3,0,1,0,4.306,0,4.3,4.3,0,0,0,0,4.306" transform="translate(144.15 155.947)" fill="#101011"/><path d="M0,4.306A4.3,4.3,0,1,0,4.3,0,4.3,4.3,0,0,0,0,4.306" transform="translate(116.613 155.947)" fill="#101011"/><path d="M0,4.306A4.3,4.3,0,1,0,4.3,0,4.3,4.3,0,0,0,0,4.306" transform="translate(89.075 155.947)" fill="#101011"/><path d="M0,4.306A4.3,4.3,0,1,0,4.3,0,4.3,4.3,0,0,0,0,4.306" transform="translate(61.537 155.947)" fill="#101011"/><path d="M0,4.306A4.3,4.3,0,1,0,4.306,0,4.3,4.3,0,0,0,0,4.306" transform="translate(33.995 155.947)" fill="#101011"/><path d="M0,4.306A4.3,4.3,0,1,0,4.3,0,4.3,4.3,0,0,0,0,4.306" transform="translate(226.768 129.956)" fill="#101011"/><path d="M0,4.306A4.3,4.3,0,1,0,4.3,0,4.3,4.3,0,0,0,0,4.306" transform="translate(199.231 129.956)" fill="#101011"/><path d="M0,4.3A4.3,4.3,0,1,0,4.3,0,4.3,4.3,0,0,0,0,4.3" transform="translate(226.768 103.966)" fill="#101011"/><path d="M0,4.3A4.3,4.3,0,1,0,4.3,0,4.3,4.3,0,0,0,0,4.3" transform="translate(199.231 103.966)" fill="#101011"/><path d="M0,4.3A4.3,4.3,0,1,0,4.306,0,4.3,4.3,0,0,0,0,4.3" transform="translate(171.688 103.966)" fill="#101011"/><path d="M0,4.3A4.3,4.3,0,1,0,4.306,0,4.3,4.3,0,0,0,0,4.3" transform="translate(144.15 103.966)" fill="#101011"/><path d="M0,4.3A4.3,4.3,0,1,0,4.3,0,4.3,4.3,0,0,0,0,4.3" transform="translate(116.613 103.966)" fill="#101011"/><path d="M0,4.3A4.3,4.3,0,1,0,4.3,0,4.3,4.3,0,0,0,0,4.3" transform="translate(89.075 103.966)" fill="#101011"/><path d="M0,4.3A4.3,4.3,0,1,0,4.3,0,4.3,4.3,0,0,0,0,4.3" transform="translate(61.537 103.966)" fill="#101011"/><path d="M0,4.3A4.3,4.3,0,1,0,4.306,0,4.3,4.3,0,0,0,0,4.3" transform="translate(33.995 103.966)" fill="#101011"/><path d="M0,4.3A4.3,4.3,0,1,0,4.3,0,4.3,4.3,0,0,0,0,4.3" transform="translate(226.768 77.975)" fill="#101011"/><path d="M0,4.3A4.3,4.3,0,1,0,4.3,0,4.3,4.3,0,0,0,0,4.3" transform="translate(199.231 77.975)" fill="#101011"/><path d="M0,4.3A4.3,4.3,0,1,0,4.306,0,4.3,4.3,0,0,0,0,4.3" transform="translate(171.688 77.975)" fill="#101011"/><path d="M0,4.3A4.3,4.3,0,1,0,4.306,0,4.3,4.3,0,0,0,0,4.3" transform="translate(144.15 77.975)" fill="#101011"/><path d="M0,4.3A4.3,4.3,0,1,0,4.3,0,4.3,4.3,0,0,0,0,4.3" transform="translate(116.613 77.975)" fill="#101011"/><path d="M0,4.3A4.3,4.3,0,1,0,4.3,0,4.3,4.3,0,0,0,0,4.3" transform="translate(89.075 77.975)" fill="#101011"/><path d="M0,4.3A4.3,4.3,0,1,0,4.3,0,4.3,4.3,0,0,0,0,4.3" transform="translate(61.537 77.975)" fill="#101011"/><path d="M0,4.3A4.3,4.3,0,1,0,4.306,0,4.3,4.3,0,0,0,0,4.3" transform="translate(33.995 77.975)" fill="#101011"/><path d="M0,4.306A4.3,4.3,0,1,0,4.3,0,4.3,4.3,0,0,0,0,4.306" transform="translate(226.768 51.98)" fill="#101011"/><path d="M0,4.306A4.3,4.3,0,1,0,4.3,0,4.3,4.3,0,0,0,0,4.306" transform="translate(199.231 51.98)" fill="#101011"/><path d="M0,4.306A4.3,4.3,0,1,0,4.306,0,4.3,4.3,0,0,0,0,4.306" transform="translate(171.688 51.98)" fill="#101011"/><path d="M0,4.306A4.3,4.3,0,1,0,4.306,0,4.3,4.3,0,0,0,0,4.306" transform="translate(144.15 51.98)" fill="#101011"/><path d="M0,4.306A4.3,4.3,0,1,0,4.3,0,4.3,4.3,0,0,0,0,4.306" transform="translate(116.613 51.98)" fill="#101011"/><path d="M0,4.306A4.3,4.3,0,1,0,4.3,0,4.3,4.3,0,0,0,0,4.306" transform="translate(89.075 51.98)" fill="#101011"/><path d="M0,4.306A4.3,4.3,0,1,0,4.3,0,4.3,4.3,0,0,0,0,4.306" transform="translate(61.537 51.98)" fill="#101011"/><path d="M0,4.306A4.3,4.3,0,1,0,4.306,0,4.3,4.3,0,0,0,0,4.306" transform="translate(33.995 51.98)" fill="#101011"/><path d="M0,4.306A4.3,4.3,0,1,0,4.3,0,4.3,4.3,0,0,0,0,4.306" transform="translate(226.768 25.99)" fill="#101011"/><path d="M0,4.306A4.3,4.3,0,1,0,4.3,0,4.3,4.3,0,0,0,0,4.306" transform="translate(199.231 25.99)" fill="#101011"/><path d="M0,4.306A4.3,4.3,0,1,0,4.306,0,4.3,4.3,0,0,0,0,4.306" transform="translate(171.688 25.99)" fill="#101011"/><path d="M0,4.306A4.3,4.3,0,1,0,4.306,0,4.3,4.3,0,0,0,0,4.306" transform="translate(144.15 25.99)" fill="#101011"/><path d="M0,4.306A4.3,4.3,0,1,0,4.3,0,4.3,4.3,0,0,0,0,4.306" transform="translate(116.613 25.99)" fill="#101011"/><path d="M0,4.306A4.3,4.3,0,1,0,4.3,0,4.3,4.3,0,0,0,0,4.306" transform="translate(89.075 25.99)" fill="#101011"/><path d="M0,4.306A4.3,4.3,0,1,0,4.3,0,4.3,4.3,0,0,0,0,4.306" transform="translate(61.537 25.99)" fill="#101011"/><path d="M0,4.306A4.3,4.3,0,1,0,4.306,0,4.3,4.3,0,0,0,0,4.306" transform="translate(33.995 25.99)" fill="#101011"/><path d="M0,4.3A4.3,4.3,0,1,0,4.3,0,4.3,4.3,0,0,0,0,4.3" transform="translate(226.768)" fill="#101011"/><path d="M0,4.3A4.3,4.3,0,1,0,4.3,0,4.3,4.3,0,0,0,0,4.3" transform="translate(199.231)" fill="#101011"/><path d="M0,4.3A4.3,4.3,0,1,0,4.306,0,4.3,4.3,0,0,0,0,4.3" transform="translate(171.688)" fill="#101011"/><path d="M0,4.3A4.3,4.3,0,1,0,4.306,0,4.3,4.3,0,0,0,0,4.3" transform="translate(144.15)" fill="#101011"/><path d="M0,4.3A4.3,4.3,0,1,0,4.3,0,4.3,4.3,0,0,0,0,4.3" transform="translate(116.613)" fill="#101011"/><path d="M0,4.3A4.3,4.3,0,1,0,4.3,0,4.3,4.3,0,0,0,0,4.3" transform="translate(89.075)" fill="#101011"/><path d="M0,4.3A4.3,4.3,0,1,0,4.3,0,4.3,4.3,0,0,0,0,4.3" transform="translate(61.537)" fill="#101011"/><path d="M0,4.3A4.3,4.3,0,1,0,4.306,0,4.3,4.3,0,0,0,0,4.3" transform="translate(33.995)" fill="#101011"/><path d="M9.711,193.278V191.2H185.644a5.562,5.562,0,0,0,5.554-5.554V9.711a5.561,5.561,0,0,0-5.554-5.554H9.711A5.561,5.561,0,0,0,4.156,9.711V185.644A5.562,5.562,0,0,0,9.711,191.2v4.157A9.712,9.712,0,0,1,0,185.644V9.711A9.711,9.711,0,0,1,9.711,0H185.644a9.711,9.711,0,0,1,9.711,9.711V185.644a9.711,9.711,0,0,1-9.711,9.711H9.711v-2.077" transform="translate(0 36.581)" fill="#5381ff"/></g><path d="M0,4.306A4.3,4.3,0,1,0,4.306,0,4.3,4.3,0,0,0,0,4.306" transform="translate(171.693 129.956)" fill="#101011"/></g></g><g transform="matrix(0.985, -0.174, 0.174, 0.985, 767.055, 1009.498)"><path d="M268.744,135.024l-.928-.928L135.024,266.887,3.162,135.024,135.024,3.161,267.816,135.952l.928-.928-.928-.928.928.928.922-.928L135.952.382a1.312,1.312,0,0,0-1.851,0L.382,134.1a1.318,1.318,0,0,0,0,1.856L134.1,269.666l.923.385.928-.385L269.666,135.952l.385-.928-.385-.928-.922.928" transform="translate(0 0)" fill="#5381ff"/><path d="M178.27,89.791l-.928-.928L89.788,176.418,3.161,89.791,89.788,3.165l87.555,87.554.928-.928-.928-.928.928.928.928-.928L90.716.386a1.3,1.3,0,0,0-1.851,0L.382,88.864a1.318,1.318,0,0,0,0,1.856L88.865,179.2l.923.385.928-.385L179.2,90.719l.38-.928-.38-.928-.928.928" transform="translate(45.237 45.233)" fill="#5381ff"/><path d="M87.8,44.555l-.928-.928L44.555,85.945,3.165,44.555l41.39-41.39L86.873,45.483l.928-.928-.928-.928.928.928.928-.928L45.483.386a1.3,1.3,0,0,0-1.851,0L.386,43.627a1.309,1.309,0,0,0,0,1.856L43.632,88.729l.923.38.928-.38L88.729,45.483l.384-.928-.384-.928-.928.928" transform="translate(90.469 90.469)" fill="#101011"/></g><g transform="translate(228.605 918.444)"><path d="M593.941-335.295l-119.9-119.9a4.857,4.857,0,0,1,0-6.872l119.9-119.9a4.86,4.86,0,0,1,6.875,0l119.9,119.9a4.857,4.857,0,0,1,0,6.872l-119.9,119.9A4.866,4.866,0,0,1,593.941-335.295Z" transform="translate(-458.104 624.256)" fill="none" stroke="#5381ff" stroke-miterlimit="10" stroke-width="2.361"/><path d="M536.123-597.88a2.807,2.807,0,0,1-3.97,0,2.807,2.807,0,0,1,0-3.97,2.807,2.807,0,0,1,3.97,0,2.807,2.807,0,0,1,0,3.97" transform="translate(-392.397 602.672)" fill="#010101"/><path d="M550.8-583.209a2.8,2.8,0,0,1-3.97,0,2.8,2.8,0,0,1,0-3.967,2.807,2.807,0,0,1,3.97,0,2.8,2.8,0,0,1,0,3.967" transform="translate(-375.975 619.094)" fill="#010101"/><path d="M565.47-568.534a2.807,2.807,0,0,1-3.97,0,2.807,2.807,0,0,1,0-3.97,2.807,2.807,0,0,1,3.97,0,2.812,2.812,0,0,1,0,3.97" transform="translate(-359.553 635.515)" fill="#010101"/><path d="M580.14-553.861a2.8,2.8,0,0,1-3.967,0,2.807,2.807,0,0,1,0-3.97,2.8,2.8,0,0,1,3.967,0,2.807,2.807,0,0,1,0,3.97" transform="translate(-343.13 651.937)" fill="#010101"/><path d="M594.815-539.188a2.807,2.807,0,0,1-3.97,0,2.807,2.807,0,0,1,0-3.97,2.807,2.807,0,0,1,3.97,0,2.807,2.807,0,0,1,0,3.97" transform="translate(-326.709 668.359)" fill="#010101"/><path d="M523.011-584.768a2.807,2.807,0,0,1-3.97,0,2.807,2.807,0,0,1,0-3.97,2.807,2.807,0,0,1,3.97,0,2.807,2.807,0,0,1,0,3.97" transform="translate(-407.072 617.347)" fill="#010101"/><path d="M537.684-570.094a2.807,2.807,0,0,1-3.97,0,2.807,2.807,0,0,1,0-3.97,2.807,2.807,0,0,1,3.97,0,2.807,2.807,0,0,1,0,3.97" transform="translate(-390.649 633.769)" fill="#010101"/><path d="M552.355-555.423a2.8,2.8,0,0,1-3.967,0,2.807,2.807,0,0,1,0-3.97,2.8,2.8,0,0,1,3.967,0,2.807,2.807,0,0,1,0,3.97" transform="translate(-374.227 650.19)" fill="#010101"/><path d="M567.029-540.749a2.807,2.807,0,0,1-3.97,0,2.807,2.807,0,0,1,0-3.97,2.807,2.807,0,0,1,3.97,0,2.807,2.807,0,0,1,0,3.97" transform="translate(-357.807 666.612)" fill="#010101"/><path d="M581.7-526.076a2.807,2.807,0,0,1-3.97,0,2.807,2.807,0,0,1,0-3.97,2.807,2.807,0,0,1,3.97,0,2.807,2.807,0,0,1,0,3.97" transform="translate(-341.384 683.034)" fill="#010101"/><path d="M509.9-571.656a2.807,2.807,0,0,1-3.97,0,2.807,2.807,0,0,1,0-3.97,2.807,2.807,0,0,1,3.97,0,2.807,2.807,0,0,1,0,3.97" transform="translate(-421.746 632.022)" fill="#010101"/><path d="M524.572-556.982a2.807,2.807,0,0,1-3.97,0,2.807,2.807,0,0,1,0-3.97,2.807,2.807,0,0,1,3.97,0,2.807,2.807,0,0,1,0,3.97" transform="translate(-405.324 648.444)" fill="#010101"/><path d="M539.243-542.311a2.8,2.8,0,0,1-3.967,0,2.807,2.807,0,0,1,0-3.97,2.8,2.8,0,0,1,3.967,0,2.807,2.807,0,0,1,0,3.97" transform="translate(-388.902 664.865)" fill="#010101"/><path d="M553.918-527.637a2.807,2.807,0,0,1-3.97,0,2.807,2.807,0,0,1,0-3.97,2.807,2.807,0,0,1,3.97,0,2.807,2.807,0,0,1,0,3.97" transform="translate(-372.481 681.287)" fill="#010101"/><path d="M568.591-512.964a2.807,2.807,0,0,1-3.97,0,2.807,2.807,0,0,1,0-3.97,2.807,2.807,0,0,1,3.97,0,2.807,2.807,0,0,1,0,3.97" transform="translate(-356.059 697.709)" fill="#010101"/><path d="M496.787-558.544a2.807,2.807,0,0,1-3.97,0,2.807,2.807,0,0,1,0-3.97,2.807,2.807,0,0,1,3.97,0,2.807,2.807,0,0,1,0,3.97" transform="translate(-436.421 646.696)" fill="#010101"/><path d="M511.46-543.87a2.807,2.807,0,0,1-3.97,0,2.807,2.807,0,0,1,0-3.97,2.807,2.807,0,0,1,3.97,0,2.807,2.807,0,0,1,0,3.97" transform="translate(-419.999 663.118)" fill="#010101"/><path d="M526.131-529.2a2.8,2.8,0,0,1-3.967,0,2.8,2.8,0,0,1,0-3.967,2.8,2.8,0,0,1,3.967,0,2.8,2.8,0,0,1,0,3.967" transform="translate(-403.577 679.541)" fill="#010101"/><path d="M540.806-514.525a2.807,2.807,0,0,1-3.97,0,2.807,2.807,0,0,1,0-3.97,2.807,2.807,0,0,1,3.97,0,2.807,2.807,0,0,1,0,3.97" transform="translate(-387.156 695.961)" fill="#010101"/><path d="M555.479-499.852a2.807,2.807,0,0,1-3.97,0,2.807,2.807,0,0,1,0-3.97,2.807,2.807,0,0,1,3.97,0,2.807,2.807,0,0,1,0,3.97" transform="translate(-370.734 712.384)" fill="#010101"/><path d="M483.675-545.432a2.807,2.807,0,0,1-3.97,0,2.807,2.807,0,0,1,0-3.97,2.807,2.807,0,0,1,3.97,0,2.807,2.807,0,0,1,0,3.97" transform="translate(-451.096 661.371)" fill="#010101"/><path d="M498.348-530.758a2.807,2.807,0,0,1-3.97,0,2.808,2.808,0,0,1,0-3.97,2.807,2.807,0,0,1,3.97,0,2.807,2.807,0,0,1,0,3.97" transform="translate(-434.674 677.793)" fill="#010101"/><path d="M513.019-516.088a2.8,2.8,0,0,1-3.967,0,2.8,2.8,0,0,1,0-3.967,2.8,2.8,0,0,1,3.967,0,2.8,2.8,0,0,1,0,3.967" transform="translate(-418.252 694.215)" fill="#010101"/><path d="M527.694-501.413a2.807,2.807,0,0,1-3.97,0,2.807,2.807,0,0,1,0-3.97,2.807,2.807,0,0,1,3.97,0,2.808,2.808,0,0,1,0,3.97" transform="translate(-401.831 710.636)" fill="#010101"/><path d="M542.367-486.74a2.807,2.807,0,0,1-3.97,0,2.807,2.807,0,0,1,0-3.97,2.807,2.807,0,0,1,3.97,0,2.807,2.807,0,0,1,0,3.97" transform="translate(-385.408 727.058)" fill="#010101"/><path d="M470.563-532.32a2.807,2.807,0,0,1-3.97,0,2.807,2.807,0,0,1,0-3.97,2.807,2.807,0,0,1,3.97,0,2.807,2.807,0,0,1,0,3.97" transform="translate(-465.771 676.046)" fill="#010101"/><path d="M485.236-517.646a2.807,2.807,0,0,1-3.97,0,2.807,2.807,0,0,1,0-3.97,2.807,2.807,0,0,1,3.97,0,2.812,2.812,0,0,1,0,3.97" transform="translate(-449.349 692.468)" fill="#010101"/><path d="M499.908-502.976a2.807,2.807,0,0,1-3.97,0,2.8,2.8,0,0,1,0-3.967,2.807,2.807,0,0,1,3.97,0,2.8,2.8,0,0,1,0,3.967" transform="translate(-432.928 708.89)" fill="#010101"/><path d="M514.582-488.3a2.807,2.807,0,0,1-3.97,0,2.807,2.807,0,0,1,0-3.97,2.812,2.812,0,0,1,3.97,0,2.807,2.807,0,0,1,0,3.97" transform="translate(-416.506 725.312)" fill="#010101"/><path d="M529.255-473.628a2.808,2.808,0,0,1-3.97,0,2.807,2.807,0,0,1,0-3.97,2.807,2.807,0,0,1,3.97,0,2.807,2.807,0,0,1,0,3.97" transform="translate(-400.084 741.733)" fill="#010101"/></g><g transform="matrix(0.985, -0.174, 0.174, 0.985, 307.673, 98.864)"><path d="M268.744,135.024l-.928-.928L135.024,266.887,3.162,135.024,135.024,3.161,267.816,135.952l.928-.928-.928-.928.928.928.922-.928L135.952.382a1.312,1.312,0,0,0-1.851,0L.382,134.1a1.318,1.318,0,0,0,0,1.856L134.1,269.666l.923.385.928-.385L269.666,135.952l.385-.928-.385-.928-.922.928" transform="translate(0 0)" fill="#5381ff"/><path d="M178.27,89.791l-.928-.928L89.788,176.418,3.161,89.791,89.788,3.165l87.555,87.554.928-.928-.928-.928.928.928.928-.928L90.716.386a1.3,1.3,0,0,0-1.851,0L.382,88.864a1.318,1.318,0,0,0,0,1.856L88.865,179.2l.923.385.928-.385L179.2,90.719l.38-.928-.38-.928-.928.928" transform="translate(45.237 45.233)" fill="#5381ff"/><path d="M87.8,44.555l-.928-.928L44.555,85.945,3.165,44.555l41.39-41.39L86.873,45.483l.928-.928-.928-.928.928.928.928-.928L45.483.386a1.3,1.3,0,0,0-1.851,0L.386,43.627a1.309,1.309,0,0,0,0,1.856L43.632,88.729l.923.38.928-.38L88.729,45.483l.384-.928-.384-.928-.928.928" transform="translate(90.469 90.469)" fill="#101011"/></g></g></g></svg>