<svg xmlns="http://www.w3.org/2000/svg" xmlns:xlink="http://www.w3.org/1999/xlink" width="895" height="895" viewBox="0 0 895 895"><defs><style>.a{clip-path:url(#b);}.b{fill:#fff;}.c{fill:#a0c6f4;}.d{fill:#2a1e17;}.e{fill:#ffe7cf;}.f{fill:#2a1e33;}.g{fill:#7595ec;}.h{fill:#919191;}.i{fill:#ff6d66;}.j{fill:#91ba83;}.k{fill:#c6cbcb;}.l{fill:#f9865f;}.m{font-size:20px;}.m,.n{font-family:ArialMT, Arial;}.n{font-size:16px;}.o{fill:#d8d8d8;}</style><clipPath id="b"><rect width="895" height="895"/></clipPath></defs><g id="a" class="a"><g transform="translate(-102.5 -77.5)"><g transform="translate(-100.737 -67.183)"><path d="M12.539,17.37l2.015.568q-.615,3.056-2.253,4.585T8.277,24.094q-2.1.037-3.6-.945T2.2,19.963q-.976-2.2-1.016-5.22-.039-2.976.879-5.05T4.58,6.545q1.6-1.076,3.588-1.111Q10.344,5.4,11.929,6.7t2.254,3.858l-1.943.586Q11.178,7.416,8.161,7.469q-1.5.026-2.593.8T3.841,10.65q-.636,1.609-.6,4.057.051,3.708,1.406,5.542t3.564,1.8q1.631-.028,2.8-1.19T12.539,17.37Zm8.183,3.272-.089-4.952-4.1.072L16.5,13.695l4.095-.071-.088-4.9,1.751-.031.09,4.9,4.095-.071.04,2.066-4.1.072.091,4.952Zm12.3-.215-.1-4.952-4.1.072-.041-2.066,4.095-.071-.1-4.9,1.751-.031.1,4.9,4.095-.071.046,2.066-4.1.072.106,4.952Z" transform="translate(744.8 264.286)"/><g transform="translate(240.737 251.234)"><g transform="translate(0 0)"><path class="b" d="M921.668-330.247c62.835-58.9,136.21-74.731,155.668-77.834-13.1-35.347-33.325-87.59-38.369-95.374a53.277,53.277,0,0,0-9.866-1.1c-14.294,0-44.541,3.107-88.8,23.021-63.907,28.76-81.051,61.152-84.412,69.064l65.775,82.219" transform="translate(-662.952 527.573)"/><path class="c" d="M1029.863-506.68a53.653,53.653,0,0,1,12.059,1.1c4.544,1.515,41.658,101.952,41.658,101.952s-87.932,9.3-161.15,80.027l-70.16-86.6s12.165-39.457,87.7-73.449C984.232-503.577,1014.246-506.68,1029.863-506.68Zm0,7.674c-13.984,0-43.007,3.4-86.6,23.021-57.818,26.017-77.3,54.839-82.219,64.679l62.487,75.642c37.145-33.815,76.457-51.558,104.144-61.39,19.635-6.972,36.408-11.421,46.043-13.155-14.481-38.912-30.888-78.782-36.177-88.8-1.718-.161-4.449,0-7.674,0" transform="translate(-663.714 526.413)"/><path class="d" d="M1002.626-429.238a4.4,4.4,0,0,0-1.1,0c-9.66,1.115-89.371,12.294-139.225,58.1-.4.361-.734.4-1.1,0a2.265,2.265,0,0,1,0-2.193c53.893-49.428,140.239-58.072,140.321-58.1.531-.054,1.044.563,1.1,1.1s.534,1.042,0,1.1" transform="translate(-594.818 560.789)"/><path class="c" d="M978.628-414.051l-32.888-62.487-32.888,65.775Z" transform="translate(-646.463 540.121)"/><path class="d" d="M982.94-413.439h-1.1l-30.7-61.39-31.791,62.487,63.583-2.193v1.1h0l-65.775,3.289c-.343.016.186.289,0,0a1.237,1.237,0,0,1,0-1.1l32.888-65.775c.165-.326.732-1.1,1.1-1.1s-.167.772,0,1.1l32.888,62.487a1.32,1.32,0,0,1,0,1.1c-.165.287-.767-.014-1.1,0h0" transform="translate(-657.352 539.508)"/><path class="d" d="M1054.607-508.484a3.749,3.749,0,0,0-1.1,0c-10.825,1.2-99.212,13.989-155.668,81.123a2.265,2.265,0,0,1-2.193,0,2.264,2.264,0,0,1,0-2.193c30.435-36.166,69.923-55.645,101.952-66.872s56.951-13.149,57.005-13.155c.533-.048,1.048-.533,1.1,0s-.563,1.048-1.1,1.1" transform="translate(-698.323 524.928)"/><path class="d" d="M954.474-300.8c5.348-3.933,8.77-6.578,8.77-6.578-1.484-1.976-24.8-27.013-38.369-47.139,0,0,27.409,55.324,29.6,53.717" transform="translate(-647.522 595.689)"/><path class="d" d="M738.718-441.253a6.644,6.644,0,0,1-2.193,2.193c-.791.572-1.258,1.1-2.193,1.1-1.771-.014-4.074-.825-7.674-1.1-.337-.027-.743,0-1.1,0a20.07,20.07,0,0,0-10.963,3.289,21.877,21.877,0,0,0-8.77,9.866,24.8,24.8,0,0,0-2.193,8.77c0,.791-.206.8,0,1.1a3.752,3.752,0,0,0,1.1,1.1,3.972,3.972,0,0,1,1.1,0c1.992.553,6.453,1.31,9.866,2.193,1.714.446,3.111,1.622,4.385,2.193.638.287.633.728,1.1,1.1s.959.443,1.1,1.1c.107.526-.571.99-1.1,1.1s-.992-.573-1.1-1.1h0c-.118-.155-.606.256-1.1,0a29.568,29.568,0,0,0-7.674-3.289c-1.6-.353-3.128-.8-4.385-1.1-.628-.149-1.721.142-2.193,0s-.753.19-1.1,0c-.57-.328-.627-1.527-1.1-2.193s-1.1-1.128-1.1-2.193c.01-1.939.385-4.306,2.193-8.77,1.889-4.645,5.873-8.414,9.866-10.963s8.1-4.381,12.059-4.385c.4,0,.708-.031,1.1,0,3.716.289,6.346,1.108,7.674,1.1.71-.008.66-.8,1.1-1.1s1.552-.026,2.193-1.1c.275-.46.637-1.372,1.1-1.1s.275,1.733,0,2.193" transform="translate(-99.6 555.264)"/><path class="e" d="M815.041-114.113l7.674-12.059,23.021,40.561-5.481,4.385-25.214-32.888" transform="translate(-372.153 699.514)"/><path class="e" d="M754.267-177.115s11.907-19.7,6.578-29.6l-39.465,4.385,32.888,25.214" transform="translate(-151.326 662.757)"/><path d="M760.448-176.088l-3.289,5.481,7.674,28.5a9.95,9.95,0,0,1-3.289,9.866l-36.177-52.62c-3.444-5.089-2.31-12.263,2.193-16.444l7.674-7.674,25.214,32.888" transform="translate(-157.507 661.73)"/><path class="f" d="M723.966-408.537c-11.351-.27-25.9-1.237-23.021-9.866s13.916-29.495,38.369-23.021c0,0,8.594,6.788-2.193,19.733s-13.155,13.155-13.155,13.155" transform="translate(-102.388 555.435)"/><path class="g" d="M798.906-154s19.683-57.1,3.289-82.219c-13.531-20.729-58.623,13-64.679,17.54l-30.7-57.005s7.285-9.71,25.214-19.733S823.3-336.079,858.1-281.166c12.863,20.295,13.707,108.04-10.963,141.417L798.906-154" transform="translate(-234.334 614.428)"/><path class="d" d="M806.8-175.667s-.26-.28,0-1.1c1.819-5.705,9.872-30.5,9.866-52.62.006-10.693-1.865-20.2-6.578-27.406-1.478-2.257-3.358-4.483-5.481-5.481s-5-1.1-7.674-1.1c-8.888-.019-19.984,5.374-29.6,10.963A203.739,203.739,0,0,0,747.6-239.25c-.429.322-.774.429-1.1,0s-.429-1.871,0-2.193A201.363,201.363,0,0,1,766.237-254.6c9.76-5.643,21.105-10.943,30.7-10.963a22.559,22.559,0,0,1,8.77,2.193c2.44,1.14,3.825,2.939,5.481,5.481,5.036,7.73,6.572,17.612,6.578,28.5-.01,25.74-8.76,54.76-8.77,54.813-.173.506-.59.171-1.1,0s-1.267-.59-1.1-1.1" transform="translate(-243.322 636.095)"/><path class="g" d="M837.735-287.384c14.386,15.144,56.184,88.621,65.775,123.877,12.828,47.161,8.026,86.756-62.487,163.342L807.04-49.5s24.207-36.953,19.733-71.257c-6.471-49.626-41.329-97.742-59.2-128.262l70.16-38.369" transform="translate(-365.249 626.127)"/><path class="d" d="M894.634-282.824l-57.005,43.85-17.54-25.214Z" transform="translate(-427.628 628.145)"/><path class="e" d="M1067.941-315.314c-8.841,1.895-16.2,5.024-20.829,9.866s-2.779,8.392-1.1,9.866,8.567-.428,14.251-5.481,7.674-14.251,7.674-14.251" transform="translate(-926.524 613.495)"/><path class="e" d="M1108.553-307.374c-1.484-1.976-24.8-27.013-38.369-47.139,0,0-41.594,46.752-46.043,48.235-1.654.551-11.629.128-24.118,0-21.109-.219-48.6-.912-54.813,2.193-9.886,4.943-16.164,7.33-18.636,14.251s-3.724,11.634,2.193,12.059c6.919.495,10.963-8.77,10.963-8.77s6.218,4.382,20.829,9.866c0,0,52.563,19.737,87.7,9.866,9.6-2.694,60.294-40.561,60.294-40.561" transform="translate(-792.831 595.689)"/><path class="e" d="M883.525-447.534c4.511,1.718,8.092,3.322,5.481,7.674s-4.517,2.772-12.059,2.193-18.155,4.968-21.925,14.251-2.031,10.9,0,12.059,15.862,2.58,16.444,5.481-5.292,11.542-18.636,10.963l-3.289-1.1s-27.729,27.731-31.791,31.791-33.986,24.393-50.428,28.5c-12.5,3.124-38.5-.32-53.717-3.289a75.167,75.167,0,0,1-12.059-3.289S712.378-362.2,714.7-393.817c0,0,27.893,3.691,46.043,7.674,0,0,41.892-23.543,62.487-33.984,0,0,17.9-22.311,26.31-25.214s27.893-4.514,33.984-2.193" transform="translate(-249.888 552.774)"/><path class="d" d="M828.656-356.96a75.179,75.179,0,0,1-12.059-3.289s14.125-17.714,16.444-49.332c0,0,6.326,7.3,4.385,25.214-2.442,22.507-8.77,27.406-8.77,27.406" transform="translate(-364.94 570.73)"/><path class="h" d="M975.955-410.052s-.611,38.693-10.963,54.813l-3.289-1.1s48.9,56.988,64.679,94.278c2.581,6.1-100.858,72.188-116.2,71.257,0,0-50.66-76.864-67.968-99.759l-18.636,14.251s-36.41-37.307-38.369-50.428c0,0,34.75-42.256,63.583-54.813s54.538-34.568,85.508-33.984c26.809.5,41.658,5.481,41.658,5.481" transform="translate(-507.853 567.913)"/><path class="d" d="M912.053-312.688l18.636-14.251-3.289-8.77Z" transform="translate(-596.331 604.292)"/><path class="e" d="M883.547-413.9c3.258,10.129,12.53,39.137,23.021,42.754s20.829-1.1,20.829-1.1l12.059,5.481c1.247,3.741,9.438,7.236,20.829,7.674,8.432.324,13.46-10.8,10.963-18.636-1.144-3.6-5.481-20.829-5.481-20.829s-8.122-33.689-16.444-40.561-16.16-13.362-38.369-4.385c-34.005,13.748-27.406,29.6-27.406,29.6" transform="translate(-596.327 553.128)"/><path class="f" d="M968.49-406.3c1.491,6.221,7.829,18.684,12.059,16.444s6.273-7.689,3.289-18.636-4.694-36.082-13.155-40.561h0s-3.3-8.476-14.251-10.963a13.712,13.712,0,0,0-8.77-2.193s-1.662-.4-15.348,1.1-20.829,13.155-20.829,13.155,1.834-1.1-4.385-1.1-17.585,6.243-15.348,16.444c0,0,8.465-15.985,0-3.289s-5.027,14.186,0,17.54c21.332,5.723,8.824,5.427,12.059,2.193s6.692-6.672,18.636-2.193,25.214-8.77,25.214-8.77,1.3,16.047,3.289,17.54,6.474,3.079,5.481-4.385-2.939-6.78-2.193-8.77,4.975-7.725,12.059-2.193c7.961,6.221,2.193,18.636,2.193,18.636" transform="translate(-614.399 546.617)"/><path class="f" d="M907.283-414.4c3.056-2.562,5.491-6.783,5.481-10.963a14.129,14.129,0,0,0-2.193-6.578c-2.643-4.454-6.238-5.491-8.77-5.481a2.4,2.4,0,0,0-2.193,1.1,8.269,8.269,0,0,0-2.193,5.481,15.842,15.842,0,0,0,1.1,5.481c.184.5-.594.91-1.1,1.1s-.91.5-1.1,0a19.79,19.79,0,0,1-1.1-6.578,9.764,9.764,0,0,1,2.193-6.578,6.042,6.042,0,0,1,4.385-2.193c3.38.01,8.017,2.731,10.963,7.674,1.427,2.4,1.1,4.25,1.1,6.578a15.585,15.585,0,0,1-5.481,12.059c-.409.345-.753.409-1.1,0s-.409-.751,0-1.1" transform="translate(-556.481 556.916)"/><path d="M853.032-84.851l-3.289,5.481,7.674,28.5A9.96,9.96,0,0,1,854.128-41L817.952-94.717c-3.442-5.091-2.312-11.166,2.193-15.348l7.674-7.674,25.214,32.888" transform="translate(-384.931 703.14)"/><path class="d" d="M883.646-267.166,783.887-407.486c-.312-.436-.434-.784,0-1.1s.784-.436,1.1,0L885.839-268.262c.312.436.434.784,0,1.1s-1.88.436-2.193,0" transform="translate(-365.117 570.829)"/><path class="d" d="M919.244-401.788a12.816,12.816,0,0,1,2.193,4.385,20,20,0,0,1,1.1,5.481,19.488,19.488,0,0,1-3.289,10.963,15.859,15.859,0,0,1-12.059,6.578,32.616,32.616,0,0,1-3.289,0c-14.62,0-24.021-5.417-24.118-5.481-.442-.3-.3-1.752,0-2.193s.656-.3,1.1,0h0a42.893,42.893,0,0,0,23.021,6.578c1.263,0,1.943-.99,3.289-1.1,5.033-.411,7.886-2.584,9.866-5.481a17.852,17.852,0,0,0,3.289-9.866,21.674,21.674,0,0,0-1.1-5.481,9.452,9.452,0,0,0-1.1-3.289c-.326-.425-.425-.77,0-1.1s.771-.423,1.1,0" transform="translate(-541.035 573.9)"/><path class="d" d="M742.948-445.156a9.134,9.134,0,0,0-2.193,2.193c-1.65,2.255-3.214,6.426-5.481,9.866s-4.884,5.853-5.481,7.674c-.169.508-.588,1.267-1.1,1.1s-1.265-.588-1.1-1.1c.506-1.5,1.941-3.263,3.289-5.481,4.032-6.623,10.955-15.334,10.963-15.348.324-.427.668-.322,1.1,0s.324.668,0,1.1" transform="translate(-142.199 553.686)"/><path class="d" d="M1050.745-301.417c-.115.1-2.855,2.194-8.77,2.193-3.823,0-9.231-1.113-15.348-4.385-2.061-1.084-3.3-2.609-3.289-4.385a6.437,6.437,0,0,1,2.193-4.385c1.21-1.041,2.407-1.1,4.385-1.1a17.411,17.411,0,0,1,3.289,0c1.652.415,2.68,1.1,4.385,1.1a30.487,30.487,0,0,0,6.578-1.1c.9-.18,1.686.134,2.193,0,.252-.066.964-1.057,1.1-1.1h0c.51-.161.935.584,1.1,1.1s.51.935,0,1.1a63.841,63.841,0,0,1-10.963,1.1c-1.825,0-3.629.461-5.481,0a9.309,9.309,0,0,0-2.193,0,4.549,4.549,0,0,0-3.289,1.1,2.585,2.585,0,0,0-1.1,2.193,3.962,3.962,0,0,0,2.193,3.289,28.079,28.079,0,0,0,14.251,3.289,12.858,12.858,0,0,0,5.481-1.1c.653-.27.784.192,1.1,0h1.1v-1.1h0v0h0v0c.413-.341.757.683,1.1,1.1s.413.755,0,1.1" transform="translate(-879.729 613.851)"/><path class="d" d="M1054.585-313.075h0a43.139,43.139,0,0,0-4.385,5.481c-1.515,2.434-3.312,4.72-3.289,6.578h0c.02.535.535,1.077,0,1.1s-1.077.535-1.1,0v-1.1a10.48,10.48,0,0,1,1.1-4.385,84.918,84.918,0,0,1,5.481-9.866,2.27,2.27,0,0,1,2.193,0,2.26,2.26,0,0,1,0,2.193" transform="translate(-915.36 613.45)"/><path class="d" d="M986.233-310.971h0a20.787,20.787,0,0,0-4.385-5.481c-2.591-2.085-6.184-4.129-9.866-4.385a1.2,1.2,0,0,1-1.1-1.1c.037-.533.563-.039,1.1,0a18.78,18.78,0,0,1,10.963,4.385,54.838,54.838,0,0,1,5.481,5.481c.32.429-.668.776-1.1,1.1s-.774.427-1.1,0" transform="translate(-740.671 610.249)"/><path class="d" d="M794.633-390.088v-1.1a35.347,35.347,0,0,0-4.385-6.578,16.936,16.936,0,0,0-10.963-6.578c-.528-.093-1.191-.569-1.1-1.1s.569-1.191,1.1-1.1c6.516,1.162,10.535,5.339,13.155,8.77a58.994,58.994,0,0,1,4.385,6.578c.165.51-.586.933-1.1,1.1s-.933.51-1.1,0" transform="translate(-268.43 572.067)"/><path class="d" d="M768.63-269.974l14.251,28.5v0A293.8,293.8,0,0,1,801.518-204.2c8.967,21.578,17.534,48.817,17.54,74.545,0,8.731-.844,17.337-3.289,25.214-.159.512-.584,1.255-1.1,1.1s-1.255-.586-1.1-1.1c2.374-7.648,3.289-16.636,3.289-25.214.006-25.28-8.619-53.1-17.54-74.545-4.46-10.724-8.714-19.856-12.059-26.31-1.672-3.227-3.411-4.83-4.385-6.578-.487-.875-.837-1.739-1.1-2.193a1.453,1.453,0,0,1,0-1.1h0l-15.348-28.5c-.248-.473.621-.848,1.1-1.1s.85-.475,1.1,0" transform="translate(-274.218 633.931)"/><path class="d" d="M971.683-131.855l-48.235-82.219,1.1-1.1-1.1,1.1s-16.3-23.729-32.888-48.235c-8.3-12.254-16.191-24.674-23.021-35.08-3.415-5.2-6.42-9.406-8.77-13.155s-4.638-7.087-5.481-8.77h0l-21.925-40.562c-.254-.471-.471-1.938,0-2.193s1.937.625,2.193,1.1l21.925,40.561h0a72.6,72.6,0,0,0,4.385,8.77c8.188,13.061,24.239,37.313,38.369,58.1,7.067,10.4,13.85,19.331,18.636,26.31,2.393,3.491,4.128,6.8,5.481,8.77s2.191,3.285,2.193,3.289h0l48.235,82.219c.27.462.463.825,0,1.1s-.827.462-1.1,0" transform="translate(-522.217 592.282)"/><path class="d" d="M900.15-304.976c-.008.006-21.431,15.789-46.043,31.791-12.307,8-24.537,15.628-36.176,21.925-11.655,6.295-21.861,11.256-28.5,12.059-.531.062-1.034-.565-1.1-1.1s-.532-1.034,0-1.1c6.058-.7,16.958-4.7,28.5-10.963,17.347-9.386,37.337-22.86,53.717-33.984,8.192-5.564,15.771-10.668,20.829-14.251,2.527-1.792,4.1-3.39,5.481-4.385a5.514,5.514,0,0,1,2.193-1.1c.432-.314,1.876-.432,2.193,0s-.662.782-1.1,1.1" transform="translate(-387.101 617.409)"/><path class="d" d="M830.9-411.471h0a178.83,178.83,0,0,1-1.1,21.925c-1.34,11.756-4.491,25.775-9.866,33.984-.293.448-.648.295-1.1,0s-.295-.65,0-1.1c5.036-7.625,7.471-21.266,8.77-32.888a181.6,181.6,0,0,0,1.1-21.925h0a1.2,1.2,0,0,1,1.1-1.1,1.2,1.2,0,0,1,1.1,1.1" transform="translate(-361.7 569.332)"/><path class="d" d="M923.923-358.877c.613,3.76,2.879,8.862,6.578,14.251a216.253,216.253,0,0,0,19.733,24.118c3.206,3.4,6.716,6.732,8.77,8.77,1.028,1.02,1.623,1.64,2.193,2.193s1.094,1.1,1.1,1.1a.671.671,0,0,1,0,1.1.671.671,0,0,1-1.1,0,224.623,224.623,0,0,1-18.636-18.636A188.365,188.365,0,0,1,929.4-343.53c-3.762-5.511-6.943-9.936-7.674-14.251-.087-.529.569-1.009,1.1-1.1s1.007-.529,1.1,0" transform="translate(-643.281 593.476)"/><path class="d" d="M762.33-222.638c0,2.808,1.577,5.481,4.385,5.481a5.787,5.787,0,0,0,5.481-5.481c0-2.808-2.671-4.385-5.481-4.385s-4.385,1.577-4.385,4.385" transform="translate(-220.779 653.467)"/><path class="d" d="M1274.391-375.015c4.468-3.941,8.435-6.576,13.155-6.578,5.054-.012,9.806,2.731,13.155,7.674s5.48,12.013,5.481,21.925c-.008,19.053-7.492,48.226-28.5,87.7S1222-175.487,1168.054-113.009c-36.435,42.2-70.309,72.046-99.759,90.989s-53.476,27.4-72.353,27.406c-9.567,0-17.984-2.443-24.118-6.578s-10.048-9.909-12.059-17.54C957.138-28.674,955.38-38,955.38-46.138c0-18.914,5.887-32.339,13.155-41.658a51.385,51.385,0,0,1,12.059-10.963c3.646-2.325,6.176-3.277,8.77-3.289a5.336,5.336,0,0,1,3.289,1.1,4.271,4.271,0,0,1,1.1,3.289,7.519,7.519,0,0,1-1.1,4.385c-1.074,1.918-3.189,4.047-5.481,6.578-11.673,12.877-29.2,22.852-50.428,29.6s-46.229,9.864-72.353,9.866c-40.626,0-83.585-7.806-121.684-26.31-18.891-9.177-31.918-20.076-39.465-30.7a53.267,53.267,0,0,1-9.866-31.791c0-13.022,4.976-24.017,9.866-32.888,2.446-4.437,4.454-8.234,6.578-10.963a42.447,42.447,0,0,1,3.289-3.289c.8-.861.611-1.843,1.1-2.193.436-.308,1.882-.436,2.193,0s-.658.786-1.1,1.1c-.26.18-.353,1.388-1.1,2.193a78.271,78.271,0,0,0-12.059,17.54,63.06,63.06,0,0,0-6.578,28.5,51.92,51.92,0,0,0,9.866,30.7c7.313,10.29,18.6,20.525,37.273,29.6C780.49-57.379,824.034-48.328,864.391-48.33a244.268,244.268,0,0,0,72.353-10.963c21-6.669,37.987-15.979,49.332-28.5a32,32,0,0,0,4.385-6.578c.979-1.74,2.2-2.389,2.193-3.289a3.942,3.942,0,0,0-1.1-2.193c-.361-.3-1.256,0-2.193,0-1.98-.012-4.247,1.084-7.674,3.289-10.319,6.611-24.12,22.694-24.118,50.428a108.08,108.08,0,0,0,3.289,27.406A28.292,28.292,0,0,0,972.92-2.287c5.74,3.871,13.744,5.481,23.021,5.481,18.3.008,42.008-7.492,71.257-26.31s63.419-48.9,99.759-90.989c53.875-62.4,88.7-111.984,109.626-151.283s28.508-68.059,28.5-86.6c0-9.65-2.419-16.337-5.481-20.829a14.57,14.57,0,0,0-12.059-6.578c-4.131,0-7.86,1.775-12.059,5.481a2.26,2.26,0,0,1-2.193,0c-.353-.4.695-.741,1.1-1.1" transform="translate(-655.006 583.303)"/><path class="d" d="M1078.179-168.827c0,2.808,2.671,4.385,5.481,4.385s4.385-1.577,4.385-4.385-1.575-5.481-4.385-5.481a5.787,5.787,0,0,0-5.481,5.481" transform="translate(-997.056 677.49)"/><path class="d" d="M714.392-372.414c0,2.808,1.577,5.481,4.385,5.481a5.788,5.788,0,0,0,5.481-5.481,5.788,5.788,0,0,0-5.481-5.481c-2.808,0-4.385,2.673-4.385,5.481" transform="translate(-102.681 585.088)"/><path class="i" d="M799.143-443.036a11,11,0,0,0,10.963,10.963,11,11,0,0,0,10.963-10.963A11,11,0,0,0,810.105-454a11,11,0,0,0-10.963,10.963" transform="translate(-323.367 550.469)"/><path class="c" d="M672.531-503.755c2.649,0,4.385,2.832,4.385,5.481a4.124,4.124,0,0,1-4.385,4.385c-2.649,0-5.481-1.736-5.481-4.385a6.049,6.049,0,0,1,5.481-5.481" transform="translate(12.629 527.872)"/><path class="j" d="M1109.156-96.044c0,2.649,1.736,5.481,4.385,5.481a6.051,6.051,0,0,0,5.481-5.481c0-2.649-2.834-4.385-5.481-4.385a4.124,4.124,0,0,0-4.385,4.385" transform="translate(-1071.884 711.044)"/><path class="f" d="M1130-221.857l52.62-24.118c4.16-1.953,3.11-8.014-1.1-9.866l-95.374-42.754a5.64,5.64,0,0,0-4.385,0l-65.775,28.5L1130-221.857" transform="translate(-1002.837 620.894)"/><path class="k" d="M1168.663-283.5c-.13,21.336-3.289,80.027-3.289,80.027l-114.011-48.235,2.193-81.123c.157-4.968,5.345-7.543,9.866-5.481l98.663,44.947a10.479,10.479,0,0,1,6.578,9.866" transform="translate(-1038.209 602.513)"/><path class="d" d="M1167.882-202.057l-114.011-48.235c-.37-.155-1.11-.695-1.1-1.1l2.193-81.123h0a8.683,8.683,0,0,1,1.1-3.289,13.5,13.5,0,0,1,3.289-3.289,4.6,4.6,0,0,1,3.289-1.1,21.638,21.638,0,0,1,4.385,1.1c.512.153.153.582,0,1.1s-.582.153-1.1,0a10.576,10.576,0,0,0-3.289,0c-1.34,0-1.442.584-2.193,1.1a6.821,6.821,0,0,0-2.193,3.289c-.188.524-1.032.757-1.1,1.1h0l-2.193,80.027,114.011,48.235c.495.207.208.6,0,1.1s-.6,1.3-1.1,1.1" transform="translate(-1040.716 602.191)"/><path class="d" d="M1098.725-279.706l-7.674-18.636c-.21-.493-.493-.889,0-1.1s1.983.6,2.193,1.1l7.674,17.54c.21.493-.6.889-1.1,1.1s-.887.493-1.1,0" transform="translate(-1027.469 620.641)"/><path class="d" d="M1104.107-279.706l-7.674-18.636c-.209-.493-.492-.889,0-1.1s1.985.6,2.193,1.1l7.674,17.54c.208.493-.6.889-1.1,1.1s-.889.493-1.1,0" transform="translate(-1040.525 620.641)"/><path class="i" d="M681.128-151.062a6.045,6.045,0,0,0,5.481,5.481c2.649,0,4.385-2.83,4.385-5.481a4.125,4.125,0,0,0-4.385-4.385c-2.651,0-5.481,1.738-5.481,4.385" transform="translate(-22.278 686.035)"/><path class="i" d="M958.48-133.788a6.518,6.518,0,0,0,6.578,6.578,6.516,6.516,0,0,0,6.578-6.578,6.516,6.516,0,0,0-6.578-6.578,6.518,6.518,0,0,0-6.578,6.578" transform="translate(-705.245 692.879)"/><path class="j" d="M1034.469-355.694h16.444v-17.54h-16.444v17.54" transform="translate(-895.244 587.004)"/><path class="c" d="M1038.587-212.82l-4.385,8.77-5.481,9.866h20.829l-5.481-9.866-5.481-8.77" transform="translate(-885.111 660.092)"/><path class="d" d="M840.09-468.74h-1.1L837.9-509.3h0a5.251,5.251,0,0,0-1.1-3.289,3.823,3.823,0,0,0-2.193-1.1,192.308,192.308,0,0,0-40.561-4.385,143.54,143.54,0,0,0-40.562,5.481A5.82,5.82,0,0,0,750.2-510.4c-.454.657,0,1.273,0,2.193,0,.295-.01.778,0,1.1h0l1.1,38.369a2.59,2.59,0,0,0,1.1,2.193,5.407,5.407,0,0,0,3.289,1.1,9.833,9.833,0,0,0,1.1,0,251.766,251.766,0,0,1,35.08-2.193c1.445,0,2.934-.012,4.385,0,15.223.13,28.812,1.45,38.369,3.289a6.072,6.072,0,0,0,1.1,0,2.531,2.531,0,0,0,2.193-1.1c.456-.663,1.1-.979,1.1-2.193v-1.1h2.193v1.1a5.008,5.008,0,0,1-1.1,3.289,5.866,5.866,0,0,1-4.385,2.193,4.711,4.711,0,0,1-1.1,0c-9.373-1.805-23.237-3.163-38.369-3.289-1.447-.012-2.944,0-4.385,0a253.585,253.585,0,0,0-35.08,2.193,7.384,7.384,0,0,1-1.1,0c-1.664,0-3.22-1.24-4.385-2.193s-2.142-1.706-2.193-3.289L748-507.109h0c-.01-.31,0-.751,0-1.1a5.674,5.674,0,0,1,1.1-3.289,8.336,8.336,0,0,1,4.385-3.289,141.58,141.58,0,0,1,40.562-5.481,190.139,190.139,0,0,1,40.561,4.385,6.6,6.6,0,0,1,3.289,2.193c.853,1,1.1,2.545,1.1,4.385h0l2.193,40.561h-1.1" transform="translate(-268.941 520.264)"/><path class="d" d="M1007.409-121.248h0l-14.251,26.31h0c-.58.909,0,1.749,0,2.193a3.621,3.621,0,0,0,1.1,2.193c6.07,5.625,23.559,21.871,50.428,28.5.615.152,1.791,1.1,2.193,1.1.84-.011.744-.783,1.1-1.1a3.7,3.7,0,0,0,1.1-1.1l13.155-25.214c.169-.314,1.094-.749,1.1-1.1a3.892,3.892,0,0,0-2.193-3.289,199.918,199.918,0,0,1-26.31-13.155,161.868,161.868,0,0,1-23.021-16.444c-.57-.494-1.842,0-2.193,0s-.71-.31-1.1,0a3.306,3.306,0,0,0-1.1,1.1h0l-1.1-1.1c.413-.762.457-.575,1.1-1.1a3.592,3.592,0,0,1,2.193-1.1,5.741,5.741,0,0,1,3.289,1.1A164,164,0,0,0,1035.911-107c9.258,5.525,17.967,10.225,25.214,13.155a4.774,4.774,0,0,1,3.289,4.385c0,.649.326,1.589,0,2.193L1051.259-62.05c-.316.578-1.531.474-2.193,1.1s-.957,1.108-2.193,1.1a8.794,8.794,0,0,1-2.193,0c-27.412-6.769-46.5-23.936-52.62-29.6a4.322,4.322,0,0,1-1.1-3.289,6.6,6.6,0,0,1,1.1-3.289l1.1,1.1-1.1-1.1,14.251-26.31,1.1,1.1" transform="translate(-846.259 700.071)"/><path class="b" d="M1053.662-424.833l-58.1,43.85c-1.266.97-3.435,1.284-4.385,0l-8.77-12.059c-.908-1.233-.1-3.427,1.1-4.385l57.005-44.947c1.272-1.018,3.429-1.319,4.385,0l8.77,13.155c.908,1.253,1.229,3.446,0,4.385" transform="translate(-823.448 555.288)"/><path class="d" d="M1053.942-424.5v1.1l-57.005,43.85a3.9,3.9,0,0,1-2.193,1.1c-1.168,0-2.538-1.178-3.289-2.193l-8.77-12.059a4.118,4.118,0,0,1-1.1-2.193,2.173,2.173,0,0,1,1.1-2.193l57.005-46.043a7.05,7.05,0,0,1,3.289-1.1c1.177,0,1.444,1.159,2.193,2.193l9.866,13.155a4.223,4.223,0,0,1,1.1,2.193c0,1.148-1.211,2.538-2.193,3.289v-1.1l-1.1-1.1c.485-.372,1.094-.526,1.1-1.1,0-.384.245-.759,0-1.1l-9.866-13.155c-.371-.512-.51-1.094-1.1-1.1a7.31,7.31,0,0,0-2.193,1.1L984.878-396c-.464.372-1.094.538-1.1,1.1,0,.39-.25.757,0,1.1l8.77,12.059a3.8,3.8,0,0,0,2.193,1.1c.4,0,.751.264,1.1,0l57.005-44.947,1.1,1.1" transform="translate(-823.728 554.954)"/><path class="i" d="M1008.382-428.425l-14.251,9.866-7.674-9.866,13.155-12.059,8.77,12.059" transform="translate(-782.553 556.687)"/><path class="j" d="M1020.475-419.17l-13.155,10.963-7.674-9.866,14.251-10.963,6.578,9.866" transform="translate(-814.378 561.683)"/><path class="c" d="M1032.684-408.571l-14.251,9.866-6.578-8.77,13.155-10.963,7.674,9.866" transform="translate(-845.224 566.432)"/><path class="b" d="M1106.945-469.988,1093.79-360.362c-.287,2.428-3.059,4.717-5.481,4.385l-21.925-3.289c-2.325-.318-4.614-2.048-4.385-4.385l10.963-111.818c.243-2.486,3.013-3.651,5.481-3.289l24.118,3.289c2.345.343,4.666,3.131,4.385,5.481" transform="translate(-991.838 539.052)"/><path class="d" d="M1107.258-469.678h1.1L1095.2-358.956a5.253,5.253,0,0,1-5.481,4.385c-.241,0-.852.035-1.1,0L1066.7-357.86c-2.667-.366-5.481-2.84-5.481-5.481h1.1l9.866-111.818c.273-2.773,2.776-4.385,5.481-4.385a9.863,9.863,0,0,1,1.1,0l24.118,3.289c2.651.39,5.481,2.863,5.481,5.481,0,.209.025.881,0,1.1h-1.1l-1.1-1.1h0a3.692,3.692,0,0,0-3.289-3.289l-24.118-3.289h-1.1c-1.714,0-3.118.426-3.289,2.193l-10.963,111.818h0a3.659,3.659,0,0,0,3.289,3.289l21.925,3.289h1.1a3.591,3.591,0,0,0,3.289-3.289l13.155-110.722h0l1.1,1.1" transform="translate(-992.151 538.742)"/><path class="i" d="M1091.357-470.189l-4.385,26.31-19.733-2.193,2.193-27.406,21.925,3.289" transform="translate(-982.828 541.445)"/><path class="j" d="M1091.394-445.628l-2.193,26.31-18.636-1.1,3.289-27.406,17.54,2.193" transform="translate(-989.442 553.061)"/><path class="c" d="M1094.153-420.88l-4.385,26.31-16.444-2.193,1.1-26.31,19.733,2.193" transform="translate(-994.394 564.49)"/><path class="b" d="M1108.673-452.672,1072.5-345.238a3.409,3.409,0,0,1-4.385,2.193l-23.021-8.77a3.579,3.579,0,0,1-2.193-4.385l33.984-107.433a3.326,3.326,0,0,1,4.385-2.193l25.214,8.77a3.541,3.541,0,0,1,2.193,4.385" transform="translate(-965.063 544.757)"/><path class="d" d="M1108.978-452.28h1.1L1072.8-344.847c-.63,1.852-1.441,3.289-3.289,3.289a9.012,9.012,0,0,1-2.193,0l-23.021-8.77c-1.807-.652-2.193-2.556-2.193-4.385,0-.446-.14-.654,0-1.1l33.984-108.529a4.8,4.8,0,0,1,4.385-3.289c.514,0,.59.908,1.1,1.1l25.214,8.77a5.123,5.123,0,0,1,3.289,4.385c0,.475.161.623,0,1.1h-2.193a4.324,4.324,0,0,0,0-1.1c0-1.02-.088-1.82-1.1-2.193l-25.214-9.866a3.778,3.778,0,0,0-1.1,0c-1.059,0-1.855,1.12-2.193,2.193L1044.3-354.714c-.079.252,0-.25,0,0,0,1.03.076,1.828,1.1,2.193l23.021,8.77a3.992,3.992,0,0,0,1.1,0c1.042,0,1.839-.051,2.193-1.1l36.176-107.433h1.1" transform="translate(-965.369 544.366)"/><path class="c" d="M1075.992-452.957l-8.77,24.118-19.733-5.481,7.674-26.31,20.829,7.674" transform="translate(-940.056 547.235)"/><path class="l" d="M1082.023-430.1l-7.674,25.214-17.54-4.385,7.674-27.406,17.54,6.578" transform="translate(-959.242 558.366)"/><path class="j" d="M1089.7-406.017l-9.866,24.118-15.348-4.385,6.578-26.31,18.636,6.578" transform="translate(-976.781 569.359)"/><path class="j" d="M669.412-420.575l3.289-3.289,9.866,8.77-3.289,3.289a2.977,2.977,0,0,1-4.385,0l-4.385-4.385c-1.342-1.226-2.322-3.045-1.1-4.385" transform="translate(4.786 564.185)"/><path class="d" d="M672.111-435.5v1.1l-13.155,15.348c-.165.18,0-.227,0,0,0,.256-.2.91,0,1.1l8.77,8.77c.18.165.871,0,1.1,0,.256,0,.91.2,1.1,0l13.155-15.348c.165-.182,0-.869,0-1.1,0-.256.2.186,0,0l-9.866-8.77c-.18-.165.227,0,0,0-.256,0-.91-.2-1.1,0v-1.1h-1.1a3.211,3.211,0,0,1,2.193-1.1,4.02,4.02,0,0,1,2.193,1.1l8.77,8.77c.617.564,1.1.321,1.1,1.1a4.007,4.007,0,0,1-1.1,2.193l-13.155,15.348a3.215,3.215,0,0,1-2.193,1.1,4.02,4.02,0,0,1-2.193-1.1l-8.77-8.77a3.216,3.216,0,0,1-1.1-2.193c0-.688-.5-1.646,0-2.193L671.014-435.5h1.1" transform="translate(19.627 558.281)"/><path class="i" d="M636.015-365.427h17.54v-15.348h-17.54v15.348" transform="translate(82.033 583.582)"/><path class="d" d="M629.569-387.19v8.77h9.866a1.2,1.2,0,0,1,1.1,1.1,1.2,1.2,0,0,1-1.1,1.1h-9.866c-.256,0-.916-.916-1.1-1.1s0,.256,0,0v-9.866a1.2,1.2,0,0,1,1.1-1.1c.535,0,0,.561,0,1.1" transform="translate(106.019 580.131)"/><path class="c" d="M1025.672-487.576h17.54v-15.348h-17.54v15.348" transform="translate(-874.388 528.137)"/><path class="d" d="M1019.225-509.339v8.77h9.866a1.2,1.2,0,0,1,1.1,1.1,1.2,1.2,0,0,1-1.1,1.1h-9.866c-.256,0-.916.18-1.1,0s0-.84,0-1.1v-9.866a1.2,1.2,0,0,1,1.1-1.1c.535,0,0,.561,0,1.1" transform="translate(-850.401 524.686)"/><path class="d" d="M665.826-430.357c32.493-13.468,63.748-19.733,90.989-19.733,27.945,0,52.148,6.142,69.064,18.636s26.324,30.585,26.31,53.717c-.008,27.67-14.381,62.326-47.139,101.952s-83.973,85.112-158.957,133.743c-26.752,17.328-67.906,23-67.968,23.021-.529.079-1.017-.567-1.1-1.1s.565-1.019,1.1-1.1a6.962,6.962,0,0,0,2.193,0c8.073-1.369,41.764-8.145,64.679-23.021,74.868-48.554,126.37-93.233,158.957-132.647S850.005-350.741,850-377.736c-.014-22.573-9.844-39.339-26.31-51.524s-39.227-19.733-66.872-19.733c-26.94,0-57.608,6.35-89.893,19.733-.495.206-1.987.495-2.193,0s.6-.891,1.1-1.1" transform="translate(-32.19 552.041)"/><path class="d" d="M588.886-431.23a5.788,5.788,0,0,0,5.481,5.481,5.788,5.788,0,0,0,5.481-5.481,5.788,5.788,0,0,0-5.481-5.481,5.788,5.788,0,0,0-5.481,5.481" transform="translate(203.708 558.395)"/><path class="b" d="M642.952-190.327,628.7-119.07a2.715,2.715,0,0,1-3.289,2.193l-14.251-2.193a2.849,2.849,0,0,1-2.193-3.289l12.059-72.353a2.65,2.65,0,0,1,3.289-2.193l16.444,3.289a2.82,2.82,0,0,1,2.193,3.289" transform="translate(132.101 667.198)"/><path class="d" d="M643.265-190.016h0L630.11-117.664c-.357,1.831-2.589,2.193-4.385,2.193-.264,0,.266.056,0,0l-14.251-2.193a4.837,4.837,0,0,1-3.289-4.385c0-.215-.037.217,0,0L620.244-194.4c.324-1.869,2.562-3.289,4.385-3.289.275,0-.279-.062,0,0l16.444,3.289a4.888,4.888,0,0,1,3.289,4.385c0,.24-1.048-.244-1.1,0h-1.1c0-.865-1.316-2-2.193-2.193L624.629-195.5h0c-.892,0-2.035.175-2.193,1.1l-12.059,72.353h0c0,.871.214,2.006,1.1,2.193l14.251,3.289h0c.878,0,2.022-1.293,2.193-2.193l14.251-71.257h1.1" transform="translate(131.788 666.888)"/><path class="i" d="M627.967-190.843l-3.289,17.54-13.155-2.193,3.289-17.54,13.155,2.193" transform="translate(141.605 668.81)"/><path class="j" d="M630.777-174.154l-3.289,17.54-12.059-2.193,3.289-18.636,12.059,3.289" transform="translate(134.41 676.24)"/><path class="c" d="M632.543-158.588l-3.289,17.54-10.963-2.193,2.193-17.54,12.059,2.193" transform="translate(128.259 683.695)"/><path class="d" d="M879.156-74.529l-2.193,5.481c-.163.512-.586,1.259-1.1,1.1s-.163-.586,0-1.1l1.1-5.481c.163-.511.586-1.259,1.1-1.1s1.259.586,1.1,1.1" transform="translate(-492.177 722.416)"/><path class="d" d="M879.654-70.712l-4.385-1.1a2.79,2.79,0,0,1-1.1-2.193c.174-.506.588-.174,1.1,0l5.481,1.1c.508.173.174,1.687,0,2.193s-.59.173-1.1,0" transform="translate(-492.676 722.985)"/><path class="d" d="M878.069-60.07,874.78-50.2c-.161.512-.584,1.258-1.1,1.1s-.161-.586,0-1.1l3.289-10.963c.161-.51.586-.163,1.1,0s.161.584,0,1.1" transform="translate(-488.898 728.787)"/><path class="d" d="M881.307-54.6l-8.77-2.193c-.51-.163-1.259-.586-1.1-1.1s.586-1.259,1.1-1.1l8.77,3.289c.51.163,1.259.586,1.1,1.1s-.586.163-1.1,0" transform="translate(-489.944 729.898)"/><path class="d" d="M870.708-71.35,866.323-58.2c-.159.512-.586.159-1.1,0s-1.257-.584-1.1-1.1l4.385-13.155c.161-.511.584-.159,1.1,0s1.255.584,1.1,1.1" transform="translate(-467.286 723.623)"/><path class="d" d="M874.136-63.939l-12.059-4.385c-.51-.163-1.259-.586-1.1-1.1s1.682-.164,2.193,0l12.059,3.289c.512.163.163.586,0,1.1s-.584,1.259-1.1,1.1" transform="translate(-468.521 724.982)"/><path class="j" d="M688.223-265.173c26.132-18.815,51.823-48.9,40.561-78.93,0,0-18.608-11.727-47.139,3.289s-28.5,15.348-28.5,15.348l35.08,60.294" transform="translate(-21.699 598.435)"/><path class="b" d="M677.164-145.883c11.758-5.558,61.23-32.078,70.16-76.738,7.718-38.588-21.393-89.932-36.177-112.914.95,30.507-30.165,56.229-44.946,66.872-14.969,10.779-25.369,16.222-40.562,21.925l51.524,100.856" transform="translate(1.419 604.118)"/><path class="j" d="M707.764-345.508S763.221-269.8,752.71-217.246s-75.642,78.93-75.642,78.93L623.352-244.652c16.893-6.2,28.173-10.638,43.85-21.925C693.334-285.392,719.025-315.476,707.764-345.508Zm7.674,23.021c-3.2,20.275-18.611,41.334-44.947,60.294-14.221,10.237-25.56,15.453-39.465,20.829l49.332,95.374c14.8-7.363,58.721-31.6,66.872-72.353,6.776-33.877-16.516-79.017-31.791-104.144" transform="translate(-0.678 599.839)"/><path class="d" d="M679.938-315a59.413,59.413,0,0,1-5.481,17.54,65.379,65.379,0,0,1-28.5,29.6c-.471.254-.842.471-1.1,0s-.473-.844,0-1.1c14.865-7.965,22.892-20.176,27.406-29.6a59.745,59.745,0,0,0,4.385-10.963c.382-1.513.953-3.551,1.1-4.385a9.219,9.219,0,0,0,0-1.1c.029-.215,0,0,0,0,.056-.533.563-1.154,1.1-1.1s1.152.565,1.1,1.1" transform="translate(42.495 613.177)"/><path class="d" d="M709.87-274.8l-29.6,16.444c-.471.254-.842-.625-1.1-1.1s-.471-.844,0-1.1l29.6-15.348c.471-.254,1.939-.471,2.193,0s-.625.844-1.1,1.1" transform="translate(-37.865 631.08)"/><path class="d" d="M690.381-284.651c-.058.134-10.138,22.047-41.658,36.176-.489.219-.877-.608-1.1-1.1s-.489-.879,0-1.1c15.483-6.943,26.637-15.976,32.888-23.021a64.785,64.785,0,0,0,6.578-8.77,18,18,0,0,0,1.1-2.193c.157-.3-.076-.945,0-1.1h0c.219-.487,1.7-.221,2.193,0s.219.608,0,1.1" transform="translate(27.667 626.683)"/><path class="d" d="M649.012-283.476a102.836,102.836,0,0,1-3.289,13.155c-2.2,6.716-6.358,14.676-14.251,18.636-.479.239-.856-.617-1.1-1.1s.617-.856,1.1-1.1c7.187-3.582,11.043-11.061,13.155-17.54a50.853,50.853,0,0,0,2.193-7.674c.165-1.1-.058-2.672,0-3.289.027-.308-.012.161,0,0v-1.1c.025-.535.561-.025,1.1,0s1.121-.533,1.1,0" transform="translate(94.25 627.701)"/><path class="d" d="M697.066-336.736c0,.031,0,.353,0,1.1.014,5.841-2.482,32.17-41.658,65.775-.407.349-.747.407-1.1,0s-.407-.747,0-1.1c38.8-33.321,40.548-59.354,40.561-64.679,0-.339.008-.931,0-1.1h0c-.05-.533.563-1.046,1.1-1.1s1.044.563,1.1,1.1" transform="translate(11.116 603.126)"/><path class="d" d="M701.245-331.846h0c-.064,0-.8,0-1.1,0-2.783,0-15.145.086-32.888,13.155-.431.318-1.874.432-2.193,0s.666-.778,1.1-1.1c18.07-13.319,30.844-14.255,33.984-14.251.448,0,1.073,0,1.1,0,.535.041.041.563,0,1.1s.535,1.137,0,1.1" transform="translate(-9.507 604.814)"/><path class="d" d="M698.956-269.782c.074,1.183,0,2.735,0,4.385,0,9.382-2.57,25.875-13.155,43.85s-29.766,37.246-64.679,52.62c-.49.215-.881.491-1.1,0s-.491-.881,0-1.1c34.6-15.247,54.312-35.015,64.679-52.62A84.262,84.262,0,0,0,696.763-265.4c0-1.606.072-3.239,0-4.385a1.2,1.2,0,0,1,1.1-1.1,1.2,1.2,0,0,1,1.1,1.1" transform="translate(59.654 633.74)"/><path class="i" d="M976.034-289.57l31.792,63.583s-21.4,7.947-4.385,32.888c0,0-40.557,17.006-66.872-26.31s39.465-70.16,39.465-70.16" transform="translate(-701.97 625.025)"/><path class="b" d="M963.046-117.457c16.234,0,33.933-6.65,51.524-19.733l-60.294-99.759L918.1-213.928h0a58.678,58.678,0,0,1-19.733,3.289h0a51.491,51.491,0,0,1-30.7-9.866l43.85,74.545c.1.145,18.432,28.5,51.524,28.5h0" transform="translate(-615.533 649.142)"/><path class="i" d="M864.236-241.431c14.869,24.472,34.253,29.6,48.235,29.6a53.047,53.047,0,0,0,18.636-3.289l38.369-23.021L1031.963-134c-21.063,16.236-39.442,21.925-54.813,21.925-35.14,0-54.813-29.6-54.813-29.6Zm103.048,10.963L934.4-209.64h-1.1a51.765,51.765,0,0,1-20.829,4.385c-6.88,0-14.609-1.715-23.021-5.481l38.369,65.775c1.251,1.819,18.689,26.31,49.332,26.31,14.946,0,30.816-5.87,47.139-17.54l-57.005-94.278" transform="translate(-629.637 647.046)"/><path class="d" d="M943.91-244.676h0a30.566,30.566,0,0,0-6.578,4.385c-2.715,2.4-5.477,5.973-5.481,10.963,0,4.272,2.271,9.54,7.674,16.444.33.423.421.767,0,1.1s-1.863.421-2.193,0c-5.572-7.117-7.672-12.694-7.674-17.54a17.112,17.112,0,0,1,6.578-13.155,16.72,16.72,0,0,1,6.578-3.289c.506-.178.918-.506,1.1,0s.506.918,0,1.1" transform="translate(-636.958 644.81)"/><path class="d" d="M1010.642-240.2a189.68,189.68,0,0,1-18.636,15.348,121.749,121.749,0,0,1-16.444,9.866c-5.649,2.81-11.662,5.472-16.444,5.481h0a77.508,77.508,0,0,1-28.5-5.481c-9.27-3.853-17.774-10.978-24.118-21.925-.27-.463.635-.829,1.1-1.1s.827-.463,1.1,0c6.138,10.575,14.081,17.1,23.021,20.829a73.889,73.889,0,0,0,27.406,5.481h0c4.255.008,9.844-1.635,15.348-4.385,8.265-4.117,17.5-11.254,24.118-16.444,3.308-2.595,5.715-4.89,7.674-6.578.979-.844,1.667-.627,2.193-1.1s1.1-1.094,1.1-1.1c.4-.361.734-.394,1.1,0s.394.734,0,1.1" transform="translate(-669.706 646.912)"/><path class="d" d="M958.042-213.877c-.083.048-16.2,15.315-37.273,15.348a45.972,45.972,0,0,1-10.963-1.1c-.518-.132-.134-.578,0-1.1s.577-1.228,1.1-1.1a39.265,39.265,0,0,0,9.866,1.1,52.133,52.133,0,0,0,25.214-6.578,90.292,90.292,0,0,0,8.77-5.481c.925-.681.614-.7,1.1-1.1.24-.2.976-.992,1.1-1.1h0c.4-.355.742-.4,1.1,0s.4.741,0,1.1" transform="translate(-621.491 658.957)"/><path class="d" d="M955.442-192.449c-.1.068-5.328,3.283-14.251,3.289a34.036,34.036,0,0,1-15.348-3.289c-.479-.242-.242-.619,0-1.1s.619-.242,1.1,0a31.7,31.7,0,0,0,14.251,3.289,25.218,25.218,0,0,0,9.866-2.193,14.129,14.129,0,0,0,2.193-1.1,14.908,14.908,0,0,0,1.1-1.1h0c.429-.322.774-.429,1.1,0s.428,1.871,0,2.193" transform="translate(-641.913 668.225)"/><path class="d" d="M959.624-184.2c-.089.081-15.53,15.336-41.658,15.348-8.61,0-17.817-2.123-28.5-6.578-.495-.206-1.3-.6-1.1-1.1s.6-.206,1.1,0a72.674,72.674,0,0,0,28.5,5.481,61.677,61.677,0,0,0,29.6-7.674c3.467-1.873,5.872-2.987,7.674-4.385a29.464,29.464,0,0,0,2.193-2.193c.227-.2.986.1,1.1,0v-1.1a.67.67,0,0,1,1.1,0,2.26,2.26,0,0,1,0,2.193" transform="translate(-592.378 672.033)"/><path class="d" d="M918.5-202.318c-.01.008-2.926,2.081-6.578,4.385a66.656,66.656,0,0,1-12.059,5.481c-.5.184-.912.5-1.1,0s-.5-.914,0-1.1c3.322-1.208,8.462-4.3,12.059-6.578,1.8-1.138,3.249-1.417,4.385-2.193a11.347,11.347,0,0,0,2.193-2.193c.435-.312.786.66,1.1,1.1s.436.786,0,1.1" transform="translate(-565.504 663.842)"/><path class="d" d="M984.427-275.328h0c-.64.219-5.838,1.652-12.059,7.674s-12.832,16.221-14.251,31.791c-.048.533-.563,1.145-1.1,1.1s-1.145-.563-1.1-1.1c1.5-16.552,8.649-26.661,15.348-32.888a46.1,46.1,0,0,1,13.155-8.77c.508-.167.929-.51,1.1,0a2.785,2.785,0,0,1-1.1,2.193" transform="translate(-715.844 630.515)"/><path class="d" d="M964.677-248.481h-1.1a30.185,30.185,0,0,0-2.193,12.059c.012,6.132,2.331,14.007,10.963,21.925.4.363.363.7,0,1.1a2.265,2.265,0,0,1-2.193,0c-8.995-8.219-10.976-16.4-10.963-23.021a26.874,26.874,0,0,1,3.289-13.155c.291-.45.646-.291,1.1,0s1.387.646,1.1,1.1" transform="translate(-707.056 643.133)"/><path class="d" d="M974.69-160.326c-.083.045-25.877,20.8-55.909,20.829-17.562.019-35.863-7.54-52.62-30.7-.314-.434-.435-.782,0-1.1s.782-.432,1.1,0c16.494,22.725,34.513,30.676,51.524,30.7,14.549,0,28.58-5.713,38.369-10.963a113.146,113.146,0,0,0,12.059-7.674c1.377-.981,1.469-1.622,2.193-2.193.361-.285.912.151,1.1,0s0-1.094,0-1.1c.407-.347,1.844.689,2.193,1.1s.407.747,0,1.1" transform="translate(-573.461 678.855)"/><path class="i" d="M1126.849-421.542H1112.6a1.2,1.2,0,0,1-1.1-1.1,1.2,1.2,0,0,1,1.1-1.1h14.251a1.2,1.2,0,0,1,1.1,1.1,1.2,1.2,0,0,1-1.1,1.1" transform="translate(-1085.191 564.056)"/><path class="j" d="M859.615-490.233H845.364v-2.193h14.251Z" transform="translate(-429.883 532.987)"/><path class="c" d="M1145.567-370.411l-14.251,2.193v-1.1l14.251-3.289" transform="translate(-1131.316 587.469)"/><path class="c" d="M755.53-122.637H741.279c-.535,0-1.1.536-1.1,0a1.2,1.2,0,0,1,1.1-1.1H755.53a1.2,1.2,0,0,1,1.1,1.1c0,.536-.561,0-1.1,0" transform="translate(-172.322 700.364)"/><path class="d" d="M1007.408-121.248h0l-14.251,26.31h0c-.58.909,0,1.749,0,2.193a3.62,3.62,0,0,0,1.1,2.193c6.07,5.625,23.559,21.871,50.428,28.5.615.152,1.791,1.1,2.193,1.1.84-.011.743-.783,1.1-1.1a3.705,3.705,0,0,0,1.1-1.1l13.155-25.214c.169-.314,1.094-.749,1.1-1.1a3.893,3.893,0,0,0-2.193-3.289,199.918,199.918,0,0,1-26.31-13.155,161.859,161.859,0,0,1-23.021-16.444c-.57-.494-1.842,0-2.193,0s-.71-.31-1.1,0a3.307,3.307,0,0,0-1.1,1.1h0l-1.1-1.1c.413-.762.456-.575,1.1-1.1a3.592,3.592,0,0,1,2.193-1.1,5.741,5.741,0,0,1,3.289,1.1A164,164,0,0,0,1035.911-107c9.258,5.525,17.967,10.225,25.214,13.155a4.774,4.774,0,0,1,3.289,4.385c0,.649.326,1.589,0,2.193L1051.259-62.05c-.316.578-1.531.474-2.193,1.1s-.957,1.108-2.193,1.1a8.794,8.794,0,0,1-2.193,0c-27.412-6.769-46.5-23.936-52.62-29.6a4.322,4.322,0,0,1-1.1-3.289,6.6,6.6,0,0,1,1.1-3.289l1.1,1.1-1.1-1.1,14.251-26.31,1.1,1.1" transform="translate(-846.259 700.071)"/><path class="d" d="M1007.408-121.248h0l-14.251,26.31h0c-.58.909,0,1.749,0,2.193a3.62,3.62,0,0,0,1.1,2.193c6.07,5.625,23.559,21.871,50.428,28.5.615.152,1.791,1.1,2.193,1.1.84-.011.743-.783,1.1-1.1a3.705,3.705,0,0,0,1.1-1.1l13.155-25.214c.169-.314,1.094-.749,1.1-1.1a3.893,3.893,0,0,0-2.193-3.289,199.918,199.918,0,0,1-26.31-13.155,161.859,161.859,0,0,1-23.021-16.444c-.57-.494-1.842,0-2.193,0s-.71-.31-1.1,0a3.307,3.307,0,0,0-1.1,1.1h0l-1.1-1.1c.413-.762.456-.575,1.1-1.1a3.592,3.592,0,0,1,2.193-1.1,5.741,5.741,0,0,1,3.289,1.1A164,164,0,0,0,1035.911-107c9.258,5.525,17.967,10.225,25.214,13.155a4.774,4.774,0,0,1,3.289,4.385c0,.649.326,1.589,0,2.193L1051.259-62.05c-.316.578-1.531.474-2.193,1.1s-.957,1.108-2.193,1.1a8.794,8.794,0,0,1-2.193,0c-27.412-6.769-46.5-23.936-52.62-29.6a4.322,4.322,0,0,1-1.1-3.289,6.6,6.6,0,0,1,1.1-3.289l1.1,1.1-1.1-1.1,14.251-26.31,1.1,1.1" transform="translate(-846.259 700.071)"/><path class="d" d="M1007.408-121.248h0l-14.251,26.31h0c-.58.909,0,1.749,0,2.193a3.62,3.62,0,0,0,1.1,2.193c6.07,5.625,23.559,21.871,50.428,28.5.615.152,1.791,1.1,2.193,1.1.84-.011.743-.783,1.1-1.1a3.705,3.705,0,0,0,1.1-1.1l13.155-25.214c.169-.314,1.094-.749,1.1-1.1a3.893,3.893,0,0,0-2.193-3.289,199.918,199.918,0,0,1-26.31-13.155,161.859,161.859,0,0,1-23.021-16.444c-.57-.494-1.842,0-2.193,0s-.71-.31-1.1,0a3.307,3.307,0,0,0-1.1,1.1h0l-1.1-1.1c.413-.762.456-.575,1.1-1.1a3.592,3.592,0,0,1,2.193-1.1,5.741,5.741,0,0,1,3.289,1.1A164,164,0,0,0,1035.911-107c9.258,5.525,17.967,10.225,25.214,13.155a4.774,4.774,0,0,1,3.289,4.385c0,.649.326,1.589,0,2.193L1051.259-62.05c-.316.578-1.531.474-2.193,1.1s-.957,1.108-2.193,1.1a8.794,8.794,0,0,1-2.193,0c-27.412-6.769-46.5-23.936-52.62-29.6a4.322,4.322,0,0,1-1.1-3.289,6.6,6.6,0,0,1,1.1-3.289l1.1,1.1-1.1-1.1,14.251-26.31,1.1,1.1" transform="translate(-846.259 700.071)"/><path class="d" d="M16.1,3.312l.853.462L2.731,30.035,2.7,30.1a3.891,3.891,0,0,0-.756,2,2.237,2.237,0,0,0,.919,1.654C8.929,39.375,27.3,56.423,54.164,63.055a6.414,6.414,0,0,0,1.517.211,2.1,2.1,0,0,0,1.567-.533A5.461,5.461,0,0,0,58.2,61.31L71.748,36.266A2.069,2.069,0,0,0,72,35.278a3.246,3.246,0,0,0-2.166-2.822c-7.42-3-16.81-8.087-26.12-13.641A166.76,166.76,0,0,1,20.469,2.567a2.091,2.091,0,0,0-1.354-.628,1.724,1.724,0,0,0-1.078.444,4.659,4.659,0,0,0-1.086,1.391L16.1,3.312l-.851-.461A6.5,6.5,0,0,1,16.812.883,3.646,3.646,0,0,1,19.115,0a4,4,0,0,1,2.632,1.109A165.048,165.048,0,0,0,44.7,17.149c9.258,5.525,18.6,10.579,25.851,13.509a5.162,5.162,0,0,1,3.38,4.619,4.013,4.013,0,0,1-.481,1.91L59.906,62.231a7.089,7.089,0,0,1-1.338,1.922,4.063,4.063,0,0,1-2.888,1.053,8.26,8.26,0,0,1-1.982-.27C26.287,58.167,7.66,40.833,1.54,35.171A4.155,4.155,0,0,1,0,32.1a5.75,5.75,0,0,1,1.059-3.043l.819.522-.851-.461L15.247,2.851l.851.461" transform="translate(538.797 634.21) rotate(-43)"/><path class="d" d="M16.1,3.312l.853.462L2.731,30.035,2.7,30.1a3.891,3.891,0,0,0-.756,2,2.237,2.237,0,0,0,.919,1.654C8.929,39.375,27.3,56.423,54.164,63.055a6.414,6.414,0,0,0,1.517.211,2.1,2.1,0,0,0,1.567-.533A5.461,5.461,0,0,0,58.2,61.31L71.748,36.266A2.069,2.069,0,0,0,72,35.278a3.246,3.246,0,0,0-2.166-2.822c-7.42-3-16.81-8.087-26.12-13.641A166.76,166.76,0,0,1,20.469,2.567a2.091,2.091,0,0,0-1.354-.628,1.724,1.724,0,0,0-1.078.444,4.659,4.659,0,0,0-1.086,1.391L16.1,3.312l-.851-.461A6.5,6.5,0,0,1,16.812.883,3.646,3.646,0,0,1,19.115,0a4,4,0,0,1,2.632,1.109A165.048,165.048,0,0,0,44.7,17.149c9.258,5.525,18.6,10.579,25.851,13.509a5.162,5.162,0,0,1,3.38,4.619,4.013,4.013,0,0,1-.481,1.91L59.906,62.231a7.089,7.089,0,0,1-1.338,1.922,4.063,4.063,0,0,1-2.888,1.053,8.26,8.26,0,0,1-1.982-.27C26.287,58.167,7.66,40.833,1.54,35.171A4.155,4.155,0,0,1,0,32.1a5.75,5.75,0,0,1,1.059-3.043l.819.522-.851-.461L15.247,2.851l.851.461" transform="translate(538.797 634.21) rotate(-43)"/><path class="d" d="M16.1,3.312l.853.462L2.731,30.035,2.7,30.1a3.891,3.891,0,0,0-.756,2,2.237,2.237,0,0,0,.919,1.654C8.929,39.375,27.3,56.423,54.164,63.055a6.414,6.414,0,0,0,1.517.211,2.1,2.1,0,0,0,1.567-.533A5.461,5.461,0,0,0,58.2,61.31L71.748,36.266A2.069,2.069,0,0,0,72,35.278a3.246,3.246,0,0,0-2.166-2.822c-7.42-3-16.81-8.087-26.12-13.641A166.76,166.76,0,0,1,20.469,2.567a2.091,2.091,0,0,0-1.354-.628,1.724,1.724,0,0,0-1.078.444,4.659,4.659,0,0,0-1.086,1.391L16.1,3.312l-.851-.461A6.5,6.5,0,0,1,16.812.883,3.646,3.646,0,0,1,19.115,0a4,4,0,0,1,2.632,1.109A165.048,165.048,0,0,0,44.7,17.149c9.258,5.525,18.6,10.579,25.851,13.509a5.162,5.162,0,0,1,3.38,4.619,4.013,4.013,0,0,1-.481,1.91L59.906,62.231a7.089,7.089,0,0,1-1.338,1.922,4.063,4.063,0,0,1-2.888,1.053,8.26,8.26,0,0,1-1.982-.27C26.287,58.167,7.66,40.833,1.54,35.171A4.155,4.155,0,0,1,0,32.1a5.75,5.75,0,0,1,1.059-3.043l.819.522-.851-.461L15.247,2.851l.851.461" transform="translate(538.797 634.21) rotate(-43)"/><path class="d" d="M16.1,3.312l.853.462L2.731,30.035,2.7,30.1a3.891,3.891,0,0,0-.756,2,2.237,2.237,0,0,0,.919,1.654C8.929,39.375,27.3,56.423,54.164,63.055a6.414,6.414,0,0,0,1.517.211,2.1,2.1,0,0,0,1.567-.533A5.461,5.461,0,0,0,58.2,61.31L71.748,36.266A2.069,2.069,0,0,0,72,35.278a3.246,3.246,0,0,0-2.166-2.822c-7.42-3-16.81-8.087-26.12-13.641A166.76,166.76,0,0,1,20.469,2.567a2.091,2.091,0,0,0-1.354-.628,1.724,1.724,0,0,0-1.078.444,4.659,4.659,0,0,0-1.086,1.391L16.1,3.312l-.851-.461A6.5,6.5,0,0,1,16.812.883,3.646,3.646,0,0,1,19.115,0a4,4,0,0,1,2.632,1.109A165.048,165.048,0,0,0,44.7,17.149c9.258,5.525,18.6,10.579,25.851,13.509a5.162,5.162,0,0,1,3.38,4.619,4.013,4.013,0,0,1-.481,1.91L59.906,62.231a7.089,7.089,0,0,1-1.338,1.922,4.063,4.063,0,0,1-2.888,1.053,8.26,8.26,0,0,1-1.982-.27C26.287,58.167,7.66,40.833,1.54,35.171A4.155,4.155,0,0,1,0,32.1a5.75,5.75,0,0,1,1.059-3.043l.819.522-.851-.461L15.247,2.851l.851.461" transform="translate(538.797 634.21) rotate(-43)"/></g></g><text class="m" transform="matrix(0.875, 0.485, -0.485, 0.875, 397.811, 856.632)"><tspan x="0" y="0">Java</tspan></text><text class="n" transform="translate(807.103 897.63) rotate(-13)"><tspan x="0" y="0">Python</tspan></text></g><g transform="translate(529.795 383.77) rotate(-59)"><path class="o" d="M11.023,6.805a4.447,4.447,0,1,0,4.446,4.448A4.447,4.447,0,0,0,11.023,6.805ZM21.459,9.167l-1.631.942a.28.28,0,0,0-.139.274c.028.287.046.576.046.87a9.2,9.2,0,0,1-.146,1.628.281.281,0,0,0,.135.294l1.373.792a1.172,1.172,0,0,1,.429,1.6L19.648,18.82a1.172,1.172,0,0,1-1.6.429l-1.5-.864a.282.282,0,0,0-.314.024,9.056,9.056,0,0,1-2.346,1.315.282.282,0,0,0-.183.263v1.348a1.172,1.172,0,0,1-1.171,1.172H8.783a1.172,1.172,0,0,1-1.172-1.172V19.987a.28.28,0,0,0-.184-.263A9.072,9.072,0,0,1,4.8,18.168a.281.281,0,0,0-.324-.032l-.838.484a1.17,1.17,0,0,1-1.6-.429L.157,14.938a1.172,1.172,0,0,1,.429-1.6l.956-.552a.282.282,0,0,0,.139-.287,8.843,8.843,0,0,1-.1-1.247,8.945,8.945,0,0,1,.229-1.984.281.281,0,0,0-.134-.308L.95,8.538a1.171,1.171,0,0,1-.429-1.6L2.4,3.686A1.171,1.171,0,0,1,4,3.258l1.093.63A.279.279,0,0,0,5.4,3.872,9.038,9.038,0,0,1,8.13,2.547a.284.284,0,0,0,.207-.271v-1.1A1.171,1.171,0,0,1,9.508,0h3.756a1.171,1.171,0,0,1,1.172,1.172V2.831a.281.281,0,0,0,.161.253,9.027,9.027,0,0,1,2.208,1.5.281.281,0,0,0,.333.039l1.275-.736a1.171,1.171,0,0,1,1.6.429l1.878,3.252a1.172,1.172,0,0,1-.43,1.6" transform="matrix(-0.978, -0.208, 0.208, -0.978, 21.564, 26.598)"/><path class="o" d="M7.657,4.727a3.089,3.089,0,1,0,3.088,3.089A3.089,3.089,0,0,0,7.657,4.727Zm7.249,1.64-1.133.654a.194.194,0,0,0-.1.19c.019.2.032.4.032.6a6.4,6.4,0,0,1-.1,1.131.2.2,0,0,0,.094.2l.954.55a.814.814,0,0,1,.3,1.112l-1.3,2.259a.814.814,0,0,1-1.112.3l-1.039-.6a.2.2,0,0,0-.218.017,6.293,6.293,0,0,1-1.629.913.2.2,0,0,0-.127.183v.936a.814.814,0,0,1-.813.814H6.1a.814.814,0,0,1-.814-.814v-.936a.2.2,0,0,0-.128-.183,6.3,6.3,0,0,1-1.827-1.081.2.2,0,0,0-.225-.022l-.582.336a.813.813,0,0,1-1.111-.3l-1.3-2.259a.814.814,0,0,1,.3-1.111l.664-.383a.2.2,0,0,0,.1-.2A6.139,6.139,0,0,1,1.1,7.816,6.215,6.215,0,0,1,1.26,6.438a.2.2,0,0,0-.093-.214L.66,5.93a.813.813,0,0,1-.3-1.112l1.3-2.259a.813.813,0,0,1,1.112-.3l.759.438a.194.194,0,0,0,.212-.011,6.278,6.278,0,0,1,1.9-.92.2.2,0,0,0,.144-.188V.814A.814.814,0,0,1,6.6,0H9.213a.813.813,0,0,1,.814.814V1.966a.2.2,0,0,0,.112.176,6.272,6.272,0,0,1,1.534,1.041.2.2,0,0,0,.231.027l.885-.511A.813.813,0,0,1,13.9,3l1.3,2.259a.814.814,0,0,1-.3,1.112" transform="matrix(-0.695, -0.719, 0.719, -0.695, 17.478, 42.344)"/></g></g></g></svg>