<svg xmlns="http://www.w3.org/2000/svg" width="187" height="187" xmlns:v="https://vecta.io/nano"><style><![CDATA[.K{fill:#fff}.L{stroke:#5381ff}.M{fill:none}.N{fill:#c5d5ff}]]></style><defs><clipPath id="A"><path d="M0,0H205.587V205.587H0Z" class="K"/></clipPath><clipPath id="B"><path d="M0 0h187v187H0z"/></clipPath></defs><g clip-path="url(#B)"><g transform="translate(-9.293 -9.293)" clip-path="url(#A)"><g class="L"><path d="M27.754 31.044h23.642v23.642H27.754z" class="N"/><path d="M60.031 31.044h22.615v23.642H60.031z" class="K"/><path d="M60.134 31.147h22.409v23.437H60.134z" class="M"/></g><path d="M91.486 31.044h23.642v23.642H91.486z" class="K"/><path d="M91.589 31.147h23.437v23.437H91.589z" class="L M"/><path d="M121.296 31.044h25.082v23.642h-25.082z" class="K"/><path d="M121.399 31.147h24.876v23.437h-24.876z" class="L M"/><path d="M153.984 31.044h23.848v23.642h-23.848z" class="K"/><path d="M154.087 31.147h23.642v23.437h-23.642z" class="L M"/><path d="M27.754 60.854h23.642v23.848H27.754z" class="K"/><g class="L"><path d="M27.857 60.957h23.437v23.642H27.857z" class="M"/><path d="M60.031 60.854h22.615v23.848H60.031z" class="N"/></g><path d="M91.486 60.854h23.642v23.848H91.486z" class="K"/><path d="M91.589 60.957h23.437v23.642H91.589z" class="L M"/><path d="M121.296 60.854h25.082v23.848h-25.082z" class="K"/><path d="M121.399 60.957h24.876v23.642h-24.876z" class="L M"/><path d="M153.984 60.854h23.848v23.848h-23.848z" class="K"/><path d="M154.087 60.957h23.642v23.642h-23.642z" class="L M"/><path d="M27.754 91.075h23.642v24.876H27.754z" class="K"/><path d="M27.857 91.178h23.437v24.67H27.857z" class="L M"/><path d="M60.031 91.075h22.615v24.876H60.031z" class="K"/><g class="L"><path d="M60.134 91.178h22.409v24.67H60.134z" class="M"/><path d="M91.486 91.075h23.642v24.876H91.486z" class="N"/></g><path d="M121.296 91.075h25.082v24.876h-25.082z" class="K"/><path d="M121.399 91.178h24.876v24.67h-24.876z" class="L M"/><path d="M153.984 91.075h23.848v24.876h-23.848z" class="K"/><path d="M154.087 91.178h23.642v24.67h-23.642z" class="L M"/><path d="M27.754 120.885h23.642v23.848H27.754z" class="K"/><path d="M27.857 120.988h23.437v23.642H27.857z" class="L M"/><path d="M60.031 120.885h22.615v23.848H60.031z" class="K"/><path d="M60.134 120.988h22.409v23.642H60.134z" class="L M"/><path d="M91.486 120.885h23.642v23.848H91.486z" class="K"/><g class="L"><path d="M91.589 120.988h23.437v23.642H91.589z" class="M"/><path d="M121.296 120.885h25.082v23.848h-25.082z" class="N"/></g><path d="M153.984 120.885h23.848v23.848h-23.848z" class="K"/><path d="M154.087 120.988h23.642v23.642h-23.642z" class="L M"/><path d="M27.754 150.901h23.642v23.642H27.754z" class="K"/><path d="M27.857 151.003h23.437v23.437H27.857z" class="L M"/><path d="M60.031 150.901h22.615v23.642H60.031z" class="K"/><path d="M60.134 151.003h22.409v23.437H60.134z" class="L M"/><path d="M91.486 150.901h23.642v23.642H91.486z" class="K"/><path d="M91.589 151.003h23.437v23.437H91.589z" class="L M"/><path d="M121.296 150.901h25.082v23.642h-25.082z" class="K"/><g class="L"><path d="M121.399 151.003h24.876v23.437h-24.876z" class="M"/><path d="M153.984 150.901h23.848v23.642h-23.848z" class="N"/><text font-size="20" font-weight="700" font-family="Arial-BoldMT,Arial" class="K"><tspan x="32.791" y="49.317">S</tspan><tspan x="158.796" y="168.69">E</tspan></text></g></g></g></svg>