<svg xmlns="http://www.w3.org/2000/svg" width="187" height="187" xmlns:v="https://vecta.io/nano"><style><![CDATA[.E{fill:#fff}.F{stroke:#5381ff}.G{fill:none}.H{fill:#e1e9fe}]]></style><defs><clipPath id="A"><path d="M0,0H249.337V249.337H0Z" class="E"/></clipPath><clipPath id="B"><path d="M0 0h187v187H0z"/></clipPath></defs><g clip-path="url(#B)"><g transform="translate(-31.169 -31.169)" clip-path="url(#A)"><g class="F"><path d="M33.661 37.65h28.674v28.674H33.661z" class="H"/><path d="M72.932 37.775h27.178v28.424H72.932z" class="G"/></g><path d="M110.956 37.65h28.674v28.674h-28.674z" class="E"/><path d="M111.08 37.775h28.424v28.424H111.08z" class="F G"/><path d="M147.109 37.65h30.419v28.674h-30.419z" class="E"/><path d="M147.234 37.775h30.17v28.424h-30.17z" class="F G"/><path d="M186.754 37.65h28.923v28.674h-28.923z" class="E"/><path d="M186.879 37.775h28.674v28.424h-28.674z" class="F G"/><path d="M33.661 73.804h28.674v28.923H33.661z" class="E"/><g class="F"><path d="M33.786 73.929H62.21v28.674H33.786z" class="G"/><path d="M72.806 73.804h27.427v28.923H72.806z" class="H"/></g><path d="M110.956 73.804h28.674v28.923h-28.674z" class="E"/><path d="M111.08 73.929h28.424v28.674H111.08z" class="F G"/><path d="M147.109 73.804h30.419v28.923h-30.419z" class="E"/><path d="M147.234 73.929h30.17v28.674h-30.17z" class="F G"/><path d="M186.754 73.804h28.923v28.923h-28.923z" class="E"/><path d="M186.879 73.929h28.674v28.674h-28.674z" class="F G"/><path d="M33.661 110.457h28.674v30.17H33.661z" class="E"/><path d="M33.786 110.581H62.21v29.92H33.786z" class="F G"/><path d="M72.807 110.457h27.427v30.17H72.807z" class="E"/><g class="F"><path d="M72.932 110.581h27.178v29.92H72.932z" class="G"/><path d="M110.955 110.456h28.674v30.17h-28.674z" class="H"/></g><path d="M147.109 110.456h30.419v30.17h-30.419z" class="E"/><path d="M147.234 110.581h30.17v29.92h-30.17z" class="F G"/><path d="M186.754 110.456h28.923v30.17h-28.923z" class="E"/><path d="M186.879 110.581h28.674v29.92h-28.674z" class="F G"/><path d="M33.661 146.61h28.674v28.923H33.661z" class="E"/><path d="M33.786 146.735H62.21v28.674H33.786z" class="F G"/><path d="M72.807 146.61h27.427v28.923H72.807z" class="E"/><path d="M72.932 146.735h27.178v28.674H72.932z" class="F G"/><path d="M110.956 146.61h28.674v28.923h-28.674z" class="E"/><g class="F"><path d="M111.08 146.735h28.424v28.674H111.08z" class="G"/><path d="M147.109 146.61h30.419v28.923h-30.419z" class="H"/></g><path d="M186.754 146.61h28.923v28.923h-28.923z" class="E"/><path d="M186.879 146.735h28.674v28.674h-28.674z" class="F G"/><path d="M33.661 183.013h28.674v28.674H33.661z" class="E"/><path d="M33.786 183.138H62.21v28.424H33.786z" class="F G"/><path d="M72.807 183.013h27.427v28.674H72.807z" class="E"/><path d="M72.932 183.138h27.178v28.424H72.932z" class="F G"/><path d="M110.956 183.013h28.674v28.674h-28.674z" class="E"/><path d="M111.08 183.138h28.424v28.424H111.08z" class="F G"/><path d="M147.109 183.013h30.419v28.674h-30.419z" class="E"/><g class="F"><path d="M147.234 183.138h30.17v28.424h-30.17z" class="G"/><path d="M186.754 183.013h28.923v28.674h-28.923z" class="H"/><text font-size="24" font-weight="700" font-family="Arial-BoldMT,Arial" class="E"><tspan x="39.769" y="59.981">S</tspan><tspan x="192.589" y="204.758">E</tspan></text></g></g></g></svg>