<svg xmlns="http://www.w3.org/2000/svg" xmlns:xlink="http://www.w3.org/1999/xlink" width="187" height="187" viewBox="0 0 187 187"><defs><clipPath id="a"><path d="M0,0H205.587V205.587H0Z" fill="#fff"/></clipPath><clipPath id="c"><rect width="187" height="187"/></clipPath></defs><g id="b" clip-path="url(#c)"><g transform="translate(-9.293 -9.293)" clip-path="url(#a)"><path d="M135,151h23.642v23.642H135Z" transform="translate(-107.246 -119.956)" fill="#c5d5ff" stroke="#5381ff" stroke-width="1"/><g transform="translate(27.754 31.044)"><path d="M292,151h22.615v23.642H292Z" transform="translate(-259.723 -151)" fill="#fff" stroke="#5381ff" stroke-width="1"/><path d="M292.5,151.5h22.409v23.437H292.5Z" transform="translate(-260.12 -151.397)" fill="none" stroke="#5381ff" stroke-width="1"/><path d="M445,151h23.642v23.642H445Z" transform="translate(-381.268 -151)" fill="#fff"/><path d="M445.5,151.5h23.437v23.437H445.5Z" transform="translate(-381.665 -151.397)" fill="none" stroke="#5381ff" stroke-width="1"/><path d="M590,151h25.082v23.642H590Z" transform="translate(-496.458 -151)" fill="#fff"/><path d="M590.5,151.5h24.876v23.437H590.5Z" transform="translate(-496.855 -151.397)" fill="none" stroke="#5381ff" stroke-width="1"/><path d="M749,151h23.848v23.642H749Z" transform="translate(-622.77 -151)" fill="#fff"/><path d="M749.5,151.5h23.642v23.437H749.5Z" transform="translate(-623.167 -151.397)" fill="none" stroke="#5381ff" stroke-width="1"/><path d="M135,296h23.642v23.848H135Z" transform="translate(-135 -266.19)" fill="#fff"/><path d="M135.5,296.5h23.437v23.642H135.5Z" transform="translate(-135.397 -266.587)" fill="none" stroke="#5381ff" stroke-width="1"/></g><path d="M292,296h22.615v23.848H292Z" transform="translate(-231.969 -235.146)" fill="#c5d5ff" stroke="#5381ff" stroke-width="1"/><g transform="translate(27.754 60.854)"><path d="M445,296h23.642v23.848H445Z" transform="translate(-381.268 -296)" fill="#fff"/><path d="M445.5,296.5h23.437v23.642H445.5Z" transform="translate(-381.665 -296.397)" fill="none" stroke="#5381ff" stroke-width="1"/><path d="M590,296h25.082v23.848H590Z" transform="translate(-496.458 -296)" fill="#fff"/><path d="M590.5,296.5h24.876v23.642H590.5Z" transform="translate(-496.855 -296.397)" fill="none" stroke="#5381ff" stroke-width="1"/><path d="M749,296h23.848v23.848H749Z" transform="translate(-622.77 -296)" fill="#fff"/><path d="M749.5,296.5h23.642v23.642H749.5Z" transform="translate(-623.167 -296.397)" fill="none" stroke="#5381ff" stroke-width="1"/><path d="M135,443h23.642v24.876H135Z" transform="translate(-135 -412.779)" fill="#fff"/><path d="M135.5,443.5h23.437v24.67H135.5Z" transform="translate(-135.397 -413.176)" fill="none" stroke="#5381ff" stroke-width="1"/><path d="M292,443h22.615v24.876H292Z" transform="translate(-259.723 -412.779)" fill="#fff"/><path d="M292.5,443.5h22.409v24.67H292.5Z" transform="translate(-260.12 -413.176)" fill="none" stroke="#5381ff" stroke-width="1"/></g><path d="M445,443h23.642v24.876H445Z" transform="translate(-353.514 -351.925)" fill="#c5d5ff" stroke="#5381ff" stroke-width="1"/><g transform="translate(27.754 91.075)"><path d="M590,443h25.082v24.876H590Z" transform="translate(-496.458 -443)" fill="#fff"/><path d="M590.5,443.5h24.876v24.67H590.5Z" transform="translate(-496.855 -443.397)" fill="none" stroke="#5381ff" stroke-width="1"/><path d="M749,443h23.848v24.876H749Z" transform="translate(-622.77 -443)" fill="#fff"/><path d="M749.5,443.5h23.642v24.67H749.5Z" transform="translate(-623.167 -443.397)" fill="none" stroke="#5381ff" stroke-width="1"/><path d="M135,588h23.642v23.848H135Z" transform="translate(-135 -558.19)" fill="#fff"/><path d="M135.5,588.5h23.437v23.642H135.5Z" transform="translate(-135.397 -558.587)" fill="none" stroke="#5381ff" stroke-width="1"/><path d="M292,588h22.615v23.848H292Z" transform="translate(-259.723 -558.19)" fill="#fff"/><path d="M292.5,588.5h22.409v23.642H292.5Z" transform="translate(-260.12 -558.587)" fill="none" stroke="#5381ff" stroke-width="1"/><path d="M445,588h23.642v23.848H445Z" transform="translate(-381.268 -558.19)" fill="#fff"/><path d="M445.5,588.5h23.437v23.642H445.5Z" transform="translate(-381.665 -558.587)" fill="none" stroke="#5381ff" stroke-width="1"/></g><path d="M590,588h25.082v23.848H590Z" transform="translate(-468.704 -467.115)" fill="#c5d5ff" stroke="#5381ff" stroke-width="1"/><g transform="translate(27.754 120.885)"><path d="M749,588h23.848v23.848H749Z" transform="translate(-622.77 -588)" fill="#fff"/><path d="M749.5,588.5h23.642v23.642H749.5Z" transform="translate(-623.167 -588.397)" fill="none" stroke="#5381ff" stroke-width="1"/><path d="M135,734h23.642v23.642H135Z" transform="translate(-135 -703.984)" fill="#fff"/><path d="M135.5,734.5h23.437v23.437H135.5Z" transform="translate(-135.397 -704.382)" fill="none" stroke="#5381ff" stroke-width="1"/><path d="M292,734h22.615v23.642H292Z" transform="translate(-259.723 -703.984)" fill="#fff"/><path d="M292.5,734.5h22.409v23.437H292.5Z" transform="translate(-260.12 -704.382)" fill="none" stroke="#5381ff" stroke-width="1"/><path d="M445,734h23.642v23.642H445Z" transform="translate(-381.268 -703.984)" fill="#fff"/><path d="M445.5,734.5h23.437v23.437H445.5Z" transform="translate(-381.665 -704.382)" fill="none" stroke="#5381ff" stroke-width="1"/><path d="M590,734h25.082v23.642H590Z" transform="translate(-496.458 -703.984)" fill="#fff"/><path d="M590.5,734.5h24.876v23.437H590.5Z" transform="translate(-496.855 -704.382)" fill="none" stroke="#5381ff" stroke-width="1"/></g><path d="M749,734h23.848v23.642H749Z" transform="translate(-595.016 -583.099)" fill="#c5d5ff" stroke="#5381ff" stroke-width="1"/><g transform="translate(32.791 31.317)"><text transform="translate(0 18)" fill="#fff" stroke="#5381ff" stroke-width="1" font-size="20" font-family="Arial-BoldMT, Arial" font-weight="700"><tspan x="0" y="0">S</tspan></text><text transform="translate(126.005 137.373)" fill="#fff" stroke="#5381ff" stroke-width="1" font-size="20" font-family="Arial-BoldMT, Arial" font-weight="700"><tspan x="0" y="0">E</tspan></text></g></g></g></svg>