<svg xmlns="http://www.w3.org/2000/svg" width="187" height="187" xmlns:v="https://vecta.io/nano"><style><![CDATA[.K{fill:#fff}.L{stroke:#5381ff}.M{fill:none}.N{fill:#c5d5ff}]]></style><defs><clipPath id="A"><path d="M0,0H250.164V250.164H0Z" class="K"/></clipPath><clipPath id="B"><path d="M0 0h187v187H0z"/></clipPath></defs><g clip-path="url(#B)"><g transform="translate(-31.582 -31.582)" clip-path="url(#A)"><g class="L"><path d="M33.772 37.775h28.769v28.769H33.772z" class="N"/><path d="M73.048 37.775h27.518v28.769H73.048z" class="K"/><path d="M73.173 37.9h27.268v28.519H73.173z" class="M"/></g><path d="M111.323 37.775h28.769v28.769h-28.769z" class="K"/><path d="M111.448 37.9h28.519v28.519h-28.519z" class="L M"/><path d="M147.597 37.775h30.52v28.769h-30.52z" class="K"/><path d="M147.722 37.9h30.27v28.519h-30.27z" class="L M"/><path d="M187.373 37.775h29.019v28.769h-29.019z" class="K"/><path d="M187.498 37.9h28.769v28.519h-28.769z" class="L M"/><path d="M33.772 74.049h28.769v29.019H33.772z" class="K"/><g class="L"><path d="M33.897 74.174h28.519v28.769H33.897z" class="M"/><path d="M73.048 74.049h27.518v29.019H73.048z" class="N"/></g><path d="M111.323 74.049h28.769v29.019h-28.769z" class="K"/><path d="M111.448 74.174h28.519v28.769h-28.519z" class="L M"/><path d="M147.597 74.049h30.52v29.019h-30.52z" class="K"/><path d="M147.722 74.174h30.27v28.769h-30.27z" class="L M"/><path d="M187.373 74.049h29.019v29.019h-29.019z" class="K"/><path d="M187.498 74.174h28.769v28.769h-28.769z" class="L M"/><path d="M33.772 110.823h28.769v30.27H33.772z" class="K"/><path d="M33.897 110.948h28.519v30.02H33.897z" class="L M"/><path d="M73.048 110.823h27.518v30.27H73.048z" class="K"/><g class="L"><path d="M73.173 110.948h27.268v30.02H73.173z" class="M"/><path d="M111.323 110.823h28.769v30.27h-28.769z" class="N"/></g><path d="M147.597 110.823h30.52v30.27h-30.52z" class="K"/><path d="M147.722 110.948h30.27v30.02h-30.27z" class="L M"/><path d="M187.373 110.823h29.019v30.27h-29.019z" class="K"/><path d="M187.498 110.948h28.769v30.02h-28.769z" class="L M"/><path d="M33.772 147.097h28.769v29.019H33.772z" class="K"/><path d="M33.897 147.222h28.519v28.769H33.897z" class="L M"/><path d="M73.048 147.097h27.518v29.019H73.048z" class="K"/><path d="M73.173 147.222h27.268v28.769H73.173z" class="L M"/><path d="M111.323 147.097h28.769v29.019h-28.769z" class="K"/><g class="L"><path d="M111.448 147.222h28.519v28.769h-28.519z" class="M"/><path d="M147.597 147.097h30.52v29.019h-30.52z" class="N"/></g><path d="M187.373 147.097h29.019v29.019h-29.019z" class="K"/><path d="M187.498 147.222h28.769v28.769h-28.769z" class="L M"/><path d="M33.772 183.621h28.769v28.769H33.772z" class="K"/><path d="M33.897 183.746h28.519v28.519H33.897z" class="L M"/><path d="M73.048 183.621h27.518v28.769H73.048z" class="K"/><path d="M73.173 183.746h27.268v28.519H73.173z" class="L M"/><path d="M111.323 183.621h28.769v28.769h-28.769z" class="K"/><path d="M111.448 183.746h28.519v28.519h-28.519z" class="L M"/><path d="M147.597 183.621h30.52v28.769h-30.52z" class="K"/><g class="L"><path d="M147.722 183.746h30.27v28.519h-30.27z" class="M"/><path d="M187.373 183.621h29.019v28.769h-29.019z" class="N"/><text font-size="23" font-weight="700" font-family="Arial-BoldMT,Arial" class="K"><tspan x="39.901" y="59.107">S</tspan><tspan x="193.228" y="204.364">E</tspan></text></g></g></g></svg>