<svg xmlns="http://www.w3.org/2000/svg" xmlns:xlink="http://www.w3.org/1999/xlink" width="187" height="187" viewBox="0 0 187 187"><defs><clipPath id="b"><rect width="187" height="187"/></clipPath></defs><g id="a" clip-path="url(#b)"><g transform="translate(-2090.795 363.292)"><g transform="translate(2104.938 -356.398)"><path d="M0,0H22.378V173.214H0Z" transform="translate(93.757 0)" fill="#fff" stroke="#5381ff" stroke-width="1"/><path d="M0,0H22.378V120.379H0Z" transform="translate(62.505 52.834)" fill="#fff" stroke="#5381ff" stroke-width="1"/><path d="M0,0H22.378V135.685H0Z" transform="translate(125.459 37.528)" fill="#fff" stroke="#5381ff" stroke-width="1"/><path d="M0,0H22.378V141.021H0Z" transform="translate(31.252 32.192)" fill="#fff" stroke="#5381ff" stroke-width="1"/><rect width="22.378" height="99.209" transform="translate(0 74.005)" fill="#fff" stroke="#5381ff" stroke-width="1"/><g transform="translate(0 39.921)"><rect width="22.378" height="133.293" transform="translate(93.757)" fill="none" opacity="0.3"/><rect width="22.378" height="92.635" transform="translate(62.505 40.658)" fill="none" opacity="0.3"/><rect width="22.378" height="104.413" transform="translate(125.459 28.879)" fill="none" opacity="0.3"/><rect width="22.378" height="108.52" transform="translate(31.252 24.773)" fill="none" opacity="0.3"/><rect width="22.378" height="76.344" transform="translate(0 56.948)" fill="none" opacity="0.3"/></g><path d="M1594.234,308.447,1576.4,321.933l6.8.434-42.567,74.917-23.569-35.335-33.341,77.769-21.445-30.46-26.729,37.783,1.682,6.762,25.036-35.219,22.669,32.2,33.218-77.483,22.867,34.284,47.126-82.941,4.375,4.705Z" transform="translate(-1435.52 -307.122)" fill="#fff" stroke="#5381ff" stroke-width="1"/></g></g></g></svg>