<svg xmlns="http://www.w3.org/2000/svg" width="187" height="187" xmlns:v="https://vecta.io/nano"><defs><clipPath id="A"><path d="M0 0h187v187H0z"/></clipPath></defs><g clip-path="url(#A)" fill="#fff" stroke="#5381ff"><path d="M108.67 2.26h23.575v182.482H108.67zM75.745 57.921H99.32v126.82H75.745zm66.323-16.125h23.575v142.945h-23.575zm-99.247-5.621h23.575v148.567H42.821zM9.896 80.224h23.575v104.517H9.896z"/><path d="M177.102 3.656l-18.786 14.208 7.166.457-44.845 78.925-24.83-37.226-35.125 81.93-22.593-32.09L9.93 149.665l1.772 7.124 26.375-37.1 23.882 33.92 35-81.629 24.091 36.119 49.648-87.379 4.609 4.957z"/></g></svg>