<svg xmlns="http://www.w3.org/2000/svg" width="187" height="187" xmlns:v="https://vecta.io/nano"><defs><clipPath id="A"><path d="M0 0h187v187H0z"/></clipPath></defs><g clip-path="url(#A)" fill="#fff" stroke="#5381ff"><path d="M107.9 6.894h22.378v173.214H107.9zM76.648 59.728h22.378v120.379H76.648zm62.954-15.306h22.378v135.685h-22.378zm-94.207-5.336h22.378v141.021H45.395zM14.143 80.899h22.378v99.209H14.143z"/><path d="M172.857 8.219l-17.834 13.486 6.8.434-42.567 74.917-23.569-35.335-33.341 77.769-21.445-30.46-26.729 37.783 1.682 6.762 25.036-35.219 22.669 32.2 33.218-77.483 22.867 34.284 47.126-82.941 4.375 4.705z"/></g></svg>