<svg xmlns="http://www.w3.org/2000/svg" width="187" height="187" xmlns:v="https://vecta.io/nano"><defs><clipPath id="A"><path d="M0 0h187v187H0z"/></clipPath></defs><g clip-path="url(#A)" fill="#fff" stroke="#5381ff"><path d="M49.338 49.338v88.315h88.315V49.338zm81.887 81.887h-75.46v-75.46h75.46zM118.37 16.366h6.427v22.657h-6.427zm-18.727 0h6.427v22.657h-6.427zm-18.713 0h6.427v22.657H80.93zm-18.736 0h6.427v22.657h-6.427zm56.176 131.612h6.427v22.657h-6.427zm-18.727 0h6.427v22.657h-6.427zm-18.713 0h6.427v22.657H80.93zm-18.736 0h6.427v22.657h-6.427zM16.366 62.194h22.657v6.427H16.366zm0 18.736h22.657v6.427H16.366zm0 18.713h22.657v6.427H16.366zm0 18.727h22.657v6.427H16.366zm131.612-56.176h22.657v6.427h-22.657zm0 18.736h22.657v6.427h-22.657zm0 18.713h22.657v6.427h-22.657zm0 18.727h22.657v6.427h-22.657zM93.5 109.846c-6.755 0-14.025-2.642-21.024-7.64a53.22 53.22 0 0 1-8.6-7.594 1.7 1.7 0 0 1 0-2.224 53.23 53.23 0 0 1 8.6-7.594c7-5 14.269-7.64 21.024-7.64s14.025 2.642 21.024 7.64a53.23 53.23 0 0 1 8.6 7.594 1.7 1.7 0 0 1 0 2.224 53.23 53.23 0 0 1-8.6 7.594c-6.999 4.998-14.269 7.64-21.024 7.64zM67.493 93.501a53.61 53.61 0 0 0 7.025 5.989c4.461 3.175 11.376 6.959 18.983 6.959s14.521-3.785 18.983-6.959c2.509-1.791 4.86-3.794 7.025-5.989a53.6 53.6 0 0 0-7.025-5.989c-4.461-3.175-11.376-6.959-18.983-6.959s-14.521 3.785-18.983 6.959a53.57 53.57 0 0 0-7.025 5.989zM93.5 104.032a10.53 10.53 0 0 1-10.111-7.582c-1.311-4.494.5-9.313 4.446-11.83s9.08-2.128 12.602.955a1.7 1.7 0 0 1-2.239 2.555c-2.528-2.212-6.256-2.361-8.952-.358s-3.63 5.616-2.242 8.674 4.721 4.735 8.004 4.025 5.626-3.614 5.626-6.973a1.7 1.7 0 0 1 3.4 0c-.006 5.815-4.719 10.527-10.534 10.532zm0-7.133a3.4 3.4 0 1 1 2.404-.996 3.4 3.4 0 0 1-2.404.996z"/></g></svg>