<svg xmlns="http://www.w3.org/2000/svg" width="187" height="187" xmlns:v="https://vecta.io/nano"><defs><clipPath id="A"><path d="M0 0h187v187H0z"/></clipPath></defs><g clip-path="url(#A)" stroke="#5381ff"><path d="M40.702 40.702v105.581h105.581V40.702zm97.9 97.9H48.383V48.383h90.216z" fill="#e1e9fe"/><g fill="#fff"><path d="M123.232 1.282h7.684v27.087h-7.684zm-22.388 0h7.684v27.087h-7.684zm-22.373 0h7.684v27.087h-7.684zm-22.4 0h7.684v27.087h-7.684zm67.161 157.348h7.684v27.087h-7.684zm-22.388 0h7.684v27.087h-7.684zm-22.373 0h7.684v27.087h-7.684zm-22.4 0h7.684v27.087h-7.684zM1.282 56.071h27.087v7.684H1.282zm0 22.4h27.087v7.684H1.282zm0 22.373h27.087v7.684H1.282zm0 22.388h27.087v7.684H1.282zM158.63 56.071h27.087v7.684H158.63zm0 22.4h27.087v7.684H158.63zm0 22.373h27.087v7.684H158.63zm0 22.388h27.087v7.684H158.63zm-65.131-10.19c-8.076 0-16.767-3.158-25.135-9.134a63.63 63.63 0 0 1-10.273-9.079 2.03 2.03 0 0 1 0-2.659c3.089-3.388 6.534-6.432 10.277-9.079 8.368-5.975 17.059-9.134 25.135-9.134s16.768 3.158 25.135 9.134c3.743 2.647 7.188 5.691 10.277 9.079a2.03 2.03 0 0 1 0 2.659 63.64 63.64 0 0 1-10.277 9.079c-8.371 5.976-17.063 9.134-25.139 9.134zM62.406 93.5a64.1 64.1 0 0 0 8.4 7.16c5.334 3.8 13.6 8.32 22.695 8.32s17.361-4.525 22.695-8.32a64.1 64.1 0 0 0 8.4-7.16c-2.589-2.624-5.399-5.019-8.4-7.16-5.334-3.8-13.6-8.32-22.695-8.32s-17.361 4.525-22.695 8.32c-3.001 2.141-5.811 4.536-8.4 7.16zm31.093 12.588a12.59 12.59 0 1 1 8.294-22.065 2.031 2.031 0 1 1-2.676 3.055 8.53 8.53 0 1 0 2.912 6.419 2.031 2.031 0 1 1 4.062 0 12.61 12.61 0 0 1-12.592 12.591zm.001-8.526c-2.243 0-4.062-1.819-4.062-4.062s1.819-4.062 4.062-4.062 4.062 1.819 4.062 4.062-1.82 4.06-4.062 4.062z"/></g></g></svg>