<svg xmlns="http://www.w3.org/2000/svg" width="187" height="187" xmlns:v="https://vecta.io/nano"><defs><clipPath id="A"><path d="M0 0h187v187H0z"/></clipPath></defs><g clip-path="url(#A)" fill="#fff" stroke="#5381ff"><path d="M41.443 41.443v104.1h104.1v-104.1zm96.526 96.526H49.024V49.024h88.949zM122.816 2.577h7.576v26.707h-7.576zm-22.075 0h7.576v26.707h-7.576zm-22.058 0h7.576v26.707h-7.576zm-22.086 0h7.576v26.707h-7.576zm66.219 155.14h7.576v26.707h-7.576zm-22.075 0h7.576v26.707h-7.576zm-22.058 0h7.576v26.707h-7.576zm-22.086 0h7.576v26.707h-7.576zM2.577 56.597h26.707v7.576H2.577zm0 22.086h26.707v7.576H2.577zm0 22.058h26.707v7.576H2.577zm0 22.075h26.707v7.576H2.577zm155.14-66.219h26.707v7.576h-26.707zm0 22.086h26.707v7.576h-26.707zm0 22.058h26.707v7.576h-26.707zm0 22.075h26.707v7.576h-26.707zm-64.221-10.047c-7.963 0-16.532-3.114-24.782-9.006-3.689-2.61-7.085-5.611-10.129-8.951a2 2 0 0 1 0-2.622 62.74 62.74 0 0 1 10.133-8.951c8.25-5.891 16.82-9.005 24.782-9.005s16.532 3.114 24.782 9.005a62.74 62.74 0 0 1 10.133 8.951 2 2 0 0 1 0 2.622c-3.045 3.34-6.443 6.341-10.133 8.951-8.25 5.891-16.819 9.006-24.786 9.006zM62.844 93.497a63.2 63.2 0 0 0 8.281 7.06c5.259 3.742 13.41 8.2 22.376 8.2s17.117-4.461 22.376-8.2a63.2 63.2 0 0 0 8.28-7.06 63.21 63.21 0 0 0-8.281-7.06c-5.259-3.742-13.41-8.2-22.376-8.2s-17.117 4.461-22.376 8.2a63.2 63.2 0 0 0-8.28 7.06zM93.5 105.916c-5.517 0-10.371-3.641-11.916-8.937s.59-10.976 5.241-13.943 10.702-2.509 14.853 1.125a2 2 0 1 1-2.639 3.012 8.41 8.41 0 1 0 2.871 6.328 2 2 0 1 1 4 0 12.43 12.43 0 0 1-12.41 12.415zm.001-8.411a4 4 0 1 1 4-4 4.01 4.01 0 0 1-4 4z"/></g></svg>