<svg xmlns="http://www.w3.org/2000/svg" xmlns:xlink="http://www.w3.org/1999/xlink" width="187" height="187" viewBox="0 0 187 187"><defs><clipPath id="b"><rect width="187" height="187"/></clipPath></defs><g id="a" clip-path="url(#b)"><g transform="translate(-542.634 -3098.134)"><g transform="translate(559 3114.5)"><g transform="translate(32.972 32.972)"><path d="M101.019,101.019v88.315h88.315V101.019Zm81.887,81.887h-75.46v-75.46h75.46Z" transform="translate(-101.019 -101.019)" fill="#fff" stroke="#5381ff" stroke-width="1"/></g><g transform="translate(102.004)"><rect width="6.427" height="22.657" fill="#fff" stroke="#5381ff" stroke-width="1"/></g><g transform="translate(83.277)"><rect width="6.427" height="22.657" fill="#fff" stroke="#5381ff" stroke-width="1"/></g><g transform="translate(64.564)"><rect width="6.427" height="22.657" fill="#fff" stroke="#5381ff" stroke-width="1"/></g><g transform="translate(45.828)"><rect width="6.427" height="22.657" fill="#fff" stroke="#5381ff" stroke-width="1"/></g><g transform="translate(102.004 131.612)"><rect width="6.427" height="22.657" fill="#fff" stroke="#5381ff" stroke-width="1"/></g><g transform="translate(83.277 131.612)"><rect width="6.427" height="22.657" fill="#fff" stroke="#5381ff" stroke-width="1"/></g><g transform="translate(64.564 131.612)"><rect width="6.427" height="22.657" fill="#fff" stroke="#5381ff" stroke-width="1"/></g><g transform="translate(45.828 131.612)"><rect width="6.427" height="22.657" fill="#fff" stroke="#5381ff" stroke-width="1"/></g><g transform="translate(0 45.828)"><rect width="22.657" height="6.427" fill="#fff" stroke="#5381ff" stroke-width="1"/></g><g transform="translate(0 64.564)"><rect width="22.657" height="6.427" fill="#fff" stroke="#5381ff" stroke-width="1"/></g><g transform="translate(0 83.277)"><rect width="22.657" height="6.427" fill="#fff" stroke="#5381ff" stroke-width="1"/></g><g transform="translate(0 102.004)"><rect width="22.657" height="6.427" fill="#fff" stroke="#5381ff" stroke-width="1"/></g><g transform="translate(131.612 45.828)"><rect width="22.657" height="6.427" fill="#fff" stroke="#5381ff" stroke-width="1"/></g><g transform="translate(131.612 64.564)"><rect width="22.657" height="6.427" fill="#fff" stroke="#5381ff" stroke-width="1"/></g><g transform="translate(131.612 83.277)"><rect width="22.657" height="6.427" fill="#fff" stroke="#5381ff" stroke-width="1"/></g><g transform="translate(131.612 102.004)"><rect width="22.657" height="6.427" fill="#fff" stroke="#5381ff" stroke-width="1"/></g></g><g transform="translate(606.099 3175.289)"><g transform="translate(0 0)"><path d="M30.035,133.427c-6.755,0-14.025-2.642-21.024-7.64a53.222,53.222,0,0,1-8.6-7.594,1.7,1.7,0,0,1,0-2.224,53.228,53.228,0,0,1,8.6-7.594c7-5,14.269-7.64,21.024-7.64s14.025,2.642,21.024,7.64a53.228,53.228,0,0,1,8.6,7.594,1.7,1.7,0,0,1,0,2.224,53.23,53.23,0,0,1-8.6,7.594C44.06,130.785,36.79,133.427,30.035,133.427ZM4.028,117.082a53.612,53.612,0,0,0,7.025,5.989c4.461,3.175,11.376,6.959,18.983,6.959s14.521-3.785,18.983-6.959a53.615,53.615,0,0,0,7.025-5.989,53.6,53.6,0,0,0-7.025-5.989c-4.461-3.175-11.376-6.959-18.983-6.959s-14.521,3.785-18.983,6.959A53.594,53.594,0,0,0,4.028,117.082Z" transform="translate(0 -100.736)" fill="#fff" stroke="#5381ff" stroke-width="1"/></g><g transform="translate(19.503 5.814)"><path d="M154.052,164.584a10.532,10.532,0,1,1,6.937-18.456,1.7,1.7,0,0,1-2.239,2.555,7.134,7.134,0,1,0,2.436,5.369,1.7,1.7,0,0,1,3.4,0A10.543,10.543,0,0,1,154.052,164.584Z" transform="translate(-143.52 -143.521)" fill="#fff" stroke="#5381ff" stroke-width="1"/></g><g transform="translate(26.638 12.949)"><path d="M199.417,202.816a3.4,3.4,0,1,1,3.4-3.4A3.4,3.4,0,0,1,199.417,202.816Z" transform="translate(-196.02 -196.021)" fill="#fff" stroke="#5381ff" stroke-width="1"/></g></g></g></g></svg>