<svg xmlns="http://www.w3.org/2000/svg" xmlns:xlink="http://www.w3.org/1999/xlink" width="187" height="187" viewBox="0 0 187 187"><defs><clipPath id="b"><rect width="187" height="187"/></clipPath></defs><g id="a" clip-path="url(#b)"><path d="M123.732,161.867A80.708,80.708,0,0,0,158.5,128.738l-.33-.188-.356.752L120.3,111.557a36.552,36.552,0,0,1-11.98,11.671Zm-15.1,5.79L93.108,128.742a49.676,49.676,0,0,1-8.038.643,47.954,47.954,0,0,1-8.545-.755L61.412,167.653a91.39,91.39,0,0,0,23.982,3.135A86.958,86.958,0,0,0,108.629,167.657Zm-66.9-82.263c0,16.433,7.625,29.923,19.692,37.459l-15.143,39.1C18.186,148.168,0,119.541,0,85.394,0,37.2,36.228,0,85.394,0c31.7,0,59.193,16.82,72.456,41.727l-.026.015-.03-.062L120.2,59.573C113.165,48.16,100.207,41.08,85.071,41.08,60.164,41.08,41.727,59.517,41.727,85.394Z" transform="translate(14.252 8.106)" fill="#fff" stroke="#ff464c" stroke-width="2" fill-rule="evenodd"/></g></svg>