<svg xmlns="http://www.w3.org/2000/svg" xmlns:xlink="http://www.w3.org/1999/xlink" width="187" height="187" viewBox="0 0 187 187"><defs><clipPath id="b"><rect width="187" height="187"/></clipPath></defs><g id="a" clip-path="url(#b)"><g transform="translate(0.002 0.903)"><path d="M93.5,0A93.509,93.509,0,0,0,63.941,182.221c4.673.865,6.388-2.028,6.388-4.5,0-2.229-.087-9.6-.127-17.408-26.012,5.656-31.5-11.032-31.5-11.032C34.448,138.476,28.32,135.6,28.32,135.6c-8.483-5.8.639-5.685.639-5.685,9.389.66,14.333,9.636,14.333,9.636,8.339,14.294,21.873,10.161,27.208,7.773.839-6.044,3.262-10.168,5.936-12.5-20.767-2.365-42.6-10.382-42.6-46.208a36.183,36.183,0,0,1,9.634-25.1c-.971-2.355-4.171-11.865.906-24.744,0,0,7.851-2.513,25.719,9.584a88.7,88.7,0,0,1,46.825,0c17.846-12.1,25.687-9.584,25.687-9.584,5.089,12.879,1.888,22.388.917,24.744a36.114,36.114,0,0,1,9.622,25.1c0,35.911-21.873,43.819-42.693,46.133,3.353,2.9,6.342,8.592,6.342,17.315,0,12.51-.109,22.579-.109,25.659,0,2.488,1.683,5.4,6.423,4.486A93.513,93.513,0,0,0,93.5,0" fill="#949494"/><path d="M46.844,181.057c-.205.464-.937.6-1.6.285s-1.06-.939-.84-1.4c.2-.478.933-.612,1.61-.29.68.3,1.067.944.832,1.41m4.6,4.1c-.446.414-1.318.221-1.91-.432a1.429,1.429,0,0,1-.274-1.943c.46-.413,1.305-.22,1.918.433s.73,1.525.264,1.943m3.156,5.25c-.573.4-1.511.025-2.089-.807s-.573-1.828.012-2.228,1.5-.04,2.09.785c.572.845.572,1.843-.014,2.25m5.336,6.081c-.513.565-1.6.414-2.4-.358A1.8,1.8,0,0,1,57,193.746c.518-.566,1.616-.407,2.421.358s1.06,1.83.513,2.389m6.9,2.053c-.225.732-1.277,1.065-2.336.754s-1.75-1.178-1.536-1.918,1.276-1.084,2.343-.751,1.75,1.17,1.53,1.915m7.848.87c.026.771-.872,1.411-1.984,1.425s-2.022-.6-2.034-1.358c0-.779.878-1.412,2-1.431s2.022.6,2.022,1.364m7.71-.3c.133.752-.639,1.525-1.743,1.73-1.085.2-2.09-.266-2.229-1.012-.135-.771.653-1.544,1.736-1.744,1.106-.192,2.1.26,2.236,1.025" transform="translate(-11.826 -47.866)" fill="#949494"/></g></g></svg>