<svg xmlns="http://www.w3.org/2000/svg" xmlns:xlink="http://www.w3.org/1999/xlink" width="187" height="187" viewBox="0 0 187 187"><defs><clipPath id="b"><rect width="187" height="187"/></clipPath></defs><g id="a" clip-path="url(#b)"><g transform="translate(-224.242 -2133.991)"><g transform="translate(224.858 2190.215)"><path d="M0,0V5.1H36.279V0ZM41.419,0V5.1h51.7S87.838,0,80.844,0Zm61.842,0V5.1h31.278L132.682,0Zm53.7,0-1.857,5.1H186.1V0ZM0,9.92v5.1H36.279V9.92Zm41.419.007v5.094h57.7s-.674-3.926-1.849-5.094H41.419Zm61.842,0v5.094h34.707L136.25,9.927H103.261Zm49.989,0-1.718,5.094H186.1V9.927ZM10.426,19.839v5.108H26.137V19.839H10.426Zm41.42,0v5.108H67.557V19.839H51.845Zm30.994,0v5.108H98.551a17.381,17.381,0,0,0,1-5.108H82.839Zm30.848,0v5.108h27.856l-1.857-5.108h-26Zm36.141,0-1.864,5.108h27.994V19.839h-26.13Zm-139.4,9.927v5.1H26.137v-5.1H10.426Zm41.42,0v5.1H91.976s3.357-2.617,4.427-5.1Zm61.842,0v5.1H129.4V32.028l1,2.839h28.78l1.07-2.839v2.839h15.712v-5.1H146.464l-1.565,4.32-1.573-4.32ZM10.426,39.686v5.1H26.137v-5.1Zm41.42,0v5.1H96.4c-1.07-2.475-4.427-5.1-4.427-5.1Zm61.842,0v5.1H129.4v-5.1Zm18.566,0,1.9,5.1h21.58l1.806-5.1Zm27.994,0v5.1h15.712v-5.1ZM10.426,49.606v5.1H26.137v-5.1Zm41.42,0v5.1H67.557v-5.1Zm30.994,0v5.1H99.548a17.332,17.332,0,0,0-1-5.1H82.839Zm30.848,0v5.1H129.4v-5.1Zm22.133,0,1.842,5.1h14.467l1.857-5.1Zm24.426,0v5.1h15.712v-5.1ZM.284,59.526v5.108H36.563V59.526Zm41.136,0v5.108h55.85c1.176-1.17,1.849-5.108,1.849-5.108Zm62.126,0v5.108H129.4V59.526Zm35.85,0,1.893,5.108h7.361l1.776-5.108Zm20.852,0v5.108h26.138V59.526ZM.284,69.453v5.1H36.563v-5.1Zm41.136,0v5.093H80.844c6.994,0,12.275-5.093,12.275-5.093Zm62.126,0v5.1H129.4v-5.1Zm39.439,0,1.82,5.086.313.007,1.849-5.093Zm17.262,0v5.1h26.138v-5.1Z" transform="translate(0 0)" fill="#fff" stroke="#1f70c1" stroke-width="1"/></g></g></g></svg>