<svg xmlns="http://www.w3.org/2000/svg" width="187" height="187" xmlns:v="https://vecta.io/nano"><defs><clipPath id="A"><path d="M0 0h187v187H0z"/></clipPath></defs><g clip-path="url(#A)"><path d="M.616 56.224v5.1h36.279v-5.1zm41.419 0v5.1h51.7s-5.281-5.1-12.275-5.1zm61.842 0v5.1h31.278l-1.857-5.1zm53.7 0l-1.857 5.1h30.996v-5.1zM.616 66.144v5.1h36.279v-5.1zm41.419.007v5.094h57.7s-.674-3.926-1.849-5.094H42.035zm61.842 0v5.094h34.707l-1.718-5.094h-32.989zm49.989 0l-1.718 5.094h34.568v-5.094zM11.042 76.063v5.108h15.711v-5.108H11.042zm41.42 0v5.108h15.711v-5.108H52.461zm30.994 0v5.108h15.711a17.38 17.38 0 0 0 1-5.108H83.455zm30.848 0v5.108h27.856l-1.857-5.108h-26zm36.141 0l-1.864 5.108h27.994v-5.108h-26.13zm-139.4 9.927v5.1h15.708v-5.1H11.042zm41.42 0v5.1h40.127s3.357-2.617 4.427-5.1zm61.842 0v5.1h15.709v-2.838l1 2.839h28.78l1.07-2.839v2.839h15.712v-5.1H147.08l-1.565 4.32-1.573-4.32zM11.042 95.91v5.1h15.711v-5.1zm41.42 0v5.1h44.554c-1.07-2.475-4.427-5.1-4.427-5.1zm61.842 0v5.1h15.712v-5.1zm18.566 0l1.9 5.1h21.58l1.806-5.1zm27.994 0v5.1h15.712v-5.1zm-149.822 9.92v5.1h15.711v-5.1zm41.42 0v5.1h15.711v-5.1zm30.994 0v5.1h16.708a17.33 17.33 0 0 0-1-5.1H83.455zm30.848 0v5.1h15.712v-5.1zm22.133 0l1.842 5.1h14.467l1.857-5.1zm24.426 0v5.1h15.712v-5.1zM.9 115.75v5.108h36.279v-5.108zm41.136 0v5.108h55.85c1.176-1.17 1.849-5.108 1.849-5.108zm62.126 0v5.108h25.854v-5.108zm35.85 0l1.893 5.108h7.361l1.776-5.108zm20.852 0v5.108h26.138v-5.108zM.9 125.677v5.1h36.279v-5.1zm41.136 0v5.093H81.46c6.994 0 12.275-5.093 12.275-5.093zm62.126 0v5.1h25.854v-5.1zm39.439 0l1.82 5.086.313.007 1.849-5.093zm17.262 0v5.1h26.138v-5.1z" fill="#fff" stroke="#1f70c1"/></g></svg>