<svg xmlns="http://www.w3.org/2000/svg" width="16" height="16" xmlns:v="https://vecta.io/nano"><defs><clipPath id="A"><path d="M0 0h16v16H0z"/></clipPath></defs><g clip-path="url(#A)"><rect width="16" height="16" rx="2" fill="#fff"/><g fill="#c9c9c9"><path d="M5.374 1.828h.998v2.308h-.998zm2.128 0H8.5v2.308h-.998zm2.127 0h.998v2.308h-.998z"/></g><g fill="#a1a1a1"><path d="M5.374 11.865h.998v2.308h-.998zm2.128 0H8.5v2.308h-.998zm2.127 0h.998v2.308h-.998zm2.236-6.497h2.308v.998h-2.308zm0 2.127h2.308v.998h-2.308zm0 2.128h2.308v1h-2.308z"/></g><g fill="#c9c9c9"><path d="M1.828 5.368h2.308v.998H1.828zm0 2.127h2.308v.998H1.828zm0 2.128h2.308v.998H1.828z"/></g><path d="M8 9.96H6.041V6.041H8V4.136H4.136v7.729H8z" fill="#515c6a"/><path d="M11.864 4.136H8v1.905h1.959V9.96H8v1.905h3.864z" fill="#383f47"/><path d="M6.041 6.041H8V9.96H6.041z" fill="#8d8d8d"/><path d="M8 6.041h1.959V9.96H8z" fill="#636363"/></g></svg>