<svg xmlns="http://www.w3.org/2000/svg" width="16" height="16" xmlns:v="https://vecta.io/nano"><defs><clipPath id="A"><path d="M0 0h16v16H0z"/></clipPath></defs><g clip-path="url(#A)"><rect width="16" height="16" rx="2" fill="#fff"/><path d="M13.44 13.57H2.558a1 1 0 0 1-1-1V5.001a.43.43 0 0 1 .429-.429h12.025a.43.43 0 0 1 .429.429v7.564a1 1 0 0 1-1.001 1.005z" fill="#8d8d8d"/><path d="M14.012 4.57H8v9h5.44a1 1 0 0 0 1-1V5.001a.43.43 0 0 0-.428-.431z" fill="#757575"/><path d="M14.442 5.429H1.558v-2a1 1 0 0 1 1-1h10.88a1 1 0 0 1 1 1z" fill="#515c6a"/><g fill="#fff"><circle cx="3.365" cy="3.929" r=".323"/><circle cx="4.401" cy="3.929" r=".323"/><circle cx="5.436" cy="3.929" r=".323"/><path d="M5.129 11.434L3.482 9.787a.43.43 0 0 1 0-.607l1.647-1.647a.43.43 0 0 1 .607 0 .43.43 0 0 1 0 .607L4.393 9.483l1.343 1.343a.43.43 0 0 1 .001.607.43.43 0 0 1-.608.001zm1.367-.019l2.458-4.258a.43.43 0 0 1 .587-.158.43.43 0 0 1 .158.587L7.24 11.844a.43.43 0 0 1-.587.158.43.43 0 0 1-.158-.587z"/></g><path d="M14.442 3.431a1 1 0 0 0-1-1H8v3h6.442z" fill="#3b434d"/><g fill="#dfdfdf"><path d="M10.264 10.827l1.343-1.343-1.343-1.343a.43.43 0 0 1 0-.607.43.43 0 0 1 .607 0l1.647 1.648a.43.43 0 0 1 0 .607l-1.647 1.647a.43.43 0 0 1-.607-.609zm-1.31-3.671L8 8.809v1.718l1.7-2.941a.431.431 0 0 0-.746-.43z"/></g></g></svg>