<svg xmlns="http://www.w3.org/2000/svg" xmlns:xlink="http://www.w3.org/1999/xlink" width="187" height="187" viewBox="0 0 187 187"><defs><clipPath id="b"><rect width="187" height="187"/></clipPath></defs><g id="a" clip-path="url(#b)"><g transform="translate(0 1)"><g transform="translate(0)"><path d="M173.179,186.188H13.821A13.6,13.6,0,0,1,0,172.855V13.337A13.6,13.6,0,0,1,13.821,0H173.179A13.6,13.6,0,0,1,187,13.337V172.853A13.6,13.6,0,0,1,173.179,186.188ZM72.318,72c.355,7.647.012,80.7,0,83.806v.017l27.981,0V109.009a18.359,18.359,0,0,1,.923-6.8,17.373,17.373,0,0,1,5.038-6.973,14.414,14.414,0,0,1,9.32-3.218c4.837,0,8.5,1.767,10.883,5.252,2.184,3.193,3.291,7.8,3.291,13.7v44.838h27.98V107.753c0-23.622-12.042-37.725-32.213-37.725-14.527,0-21.351,7.894-25.219,13.832V72Zm-43.474,0v83.822H56.83l0-83.822ZM43.027,31.586c-9.322,0-15.833,5.955-15.833,14.482,0,8.391,6.5,14.481,15.464,14.481h.182a16.759,16.759,0,0,0,11.412-4.042A13.916,13.916,0,0,0,58.672,46.07C58.479,37.407,52.192,31.586,43.027,31.586Z" fill="#949494"/></g></g></g></svg>