<svg xmlns="http://www.w3.org/2000/svg" xmlns:xlink="http://www.w3.org/1999/xlink" width="187" height="187" viewBox="0 0 187 187"><defs><clipPath id="b"><rect width="187" height="187"/></clipPath></defs><g id="a" clip-path="url(#b)"><g transform="translate(14.6 2.614)"><path d="M138.836,35.867a1.742,1.742,0,0,0-1.574-1.462c-.654-.055-14.506-1.081-14.506-1.081s-9.62-9.551-10.676-10.608-3.12-.735-3.921-.5c-.118.035-2.1.647-5.384,1.663C99.562,14.632,93.891,6.135,83.914,6.135c-.275,0-.559.011-.842.027C80.234,2.409,76.719.779,73.683.779,50.441.779,39.337,29.834,35.855,44.6c-9.031,2.8-15.447,4.788-16.267,5.045-5.041,1.581-5.2,1.74-5.862,6.49-.5,3.6-13.688,105.6-13.688,105.6l102.781,19.257,55.69-12.047S138.959,36.773,138.836,35.867ZM97.1,25.636l-8.7,2.692c0-.613.006-1.216.006-1.875A42.659,42.659,0,0,0,86.327,12.41C91.468,13.055,94.892,18.9,97.1,25.636ZM79.95,13.55c1.429,3.581,2.359,8.721,2.359,15.657,0,.355,0,.679-.006,1.007L64.341,35.776C67.8,22.428,74.282,15.982,79.95,13.55ZM73.044,7.013a5.249,5.249,0,0,1,2.981,1.006c-7.449,3.505-15.433,12.333-18.8,29.962l-14.2,4.4C46.972,28.932,56.35,7.013,73.044,7.013Z" transform="translate(0 0)" fill="#fff" stroke="#95bf46" stroke-width="2"/><path d="M200.162,47.413c-.654-.055-14.506-1.081-14.506-1.081s-9.62-9.551-10.676-10.608a2.637,2.637,0,0,0-1.485-.682L165.724,194l55.685-12.046S201.859,49.781,201.736,48.875a1.742,1.742,0,0,0-1.574-1.462" transform="translate(-62.9 -13.007)" fill="#fff" stroke="#5e8e3e" stroke-width="2"/><path d="M98.789,102.938l-6.867,20.426a31.588,31.588,0,0,0-13.391-3.211c-10.812,0-11.356,6.785-11.356,8.495,0,9.329,24.318,12.9,24.318,34.755,0,17.192-10.9,28.263-25.607,28.263-17.643,0-26.666-10.98-26.666-10.98l4.724-15.608s9.274,7.962,17.1,7.962a6.9,6.9,0,0,0,7.194-6.968c0-12.169-19.951-12.712-19.951-32.708,0-16.83,12.08-33.116,36.464-33.116,9.4,0,14.037,2.691,14.037,2.691" transform="translate(-14.875 -37.762)" fill="#fff" stroke="#95bf46" stroke-width="2"/></g></g></svg>